SplineFontDB: 3.0
FontName: Suravaram
FullName: Suravaram
FamilyName: Suravaram
OS2FamilyName: "Suravaram"
OS2StyleName: "regular"
Weight: Regular
Copyright: This font is copyright of SiliconAndhra, USA.
Version: 1.0
FONDName: Suravaram
ItalicAngle: 0
UnderlinePosition: -1100
UnderlineWidth: 60
Ascent: 784
Descent: 196
InvalidEm: 1
UFOAscent: 875
UFODescent: -250
LayerCount: 2
Layer: 0 0 "Back" 1
Layer: 1 0 "Fore" 0
FSType: 0
OS2Version: 0
OS2_WeightWidthSlopeOnly: 0
OS2_UseTypoMetrics: 0
CreationTime: 1416987175
ModificationTime: 1416987175
PfmFamily: 16
TTFWeight: 400
TTFWidth: 5
LineGap: 0
VLineGap: 0
Panose: 0 0 0 0 0 0 0 0 0 0
OS2TypoAscent: 875
OS2TypoAOffset: 0
OS2TypoDescent: -250
OS2TypoDOffset: 0
OS2TypoLinegap: 20
OS2WinAscent: 900
OS2WinAOffset: 0
OS2WinDescent: 750
OS2WinDOffset: 0
HheadAscent: 885
HheadAOffset: 0
HheadDescent: -260
HheadDOffset: 0
OS2SubXSize: 700
OS2SubYSize: 650
OS2SubXOff: 0
OS2SubYOff: 140
OS2SupXSize: 700
OS2SupYSize: 650
OS2SupXOff: 0
OS2SupYOff: 477
OS2StrikeYSize: 50
OS2StrikeYPos: 250
OS2CapHeight: 596
OS2XHeight: 410
OS2Vendor: 'pyrs'
Lookup: 258 0 0 "'kern' Horizontal Kerning in Telugu2 lookup 0" { "'kern' Horizontal Kerning in Telugu2 lookup 0 subtable"  } ['kern' ('tel2' <'dflt' > ) ]
Lookup: 258 0 0 "'kern' Horizontal Kerning lookup 0" { "'kern' Horizontal Kerning lookup 0 subtable"  } ['kern' ('DFLT' <'dflt' > ) ]
DEI: 91125
GroupKern: "VaOttu" "VaEE" -5
GroupKern: "PaOttu" "RMatra" 76
GroupKern: "Kaottu" "RMatra" 28
GroupKern: "Ta" "VaOttu" 71
LangName: 1033 "" "" "" "" "" "Version 0.30 October 30, 2012" "" "" "SiliconAndhra, USA." "Purushoth Kumar Guthula"
PickledDataWithLists: "(dp1
."
Encoding: Custom
Compacted: 1
UnicodeInterp: none
NameList: AGL For New Fonts
DisplaySize: -72
AntiAlias: 1
FitToEm: 1
WinInfo: 32 8 2
BeginPrivate: 7
BlueFuzz 1 1
BlueScale 8 0.039625
BlueShift 1 7
BlueValues 5 [0 0]
ForceBold 5 false
StemSnapH 7 [63 68]
StemSnapV 7 [57 51]
EndPrivate
BeginChars: 708 708

StartChar: exclam
Encoding: 1 33 1
GlifName: exclam
Width: 315
VWidth: 0
Flags: W
LayerCount: 2
Back
Fore
SplineSet
181 92 m 257
NamedP: "hr00"
 217 121 l 257
 253 549 l 257
 139 527 l 257
 181 94 l 257
 181 92 l 257
NamedP: "hr00"
198 -60 m 256
 211 -60 223 -56 233 -47 c 257
 242 -36 247 -25 247 -12 c 256
 247 3 242 15 233 26 c 256
 224 37 212 42 199 42 c 256
 186 42 175 37 164 26 c 257
 155 15 151 3 151 -12 c 256
 151 -25 155 -36 164 -47 c 257
 175 -56 186 -60 198 -60 c 256
EndSplineSet
PickledDataWithLists: "(dp1
S'com.adobe.type.autohint'
p2
(S'data'
S'<data>\\n  <hintSetList>\\n    <hintset pointTag=\"hr00\">\\n      <hstem pos=\"-60\" width=\"609\"/>\\n      <vstem pos=\"139\" width=\"114\"/>\\n      <vstem pos=\"151\" width=\"96\"/>\\n    </hintset>\\n  </hintSetList>\\n  </data>'
Ntp3
s."
EndChar

StartChar: percent
Encoding: 5 37 5
GlifName: percent
Width: 717
VWidth: 0
Flags: W
LayerCount: 2
Back
Fore
SplineSet
541 48 m 256
NamedP: "hr00"
 516 48 495 58 477 77 c 256
 459 97 449 119 449 146 c 256
 449 161 454 172 465 181 c 257
 474 192 485 197 500 197 c 256
 527 197 550 187 569 168 c 256
 588 149 598 125 598 98 c 256
 598 84 592 72 581 63 c 257
 571 53 558 48 541 48 c 256
NamedP: "hr00"
499 -8 m 256
 533 -8 568 8 603 43 c 256
 638 78 654 113 654 146 c 256
 654 175 644 201 623 222 c 256
 602 243 577 253 548 253 c 256
 514 253 480 236 445 201 c 256
 410 166 393 132 393 98 c 256
 393 69 403 44 424 23 c 256
 445 2 470 -8 499 -8 c 256
217 318 m 256
 192 318 171 328 153 347 c 256
 135 367 125 389 125 416 c 256
 125 431 130 442 141 451 c 257
 150 462 161 467 176 467 c 256
 203 467 226 457 245 438 c 256
 264 419 274 395 274 368 c 256
 274 354 268 342 257 333 c 257
 247 323 234 318 217 318 c 256
175 262 m 256
 209 262 244 278 279 313 c 256
 314 348 330 383 330 416 c 256
 330 445 320 471 299 492 c 256
 278 513 253 523 224 523 c 256
 190 523 156 506 121 471 c 256
 86 436 69 402 69 368 c 256
 69 339 79 314 100 293 c 256
 121 272 146 262 175 262 c 256
194 -63 m 257
 571 481 l 257
 513 529 l 257
 135 -13 l 257
 194 -60 l 257
 194 -63 l 257
EndSplineSet
PickledDataWithLists: "(dp1
S'com.adobe.type.autohint'
p2
(S'data'
S'<data>\\n  <hintSetList>\\n    <hintset pointTag=\"hr00\">\\n      <hstem pos=\"-8\" width=\"56\"/>\\n      <hstem pos=\"197\" width=\"56\"/>\\n      <hstem pos=\"262\" width=\"56\"/>\\n      <hstem pos=\"467\" width=\"56\"/>\\n      <vstem pos=\"69\" width=\"56\"/>\\n      <vstem pos=\"274\" width=\"56\"/>\\n      <vstem pos=\"393\" width=\"56\"/>\\n      <vstem pos=\"598\" width=\"56\"/>\\n    </hintset>\\n  </hintSetList>\\n  </data>'
Ntp3
s."
EndChar

StartChar: quotesingle
Encoding: 7 39 7
GlifName: quotesingle
Width: 213
VWidth: 0
Flags: W
LayerCount: 2
Back
Fore
SplineSet
148 527 m 257
NamedP: "hr00"
 143 717 l 257
 69 717 l 257
 104 526 l 257
 148 526 l 257
 148 527 l 257
NamedP: "hr00"
EndSplineSet
PickledDataWithLists: "(dp1
S'com.adobe.type.autohint'
p2
(S'data'
S'<data>\\n  <hintSetList>\\n    <hintset pointTag=\"hr00\">\\n      <hstem pos=\"526\" width=\"191\"/>\\n      <vstem pos=\"104\" width=\"41\"/>\\n    </hintset>\\n  </hintSetList>\\n  </data>'
Ntp3
s."
EndChar

StartChar: parenleft
Encoding: 8 40 8
GlifName: parenleft
Width: 434
VWidth: 0
Flags: W
LayerCount: 2
Back
Fore
SplineSet
323 -177 m 257
NamedP: "hr00"
 373 -122 l 257
 351 -131 l 258
 345 -134 341 -135 340 -135 c 256
 290 -135 244 -94 201 -12 c 256
 158 71 136 160 136 257 c 256
 136 357 150 437 179 497 c 256
 208 556 246 586 293 586 c 256
 305 586 317 584 328 580 c 257
 364 632 l 257
 349 641 337 645 328 645 c 256
 305 645 283 639 261 627 c 256
 238 615 217 598 199 576 c 256
 157 526 125 469 103 406 c 256
 80 343 69 278 69 210 c 256
 69 109 91 19 137 -60 c 256
 182 -138 235 -177 293 -177 c 258
 323 -177 l 257
NamedP: "hr00"
EndSplineSet
PickledDataWithLists: "(dp1
S'com.adobe.type.autohint'
p2
(S'data'
S'<data>\\n  <hintSetList>\\n    <hintset pointTag=\"hr00\">\\n      <hstem pos=\"-177\" width=\"42\"/>\\n      <hstem pos=\"586\" width=\"59\"/>\\n      <vstem pos=\"69\" width=\"67\"/>\\n    </hintset>\\n  </hintSetList>\\n  </data>'
Ntp3
s."
EndChar

StartChar: parenright
Encoding: 9 41 9
GlifName: parenright
Width: 434
VWidth: 0
Flags: W
LayerCount: 2
Back
Fore
SplineSet
79 -167 m 257
NamedP: "hr00"
 94 -175 106 -179 115 -179 c 256
 138 -179 160 -173 183 -161 c 256
 206 -149 225 -131 244 -109 c 256
 285 -59 317 -3 340 61 c 256
 362 124 374 189 374 257 c 256
 374 358 352 448 306 527 c 256
 261 605 208 644 149 644 c 258
 120 644 l 257
 69 587 l 257
 93 598 l 258
 98 600 102 601 103 601 c 256
 154 601 200 560 242 479 c 256
 285 396 307 307 307 210 c 256
 307 110 293 30 264 -30 c 256
 236 -89 198 -119 150 -119 c 256
 144 -119 132 -115 115 -107 c 257
 79 -166 l 257
 79 -167 l 257
NamedP: "hr00"
EndSplineSet
PickledDataWithLists: "(dp1
S'com.adobe.type.autohint'
p2
(S'data'
S'<data>\\n  <hintSetList>\\n    <hintset pointTag=\"hr00\">\\n      <hstem pos=\"-179\" width=\"60\"/>\\n      <hstem pos=\"601\" width=\"43\"/>\\n      <vstem pos=\"307\" width=\"67\"/>\\n    </hintset>\\n  </hintSetList>\\n  </data>'
Ntp3
s."
EndChar

StartChar: plus
Encoding: 11 43 11
GlifName: plus
Width: 554
VWidth: 0
Flags: W
LayerCount: 2
Back
Fore
SplineSet
233 -2 m 257
NamedP: "hr00"
 317 46 l 257
 317 185 l 257
 438 185 l 257
 493 258 l 257
 317 258 l 257
 317 457 l 257
 233 409 l 257
 233 269 l 257
 129 269 l 257
 69 185 l 257
 233 185 l 257
 233 0 l 257
 233 -2 l 257
NamedP: "hr00"
EndSplineSet
PickledDataWithLists: "(dp1
S'com.adobe.type.autohint'
p2
(S'data'
S'<data>\\n  <hintSetList>\\n    <hintset pointTag=\"hr00\">\\n      <hstem pos=\"185\" width=\"73\"/>\\n      <vstem pos=\"233\" width=\"84\"/>\\n    </hintset>\\n  </hintSetList>\\n  </data>'
Ntp3
s."
EndChar

StartChar: comma
Encoding: 12 44 12
GlifName: comma
Width: 262
VWidth: 0
Flags: W
LayerCount: 2
Back
Fore
SplineSet
81 -135 m 257
NamedP: "hr00"
 114 -135 143 -121 166 -91 c 256
 189 -62 199 -25 199 18 c 256
 199 43 193 65 180 84 c 256
 168 102 153 111 135 111 c 256
 117 111 101 106 88 95 c 256
 75 83 69 69 69 53 c 256
 69 38 75 26 88 15 c 256
 101 4 117 -1 134 -1 c 257
 134 -36 129 -66 119 -91 c 256
 109 -115 96 -129 81 -133 c 257
 81 -135 l 257
NamedP: "hr00"
EndSplineSet
PickledDataWithLists: "(dp1
S'com.adobe.type.autohint'
p2
(S'data'
S'<data>\\n  <hintSetList>\\n    <hintset pointTag=\"hr00\">\\n      <hstem pos=\"20\" width=\"-21\"/>\\n      <vstem pos=\"134\" width=\"65\"/>\\n    </hintset>\\n  </hintSetList>\\n  </data>'
Ntp3
s."
EndChar

StartChar: hyphen
Encoding: 13 45 13
GlifName: hyphen
Width: 484
VWidth: 0
Flags: W
LayerCount: 2
Back
Fore
SplineSet
69 185 m 257
NamedP: "hr00"
 362 185 l 257
 422 258 l 257
 129 258 l 257
 69 186 l 257
 69 185 l 257
NamedP: "hr00"
EndSplineSet
PickledDataWithLists: "(dp1
S'com.adobe.type.autohint'
p2
(S'data'
S'<data>\\n  <hintSetList>\\n    <hintset pointTag=\"hr00\">\\n      <hstem pos=\"185\" width=\"73\"/>\\n      <vstem pos=\"69\" width=\"353\"/>\\n    </hintset>\\n  </hintSetList>\\n  </data>'
Ntp3
s."
EndChar

StartChar: period
Encoding: 14 46 14
GlifName: period
Width: 250
VWidth: 0
Flags: W
LayerCount: 2
Back
Fore
SplineSet
128 -7 m 256
NamedP: "hr00"
 145 -7 159 -1 171 12 c 256
 182 25 187 41 187 59 c 256
 187 75 183 89 171 101 c 256
 159 113 145 117 129 117 c 256
 113 117 99 112 86 101 c 257
 75 89 69 75 69 59 c 256
 69 41 74 25 86 12 c 256
 98 -2 113 -7 128 -7 c 256
NamedP: "hr00"
EndSplineSet
PickledDataWithLists: "(dp1
S'com.adobe.type.autohint'
p2
(S'data'
S'<data>\\n  <hintSetList>\\n    <hintset pointTag=\"hr00\">\\n      <hstem pos=\"-7\" width=\"124\"/>\\n      <vstem pos=\"69\" width=\"118\"/>\\n    </hintset>\\n  </hintSetList>\\n  </data>'
Ntp3
s."
EndChar

StartChar: slash
Encoding: 15 47 15
GlifName: slash
Width: 550
VWidth: 0
Flags: W
LayerCount: 2
Back
Fore
SplineSet
128 -189 m 257
NamedP: "hr00"
 488 556 l 257
 429 597 l 257
 69 -144 l 257
 128 -186 l 257
 128 -189 l 257
NamedP: "hr00"
EndSplineSet
PickledDataWithLists: "(dp1
S'com.adobe.type.autohint'
p2
(S'data'
S'<data>\\n  <hintSetList>\\n    <hintset pointTag=\"hr00\">\\n      <hstem pos=\"-189\" width=\"786\"/>\\n      <vstem pos=\"69\" width=\"419\"/>\\n    </hintset>\\n  </hintSetList>\\n  </data>'
Ntp3
s."
EndChar

StartChar: zero
Encoding: 16 48 16
GlifName: zero
Width: 485
VWidth: 0
Flags: W
LayerCount: 2
Back
Fore
SplineSet
271 32 m 256
NamedP: "hr00"
 221 32 181 56 150 105 c 256
 119 152 104 217 104 298 c 256
 104 339 113 371 132 395 c 256
 151 420 176 432 208 432 c 256
 259 432 302 407 340 360 c 256
 378 312 399 258 399 197 c 256
 399 146 387 107 364 78 c 256
 341 47 310 32 271 32 c 256
NamedP: "hr00"
254 -6 m 256
 309 -6 357 19 396 69 c 256
 435 120 454 180 454 250 c 256
 454 312 434 365 394 410 c 256
 353 455 305 477 249 477 c 256
 188 477 138 453 98 404 c 256
 58 355 38 293 38 218 c 256
 38 157 59 104 102 60 c 256
 145 16 195 -6 254 -6 c 256
EndSplineSet
PickledDataWithLists: "(dp1
S'com.adobe.type.autohint'
p2
(S'data'
S'<data>\\n  <hintSetList>\\n    <hintset pointTag=\"hr00\">\\n      <hstem pos=\"-6\" width=\"38\"/>\\n      <hstem pos=\"432\" width=\"45\"/>\\n      <vstem pos=\"38\" width=\"66\"/>\\n      <vstem pos=\"399\" width=\"55\"/>\\n    </hintset>\\n  </hintSetList>\\n  </data>'
Ntp3
s."
EndChar

StartChar: one
Encoding: 17 49 17
GlifName: one
Width: 485
VWidth: 0
Flags: W
LayerCount: 2
Back
Fore
SplineSet
103 354 m 257
NamedP: "hr00"
 125 301 l 257
 161 314 190 331 212 352 c 257
 212 49 l 257
 87 49 l 257
 62 -1 l 257
 412 -1 l 257
 431 49 l 257
 297 49 l 257
 297 474 l 257
 219 446 l 257
 180 399 141 368 103 355 c 257
 103 354 l 257
NamedP: "hr00"
EndSplineSet
PickledDataWithLists: "(dp1
S'com.adobe.type.autohint'
p2
(S'data'
S'<data>\\n  <hintSetList>\\n    <hintset pointTag=\"hr00\">\\n      <hstem pos=\"-1\" width=\"50\"/>\\n      <vstem pos=\"212\" width=\"85\"/>\\n    </hintset>\\n  </hintSetList>\\n  </data>'
Ntp3
s."
EndChar

StartChar: two
Encoding: 18 50 18
GlifName: two
Width: 487
VWidth: 0
Flags: W
LayerCount: 2
Back
Fore
SplineSet
65 -9 m 257
NamedP: "hr00"
 71 1 81 8 96 13 c 256
 112 18 131 21 153 21 c 257
 341 -1 l 257
 362 -1 378 1 387 4 c 257
 433 65 l 258
 434 66 427 64 414 57 c 257
 399 51 382 48 363 48 c 256
 346 48 319 51 284 59 c 256
 250 66 224 71 206 71 c 256
 175 71 152 66 137 57 c 257
 130 64 124 70 120 77 c 256
 116 85 114 93 114 100 c 256
 114 117 127 138 153 163 c 256
 176 186 214 216 265 253 c 256
 307 284 339 310 360 331 c 256
 382 354 393 374 393 389 c 256
 393 411 383 430 364 447 c 256
 345 463 321 471 294 471 c 258
 200 471 l 258
 163 471 128 459 96 435 c 256
 64 410 48 383 48 354 c 256
 48 345 52 332 59 315 c 257
 155 349 l 257
 138 369 l 258
 134 375 132 380 132 384 c 256
 132 401 140 416 157 429 c 256
 174 442 194 448 218 448 c 256
 245 448 268 440 287 424 c 256
 306 409 316 390 316 367 c 256
 316 355 306 341 288 321 c 256
 274 307 249 283 211 252 c 256
 159 209 119 169 91 132 c 256
 62 93 48 63 48 40 c 256
 48 29 50 20 53 13 c 257
 55 4 59 -2 65 -6 c 257
 65 -9 l 257
NamedP: "hr00"
EndSplineSet
PickledDataWithLists: "(dp1
S'com.adobe.type.autohint'
p2
(S'data'
S'<data>\\n  <hintSetList>\\n    <hintset pointTag=\"hr00\">\\n      <hstem pos=\"-1\" width=\"49\"/>\\n      <hstem pos=\"21\" width=\"50\"/>\\n      <hstem pos=\"448\" width=\"23\"/>\\n      <vstem pos=\"48\" width=\"385\"/>\\n      <vstem pos=\"48\" width=\"66\"/>\\n      <vstem pos=\"48\" width=\"84\"/>\\n      <vstem pos=\"316\" width=\"77\"/>\\n    </hintset>\\n  </hintSetList>\\n  </data>'
Ntp3
s."
EndChar

StartChar: three
Encoding: 19 51 19
GlifName: three
Width: 487
VWidth: 0
Flags: W
LayerCount: 2
Back
Fore
SplineSet
305 -1 m 258
NamedP: "hr00"
 336 -1 368 17 399 53 c 256
 431 90 446 126 446 162 c 256
 446 189 434 216 411 241 c 256
 387 266 356 285 319 299 c 257
 338 322 353 341 361 354 c 256
 372 371 376 383 376 392 c 256
 376 411 366 429 346 446 c 256
 327 462 305 470 282 470 c 258
 223 470 l 258
 194 470 163 458 133 432 c 256
 103 406 89 379 89 354 c 256
 89 345 93 334 102 323 c 256
 110 314 122 305 137 298 c 257
 202 354 l 257
 187 361 176 368 168 375 c 256
 159 382 154 387 154 392 c 256
 154 401 159 410 170 417 c 256
 180 423 192 426 206 426 c 256
 233 426 259 419 282 406 c 256
 305 392 316 377 316 362 c 256
 316 348 307 332 288 313 c 256
 269 294 242 274 208 255 c 257
 261 255 304 243 336 219 c 256
 369 195 385 165 385 128 c 256
 385 103 374 81 352 63 c 256
 329 45 302 36 270 36 c 256
 230 36 197 46 171 67 c 256
 145 87 132 113 132 145 c 256
 132 155 136 167 143 181 c 257
 48 129 l 257
 51 92 68 61 101 36 c 256
 134 11 173 -1 217 -1 c 258
 305 -1 l 258
NamedP: "hr00"
EndSplineSet
PickledDataWithLists: "(dp1
S'com.adobe.type.autohint'
p2
(S'data'
S'<data>\\n  <hintSetList>\\n    <hintset pointTag=\"hr00\">\\n      <hstem pos=\"-1\" width=\"37\"/>\\n      <hstem pos=\"426\" width=\"44\"/>\\n      <vstem pos=\"48\" width=\"84\"/>\\n      <vstem pos=\"316\" width=\"60\"/>\\n      <vstem pos=\"385\" width=\"61\"/>\\n    </hintset>\\n  </hintSetList>\\n  </data>'
Ntp3
s."
EndChar

StartChar: four
Encoding: 20 52 20
GlifName: four
Width: 487
VWidth: 0
Flags: W
LayerCount: 2
Back
Fore
SplineSet
99 183 m 257
NamedP: "hr00"
 262 410 l 257
 262 187 l 257
 99 187 l 257
 99 183 l 257
NamedP: "hr00"
262 -7 m 257
 346 34 l 257
 346 125 l 257
 379 125 l 257
 451 187 l 257
 346 187 l 257
 346 471 l 257
 261 471 l 257
 44 187 l 257
 44 125 l 257
 262 125 l 257
 262 -5 l 257
 262 -7 l 257
EndSplineSet
PickledDataWithLists: "(dp1
S'com.adobe.type.autohint'
p2
(S'data'
S'<data>\\n  <hintSetList>\\n    <hintset pointTag=\"hr00\">\\n      <hstem pos=\"125\" width=\"62\"/>\\n      <hstem pos=\"410\" width=\"61\"/>\\n      <vstem pos=\"262\" width=\"84\"/>\\n    </hintset>\\n  </hintSetList>\\n  </data>'
Ntp3
s."
EndChar

StartChar: five
Encoding: 21 53 21
GlifName: five
Width: 485
VWidth: 0
Flags: W
LayerCount: 2
Back
Fore
SplineSet
198 -6 m 256
NamedP: "hr00"
 269 -6 330 14 381 55 c 256
 432 97 457 146 457 203 c 256
 457 241 435 276 392 307 c 256
 347 339 299 355 248 355 c 256
 225 355 204 353 187 349 c 256
 170 346 157 341 148 335 c 257
 180 409 l 257
 363 409 l 257
 422 471 l 257
 127 471 l 257
 55 298 l 257
 117 258 l 257
 128 270 145 280 168 287 c 256
 192 294 221 297 254 297 c 256
 290 297 323 283 354 257 c 256
 385 231 400 204 400 173 c 256
 400 138 385 108 355 81 c 256
 326 54 293 41 254 41 c 256
 222 41 193 49 168 66 c 256
 141 83 127 102 127 121 c 256
 127 131 129 140 134 147 c 257
 36 127 l 257
 36 92 52 61 85 34 c 256
 118 7 156 -6 198 -6 c 256
NamedP: "hr00"
EndSplineSet
PickledDataWithLists: "(dp1
S'com.adobe.type.autohint'
p2
(S'data'
S'<data>\\n  <hintSetList>\\n    <hintset pointTag=\"hr00\">\\n      <hstem pos=\"-6\" width=\"47\"/>\\n      <hstem pos=\"297\" width=\"58\"/>\\n      <hstem pos=\"409\" width=\"62\"/>\\n      <vstem pos=\"36\" width=\"91\"/>\\n      <vstem pos=\"400\" width=\"57\"/>\\n    </hintset>\\n  </hintSetList>\\n  </data>'
Ntp3
s."
EndChar

StartChar: six
Encoding: 22 54 22
GlifName: six
Width: 485
VWidth: 0
Flags: W
LayerCount: 2
Back
Fore
SplineSet
283 41 m 256
NamedP: "hr00"
 262 41 242 46 224 56 c 256
 205 67 191 82 180 100 c 257
 187 117 199 131 218 142 c 256
 235 153 255 159 278 159 c 256
 300 159 319 152 334 138 c 257
 350 126 358 110 358 91 c 256
 358 78 351 66 337 56 c 256
 322 46 304 41 283 41 c 256
NamedP: "hr00"
254 -6 m 256
 293 -6 332 10 371 40 c 256
 410 70 430 99 430 130 c 256
 430 151 418 170 395 187 c 256
 371 204 346 212 319 212 c 256
 284 212 253 204 224 188 c 256
 193 172 170 150 155 123 c 257
 125 176 110 228 110 277 c 256
 110 325 121 363 143 391 c 256
 165 420 194 435 231 435 c 256
 260 435 287 428 312 413 c 256
 336 398 354 378 365 353 c 257
 436 394 l 257
 425 417 407 437 384 451 c 256
 361 465 335 471 307 471 c 258
 249 471 l 258
 202 471 157 448 116 403 c 256
 76 358 56 308 56 254 c 258
 56 194 l 258
 56 145 76 99 118 57 c 256
 161 14 206 -6 254 -6 c 256
EndSplineSet
PickledDataWithLists: "(dp1
S'com.adobe.type.autohint'
p2
(S'data'
S'<data>\\n  <hintSetList>\\n    <hintset pointTag=\"hr00\">\\n      <hstem pos=\"-6\" width=\"47\"/>\\n      <hstem pos=\"159\" width=\"53\"/>\\n      <hstem pos=\"435\" width=\"36\"/>\\n      <vstem pos=\"56\" width=\"54\"/>\\n      <vstem pos=\"358\" width=\"72\"/>\\n    </hintset>\\n  </hintSetList>\\n  </data>'
Ntp3
s."
EndChar

StartChar: seven
Encoding: 23 55 23
GlifName: seven
Width: 485
VWidth: 0
Flags: W
LayerCount: 2
Back
Fore
SplineSet
180 -6 m 257
NamedP: "hr00"
 280 29 l 257
 280 102 291 172 317 241 c 256
 342 309 379 371 426 428 c 257
 379 471 l 257
 103 471 l 257
 67 418 l 257
 359 418 l 257
 301 349 257 278 226 205 c 256
 195 132 180 62 180 -5 c 257
 180 -6 l 257
NamedP: "hr00"
EndSplineSet
PickledDataWithLists: "(dp1
S'com.adobe.type.autohint'
p2
(S'data'
S'<data>\\n  <hintSetList>\\n    <hintset pointTag=\"hr00\">\\n      <hstem pos=\"418\" width=\"53\"/>\\n      <vstem pos=\"180\" width=\"100\"/>\\n    </hintset>\\n  </hintSetList>\\n  </data>'
Ntp3
s."
EndChar

StartChar: eight
Encoding: 24 56 24
GlifName: eight
Width: 485
VWidth: 0
Flags: W
LayerCount: 2
Back
Fore
SplineSet
245 276 m 257
NamedP: "hr00"
 200 308 l 257
 183 323 171 336 162 349 c 256
 153 362 148 373 148 384 c 256
 148 403 156 419 173 431 c 256
 190 444 210 451 234 451 c 256
 261 451 284 443 305 426 c 256
 328 409 339 391 339 372 c 256
 339 363 334 353 324 341 c 257
 315 328 303 314 286 300 c 257
 245 275 l 257
 245 276 l 257
NamedP: "hr00"
274 26 m 256
 240 26 209 36 180 56 c 256
 151 76 137 97 137 120 c 256
 137 132 144 147 157 165 c 256
 170 182 188 201 211 221 c 257
 274 187 l 257
 303 166 326 146 342 129 c 256
 359 111 368 96 368 85 c 256
 368 69 359 56 340 44 c 256
 322 33 300 26 274 26 c 256
287 -1 m 258
 322 -1 355 10 384 36 c 256
 414 62 427 91 427 120 c 256
 427 133 419 150 404 169 c 256
 389 186 368 204 341 223 c 257
 283 256 l 257
 341 293 l 257
 366 314 384 331 396 346 c 256
 409 362 416 375 416 384 c 256
 416 405 408 426 389 444 c 256
 371 462 349 470 328 470 c 258
 211 470 l 258
 177 470 145 458 114 435 c 256
 85 412 70 386 70 359 c 256
 70 341 104 304 171 247 c 258
 185 235 l 257
 147 203 117 174 96 149 c 256
 75 122 64 101 64 85 c 256
 64 64 78 43 105 25 c 256
 132 7 161 -1 192 -1 c 258
 287 -1 l 258
EndSplineSet
PickledDataWithLists: "(dp1
S'com.adobe.type.autohint'
p2
(S'data'
S'<data>\\n  <hintSetList>\\n    <hintset pointTag=\"hr00\">\\n      <hstem pos=\"-1\" width=\"27\"/>\\n      <hstem pos=\"451\" width=\"19\"/>\\n      <vstem pos=\"64\" width=\"363\"/>\\n      <vstem pos=\"64\" width=\"73\"/>\\n      <vstem pos=\"70\" width=\"78\"/>\\n      <vstem pos=\"339\" width=\"77\"/>\\n      <vstem pos=\"368\" width=\"59\"/>\\n    </hintset>\\n  </hintSetList>\\n  </data>'
Ntp3
s."
EndChar

StartChar: nine
Encoding: 25 57 25
GlifName: nine
Width: 487
VWidth: 0
Flags: W
LayerCount: 2
Back
Fore
SplineSet
205 307 m 256
NamedP: "hr00"
 184 307 166 315 150 330 c 256
 134 345 126 364 126 385 c 256
 126 399 133 411 147 421 c 256
 162 432 180 437 200 437 c 256
 227 437 250 431 271 419 c 256
 292 407 307 391 316 372 c 257
 309 353 296 337 276 325 c 256
 255 313 232 307 205 307 c 256
NamedP: "hr00"
217 -6 m 256
 285 -6 339 16 380 61 c 256
 420 106 440 165 440 240 c 256
 440 305 419 361 376 408 c 256
 334 454 283 477 223 477 c 256
 188 477 154 464 119 437 c 256
 83 409 65 381 65 354 c 256
 65 333 76 312 99 293 c 256
 121 274 145 265 171 265 c 256
 208 265 241 272 270 287 c 256
 299 302 321 322 335 347 c 257
 365 302 380 251 380 193 c 256
 380 143 369 103 348 73 c 256
 325 42 296 27 259 27 c 256
 232 27 206 35 182 51 c 256
 157 67 139 88 126 115 c 257
 54 84 l 257
 67 56 88 34 117 18 c 256
 147 2 180 -6 217 -6 c 256
EndSplineSet
PickledDataWithLists: "(dp1
S'com.adobe.type.autohint'
p2
(S'data'
S'<data>\\n  <hintSetList>\\n    <hintset pointTag=\"hr00\">\\n      <hstem pos=\"-6\" width=\"33\"/>\\n      <hstem pos=\"265\" width=\"42\"/>\\n      <hstem pos=\"437\" width=\"40\"/>\\n      <vstem pos=\"65\" width=\"61\"/>\\n      <vstem pos=\"380\" width=\"60\"/>\\n    </hintset>\\n  </hintSetList>\\n  </data>'
Ntp3
s."
EndChar

StartChar: colon
Encoding: 26 58 26
GlifName: colon
Width: 250
VWidth: 0
Flags: W
LayerCount: 2
Back
Fore
SplineSet
128 226 m 256
NamedP: "hr00"
 145 226 159 232 171 245 c 256
 182 258 187 274 187 292 c 256
 187 308 182 322 171 333 c 256
 159 344 145 350 129 350 c 256
 113 350 99 345 86 333 c 256
 75 322 69 308 69 292 c 256
 69 274 74 258 86 245 c 256
 98 231 113 226 128 226 c 256
NamedP: "hr00"
128 -7 m 256
 145 -7 159 -1 171 12 c 256
 182 25 187 41 187 59 c 256
 187 75 183 89 171 101 c 256
 159 113 145 117 129 117 c 256
 113 117 99 112 86 101 c 257
 75 89 69 75 69 59 c 256
 69 41 74 25 86 12 c 256
 98 -2 113 -7 128 -7 c 256
EndSplineSet
PickledDataWithLists: "(dp1
S'com.adobe.type.autohint'
p2
(S'data'
S'<data>\\n  <hintSetList>\\n    <hintset pointTag=\"hr00\">\\n      <hstem pos=\"-7\" width=\"357\"/>\\n      <hstem pos=\"226\" width=\"124\"/>\\n      <vstem pos=\"69\" width=\"118\"/>\\n    </hintset>\\n  </hintSetList>\\n  </data>'
Ntp3
s."
EndChar

StartChar: semicolon
Encoding: 27 59 27
GlifName: semicolon
Width: 344
VWidth: 0
Flags: W
LayerCount: 2
Back
Fore
SplineSet
139 -158 m 257
NamedP: "hr00"
 179 -158 214 -140 241 -101 c 256
 269 -62 281 -14 281 41 c 256
 281 60 275 77 262 91 c 256
 249 104 233 111 216 111 c 256
 198 111 183 106 170 95 c 256
 157 83 151 69 151 53 c 256
 151 38 157 26 170 15 c 256
 183 4 198 -1 215 -1 c 257
 215 -41 207 -75 193 -104 c 256
 179 -133 162 -151 139 -156 c 257
 139 -158 l 257
NamedP: "hr00"
204 226 m 256
 221 226 235 232 247 245 c 256
 258 258 263 274 263 292 c 256
 263 308 258 322 247 333 c 256
 235 344 221 350 205 350 c 256
 189 350 175 345 162 333 c 256
 151 322 145 308 145 292 c 256
 145 274 150 258 162 245 c 256
 174 231 189 226 204 226 c 256
EndSplineSet
PickledDataWithLists: "(dp1
S'com.adobe.type.autohint'
p2
(S'data'
S'<data>\\n  <hintSetList>\\n    <hintset pointTag=\"hr00\">\\n      <hstem pos=\"20\" width=\"-21\"/>\\n      <vstem pos=\"145\" width=\"118\"/>\\n      <vstem pos=\"215\" width=\"66\"/>\\n    </hintset>\\n  </hintSetList>\\n  </data>'
Ntp3
s."
EndChar

StartChar: less
Encoding: 28 60 28
GlifName: less
Width: 550
VWidth: 0
Flags: W
LayerCount: 2
Back
Fore
SplineSet
69 189 m 257
NamedP: "hr00"
 487 -57 l 257
 487 13 l 257
 131 228 l 257
 487 443 l 257
 487 511 l 257
 69 261 l 257
 69 190 l 257
 69 189 l 257
NamedP: "hr00"
EndSplineSet
PickledDataWithLists: "(dp1
S'com.adobe.type.autohint'
p2
(S'data'
S'<data>\\n  <hintSetList>\\n    <hintset pointTag=\"hr00\">\\n      <hstem pos=\"-57\" width=\"568\"/>\\n      <vstem pos=\"69\" width=\"62\"/>\\n    </hintset>\\n  </hintSetList>\\n  </data>'
Ntp3
s."
EndChar

StartChar: equal
Encoding: 29 61 29
GlifName: equal
Width: 602
VWidth: 0
Flags: W
LayerCount: 2
Back
Fore
SplineSet
69 244 m 257
NamedP: "hr00"
 480 244 l 257
 540 315 l 257
 129 315 l 257
 69 245 l 257
 69 244 l 257
NamedP: "hr00"
69 81 m 257
 480 81 l 257
 540 152 l 257
 129 152 l 257
 69 82 l 257
 69 81 l 257
EndSplineSet
PickledDataWithLists: "(dp1
S'com.adobe.type.autohint'
p2
(S'data'
S'<data>\\n  <hintSetList>\\n    <hintset pointTag=\"hr00\">\\n      <hstem pos=\"81\" width=\"71\"/>\\n      <hstem pos=\"244\" width=\"71\"/>\\n      <vstem pos=\"69\" width=\"471\"/>\\n    </hintset>\\n  </hintSetList>\\n  </data>'
Ntp3
s."
EndChar

StartChar: greater
Encoding: 30 62 30
GlifName: greater
Width: 550
VWidth: 0
Flags: W
LayerCount: 2
Back
Fore
SplineSet
485 190 m 257
NamedP: "hr00"
 487 261 l 257
 69 511 l 257
 69 443 l 257
 426 228 l 257
 69 13 l 257
 69 -57 l 257
 485 188 l 257
 485 190 l 257
NamedP: "hr00"
EndSplineSet
PickledDataWithLists: "(dp1
S'com.adobe.type.autohint'
p2
(S'data'
S'<data>\\n  <hintSetList>\\n    <hintset pointTag=\"hr00\">\\n      <hstem pos=\"-57\" width=\"568\"/>\\n      <vstem pos=\"426\" width=\"59\"/>\\n    </hintset>\\n  </hintSetList>\\n  </data>'
Ntp3
s."
EndChar

StartChar: question
Encoding: 31 63 31
GlifName: question
Width: 548
VWidth: 0
Flags: W
LayerCount: 2
Back
Fore
SplineSet
227 93 m 257
NamedP: "hr00"
 293 142 l 257
 280 149 270 159 263 170 c 256
 256 183 253 197 253 211 c 256
 253 227 258 244 269 261 c 256
 280 278 296 294 316 309 c 258
 380 355 l 257
 413 374 438 397 457 423 c 256
 476 450 485 476 485 503 c 256
 485 535 473 564 445 587 c 256
 417 610 383 620 344 620 c 256
 291 620 243 605 201 572 c 256
 160 540 139 503 139 462 c 256
 139 441 143 423 152 408 c 257
 242 450 l 257
 233 457 227 465 223 472 c 256
 219 480 217 488 217 497 c 256
 217 521 226 541 244 558 c 256
 262 575 284 583 309 583 c 256
 336 583 358 570 380 546 c 256
 402 521 414 496 414 467 c 256
 414 450 408 433 397 416 c 256
 385 399 369 383 349 369 c 258
 291 329 l 258
 257 305 230 281 210 254 c 256
 191 228 180 204 180 181 c 256
 180 166 184 151 192 136 c 256
 200 121 212 107 227 95 c 257
 227 93 l 257
NamedP: "hr00"
261 -60 m 256
 275 -60 287 -56 297 -47 c 257
 306 -36 310 -25 310 -12 c 256
 310 1 306 12 297 23 c 257
 287 32 275 36 262 36 c 256
 249 36 238 32 228 23 c 257
 219 12 215 1 215 -12 c 256
 215 -25 219 -36 228 -47 c 257
 238 -56 249 -60 261 -60 c 256
EndSplineSet
PickledDataWithLists: "(dp1
S'com.adobe.type.autohint'
p2
(S'data'
S'<data>\\n  <hintSetList>\\n    <hintset pointTag=\"hr00\">\\n      <hstem pos=\"583\" width=\"37\"/>\\n      <vstem pos=\"139\" width=\"78\"/>\\n      <vstem pos=\"180\" width=\"73\"/>\\n      <vstem pos=\"215\" width=\"95\"/>\\n      <vstem pos=\"414\" width=\"71\"/>\\n    </hintset>\\n  </hintSetList>\\n  </data>'
Ntp3
s."
EndChar

StartChar: uni2018
Encoding: 95 8216 95
GlifName: uni2018
Width: 298
VWidth: 0
Flags: W
LayerCount: 2
Back
Fore
SplineSet
134 325 m 256
NamedP: "hr00"
 147 325 159 330 169 341 c 256
 178 352 183 365 183 379 c 256
 183 392 178 401 167 407 c 256
 157 413 147 414 136 409 c 257
 136 437 145 464 162 491 c 256
 180 518 205 541 238 560 c 257
 190 560 149 544 117 510 c 256
 84 476 69 433 69 385 c 256
 69 369 74 354 88 342 c 256
 101 330 117 325 134 325 c 256
NamedP: "hr00"
EndSplineSet
PickledDataWithLists: "(dp1
S'com.adobe.type.autohint'
p2
(S'data'
S'<data>\\n  <hintSetList>\\n    <hintset pointTag=\"hr00\">\\n      <hstem pos=\"325\" width=\"235\"/>\\n      <hstem pos=\"325\" width=\"87\"/>\\n      <vstem pos=\"69\" width=\"67\"/>\\n    </hintset>\\n  </hintSetList>\\n  </data>'
Ntp3
s."
EndChar

StartChar: uni2019
Encoding: 96 8217 96
GlifName: uni2019
Width: 274
VWidth: 0
Flags: W
LayerCount: 2
Back
Fore
SplineSet
69 256 m 257
NamedP: "hr00"
 108 256 143 271 171 305 c 256
 199 338 211 379 211 426 c 256
 211 451 205 473 192 492 c 256
 179 510 164 519 146 519 c 256
 130 519 116 514 104 504 c 257
 93 493 87 480 87 466 c 256
 87 450 92 436 104 424 c 256
 116 412 130 407 145 407 c 257
 145 368 137 335 123 307 c 256
 109 280 92 263 69 258 c 257
 69 256 l 257
NamedP: "hr00"
EndSplineSet
PickledDataWithLists: "(dp1
S'com.adobe.type.autohint'
p2
(S'data'
S'<data>\\n  <hintSetList>\\n    <hintset pointTag=\"hr00\">\\n      <hstem pos=\"256\" width=\"263\"/>\\n      <vstem pos=\"145\" width=\"66\"/>\\n    </hintset>\\n  </hintSetList>\\n  </data>'
Ntp3
s."
EndChar

StartChar: uni201C
Encoding: 97 8220 97
GlifName: uni201C_
Width: 495
VWidth: 0
Flags: W
LayerCount: 2
Back
Fore
SplineSet
426 488 m 257
NamedP: "hr00"
 426 488 418 498 403 517 c 256
 388 534 380 549 380 561 c 256
 380 588 384 613 393 636 c 257
 400 660 411 681 427 698 c 257
 395 714 l 257
 365 690 342 662 327 630 c 256
 311 597 303 564 303 531 c 256
 303 502 310 477 321 457 c 256
 333 435 346 424 364 424 c 256
 381 424 396 428 408 437 c 256
 420 447 426 464 426 488 c 257
NamedP: "hr00"
198 488 m 257
 198 488 191 498 176 517 c 256
 161 534 153 549 153 561 c 256
 153 588 158 613 165 636 c 256
 173 660 184 681 199 698 c 257
 167 714 l 257
 137 690 114 662 99 630 c 256
 83 597 75 564 75 531 c 256
 75 502 82 477 93 457 c 256
 105 435 119 424 137 424 c 256
 154 424 168 428 180 437 c 256
 192 447 198 464 198 488 c 257
EndSplineSet
PickledDataWithLists: "(dp1
S'com.adobe.type.autohint'
p2
(S'data'
S'<data>\\n  <hintSetList>\\n    <hintset pointTag=\"hr00\">\\n      <hstem pos=\"424\" width=\"290\"/>\\n      <vstem pos=\"75\" width=\"78\"/>\\n      <vstem pos=\"303\" width=\"77\"/>\\n    </hintset>\\n  </hintSetList>\\n  </data>'
Ntp3
s."
EndChar

StartChar: uni201D
Encoding: 98 8221 98
GlifName: uni201D_
Width: 495
VWidth: 0
Flags: W
LayerCount: 2
Back
Fore
SplineSet
304 592 m 256
NamedP: "hr00"
 304 579 311 564 326 545 c 256
 341 528 349 513 349 501 c 256
 349 474 344 449 337 426 c 256
 329 402 318 381 303 364 c 257
 335 348 l 257
 364 372 387 400 403 432 c 256
 419 465 427 498 427 531 c 256
 427 560 421 585 408 605 c 257
 397 627 382 638 365 638 c 256
 347 638 333 633 322 624 c 256
 310 615 304 605 304 592 c 256
NamedP: "hr00"
76 592 m 256
 76 579 84 564 99 545 c 256
 114 528 122 513 122 501 c 256
 122 474 118 449 109 426 c 257
 102 402 91 381 75 364 c 257
 107 348 l 257
 136 372 159 400 175 432 c 256
 191 465 199 498 199 531 c 256
 199 560 193 585 180 605 c 257
 169 627 155 638 138 638 c 256
 120 638 105 633 94 624 c 256
 82 615 76 605 76 592 c 256
EndSplineSet
PickledDataWithLists: "(dp1
S'com.adobe.type.autohint'
p2
(S'data'
S'<data>\\n  <hintSetList>\\n    <hintset pointTag=\"hr00\">\\n      <hstem pos=\"348\" width=\"290\"/>\\n      <vstem pos=\"122\" width=\"77\"/>\\n      <vstem pos=\"349\" width=\"78\"/>\\n    </hintset>\\n  </hintSetList>\\n  </data>'
Ntp3
s."
EndChar

StartChar: .notdef
Encoding: 107 -1 107
GlifName: _notdef
Width: 886
VWidth: 0
Flags: W
LayerCount: 2
Back
Fore
SplineSet
384 128 m 257
NamedP: "hr00"
 346 152 316 184 294 223 c 257
 220 170 l 257
 249 121 287 82 334 52 c 257
 384 128 l 257
NamedP: "hr00"
598 88 m 257
 577 82 555 79 533 79 c 256
 510 79 488 82 467 88 c 257
 452 -4 l 257
 480 -9 507 -12 532 -12 c 256
 559 -12 585 -9 612 -4 c 257
 598 88 l 257
268 296 m 257
 263 318 260 341 260 364 c 256
 260 387 263 409 268 432 c 257
 179 448 l 257
 174 421 171 393 171 364 c 256
 171 335 174 308 179 281 c 257
 268 296 l 257
334 677 m 257
 287 646 249 606 220 559 c 257
 294 506 l 257
 316 545 346 577 384 602 c 257
 334 677 l 257
773 223 m 257
 749 184 718 152 680 128 c 257
 731 52 l 257
 778 82 816 121 845 170 c 257
 773 223 l 257
893 364 m 256
 893 391 890 419 885 448 c 257
 798 432 l 257
 803 409 805 387 805 364 c 256
 805 341 803 318 798 296 c 257
 885 281 l 257
 890 310 893 338 893 364 c 256
612 731 m 257
 585 738 559 742 532 742 c 256
 507 742 480 738 452 731 c 257
 467 641 l 257
 488 646 510 648 533 648 c 256
 555 648 577 646 598 641 c 257
 612 731 l 257
845 559 m 257
 817 606 779 646 731 677 c 257
 680 602 l 257
 718 577 749 545 773 506 c 257
 845 559 l 257
EndSplineSet
PickledDataWithLists: "(dp1
S'com.adobe.type.autohint'
p2
(S'data'
S'<data>\\n  <hintSetList>\\n    <hintset pointTag=\"hr00\">\\n      <hstem pos=\"-12\" width=\"91\"/>\\n      <hstem pos=\"648\" width=\"94\"/>\\n      <vstem pos=\"171\" width=\"89\"/>\\n      <vstem pos=\"805\" width=\"88\"/>\\n    </hintset>\\n  </hintSetList>\\n  </data>'
Ntp3
s."
EndChar

StartChar: Nukta
Encoding: 110 2364 110
GlifName: Nukta_
Width: 0
VWidth: 0
Flags: W
LayerCount: 2
Back
Fore
SplineSet
401 1010 m 256
NamedP: "hr00"
 401 977 380 961 348 961 c 256
 312 961 292 979 292 1010 c 256
 292 1038 318 1057 349 1057 c 256
 380 1057 401 1038 401 1010 c 256
NamedP: "hr00"
761 936 m 256
 761 952 749 963 741 963 c 258
 416 963 l 257
 428 982 434 1002 434 1023 c 256
 434 1071 395 1110 350 1110 c 256
 297 1110 260 1064 260 1020 c 256
 260 959 295 909 351 909 c 258
 738 909 l 258
 753 909 761 918 761 936 c 256
EndSplineSet
PickledDataWithLists: "(dp1
S'com.adobe.type.autohint'
p2
(S'data'
S'<data>\\n  <hintSetList>\\n    <hintset pointTag=\"hr00\">\\n      <hstem pos=\"909\" width=\"54\"/>\\n      <hstem pos=\"1057\" width=\"53\"/>\\n      <vstem pos=\"260\" width=\"32\"/>\\n      <vstem pos=\"401\" width=\"33\"/>\\n    </hintset>\\n  </hintSetList>\\n  </data>'
Ntp3
s."
EndChar

StartChar: uni0950
Encoding: 111 2384 111
GlifName: uni0950
Width: 756
VWidth: 0
Flags: W
LayerCount: 2
Back
Fore
SplineSet
349 663 m 257
NamedP: "hr00"
 397 612 l 257
 446 659 l 257
 397 709 l 257
 349 663 l 257
NamedP: "hr00"
262 618 m 257
 307 549 360 515 423 515 c 256
 465 515 507 537 548 582 c 257
 484 635 l 257
 457 598 424 580 387 580 c 256
 349 580 315 598 286 635 c 257
 262 618 l 257
507 386 m 257
 524 420 551 437 588 437 c 256
 643 437 681 384 681 305 c 256
 681 222 638 163 581 163 c 256
 548 163 531 190 531 245 c 258
 531 273 l 257
 531 327 l 258
 531 359 523 379 507 386 c 257
36 331 m 257
 44 236 74 156 126 93 c 256
 178 30 239 -2 308 -2 c 256
 395 -2 452 53 452 133 c 256
 452 182 432 233 393 286 c 257
 421 305 444 314 463 314 c 256
 484 314 495 294 495 253 c 258
 495 219 l 258
 495 128 519 94 578 94 c 256
 663 94 717 178 717 310 c 256
 717 441 677 506 596 506 c 256
 535 506 497 469 483 395 c 257
 477 396 472 397 469 397 c 256
 432 397 394 377 353 338 c 257
 341 350 l 257
 348 365 352 381 352 400 c 256
 352 487 293 547 212 547 c 256
 180 547 149 539 119 524 c 257
 152 448 l 257
 187 467 220 476 252 476 c 256
 296 476 316 459 316 424 c 256
 316 378 280 344 209 323 c 257
 242 246 l 257
 275 261 302 283 324 314 c 257
 367 271 389 222 389 167 c 256
 389 108 344 62 287 62 c 256
 234 62 187 87 145 138 c 256
 104 189 77 255 64 338 c 257
 36 331 l 257
EndSplineSet
PickledDataWithLists: "(dp1
S'com.adobe.type.autohint'
p2
(S'data'
S'<data>\\n  <hintSetList>\\n    <hintset pointTag=\"hr00\">\\n      <hstem pos=\"-2\" width=\"64\"/>\\n      <hstem pos=\"94\" width=\"69\"/>\\n      <hstem pos=\"314\" width=\"83\"/>\\n      <hstem pos=\"437\" width=\"69\"/>\\n      <hstem pos=\"476\" width=\"71\"/>\\n      <hstem pos=\"515\" width=\"65\"/>\\n      <vstem pos=\"316\" width=\"36\"/>\\n      <vstem pos=\"389\" width=\"63\"/>\\n      <vstem pos=\"495\" width=\"36\"/>\\n      <vstem pos=\"681\" width=\"36\"/>\\n    </hintset>\\n  </hintSetList>\\n  </data>'
Ntp3
s."
EndChar

StartChar: Udatta
Encoding: 112 2385 112
GlifName: Udatta_
Width: 0
VWidth: 0
Flags: W
LayerCount: 2
Back
Fore
SplineSet
282 929 m 257
NamedP: "hr00"
 367 929 l 257
 367 1295 l 257
 282 1295 l 257
 282 930 l 257
 282 929 l 257
NamedP: "hr00"
EndSplineSet
PickledDataWithLists: "(dp1
S'com.adobe.type.autohint'
p2
(S'data'
S'<data>\\n  <hintSetList>\\n    <hintset pointTag=\"hr00\">\\n      <hstem pos=\"929\" width=\"366\"/>\\n      <vstem pos=\"282\" width=\"85\"/>\\n    </hintset>\\n  </hintSetList>\\n  </data>'
Ntp3
s."
EndChar

StartChar: Anudatta
Encoding: 113 2386 113
GlifName: Anudatta_
Width: 0
VWidth: 0
Flags: W
LayerCount: 2
Back
Fore
SplineSet
121 -425 m 257
NamedP: "hr00"
 121 -517 l 257
 525 -517 l 257
 525 -424 l 257
 121 -424 l 257
 121 -425 l 257
NamedP: "hr00"
EndSplineSet
PickledDataWithLists: "(dp1
S'com.adobe.type.autohint'
p2
(S'data'
S'<data>\\n  <hintSetList>\\n    <hintset pointTag=\"hr00\">\\n      <hstem pos=\"-517\" width=\"93\"/>\\n      <vstem pos=\"121\" width=\"404\"/>\\n    </hintset>\\n  </hintSetList>\\n  </data>'
Ntp3
s."
EndChar

StartChar: KaHalanth
Encoding: 114 2387 114
GlifName: KaHalanth_
Width: 564
VWidth: 0
Flags: W
LayerCount: 2
Back
Fore
SplineSet
169 372 m 258
NamedP: "hr00"
 175 372 181 373 187 374 c 257
 200 372 212 367 224 359 c 256
 241 349 255 334 267 315 c 257
 354 359 l 257
 342 380 324 397 300 409 c 256
 283 417 265 422 247 424 c 257
 256 443 261 466 261 495 c 257
 255 480 245 468 232 459 c 256
 220 452 205 448 187 448 c 256
 173 448 161 452 150 461 c 256
 139 469 133 479 133 490 c 256
 133 499 140 509 153 522 c 256
 166 535 185 548 209 563 c 257
 184 567 165 575 150 588 c 256
 135 600 127 614 127 630 c 256
 127 637 131 644 140 650 c 256
 148 656 158 659 169 659 c 256
 192 659 217 653 242 640 c 256
 301 611 370 597 449 597 c 256
 472 597 492 603 510 616 c 257
 612 733 l 257
 590 713 568 701 545 694 c 256
 523 688 499 684 472 684 c 256
 421 684 363 692 297 709 c 256
 263 718 233 722 206 722 c 256
 173 722 142 709 115 682 c 256
 86 654 71 625 71 593 c 256
 71 582 76 570 86 559 c 256
 95 548 106 539 120 532 c 257
 101 516 87 501 76 488 c 256
 65 473 59 462 59 453 c 256
 59 430 70 411 91 396 c 256
 97 391 103 388 110 385 c 257
 85 362 73 335 73 304 c 256
 73 289 80 273 94 257 c 256
 106 242 123 230 146 218 c 258
 261 157 l 258
 282 146 298 136 310 125 c 256
 322 115 328 106 328 98 c 256
 328 88 324 79 315 72 c 256
 305 65 293 62 280 62 c 256
 248 62 215 69 182 82 c 256
 148 95 116 115 85 141 c 257
 30 73 l 257
 53 49 81 31 114 18 c 256
 146 5 181 -1 219 -1 c 256
 270 -1 313 12 346 37 c 256
 379 63 396 95 396 134 c 256
 396 149 388 165 371 182 c 256
 354 199 331 212 305 226 c 258
 183 292 l 258
 168 300 156 310 147 320 c 256
 139 329 135 338 135 346 c 256
 135 355 139 362 147 367 c 257
 158 372 l 257
 169 372 l 258
NamedP: "hr00"
EndSplineSet
PickledDataWithLists: "(dp1
S'com.adobe.type.autohint'
p2
(S'data'
S'<data>\\n  <hintSetList>\\n    <hintset pointTag=\"hr00\">\\n      <hstem pos=\"-1\" width=\"63\"/>\\n      <hstem pos=\"372\" width=\"76\"/>\\n      <hstem pos=\"597\" width=\"87\"/>\\n      <hstem pos=\"659\" width=\"63\"/>\\n      <vstem pos=\"30\" width=\"582\"/>\\n      <vstem pos=\"71\" width=\"56\"/>\\n      <vstem pos=\"73\" width=\"62\"/>\\n      <vstem pos=\"328\" width=\"68\"/>\\n    </hintset>\\n  </hintSetList>\\n  </data>'
Ntp3
s."
EndChar

StartChar: DEVANAGARI_DANDA
Encoding: 115 2404 115
GlifName: DEVANAGARI__DANDA_
Width: 285
VWidth: 0
Flags: W
LayerCount: 2
Back
Fore
SplineSet
139 -74 m 257
NamedP: "hr00"
 223 -14 l 257
 223 487 l 257
 139 427 l 257
 139 -72 l 257
 139 -74 l 257
NamedP: "hr00"
EndSplineSet
PickledDataWithLists: "(dp1
S'com.adobe.type.autohint'
p2
(S'data'
S'<data>\\n  <hintSetList>\\n    <hintset pointTag=\"hr00\">\\n      <hstem pos=\"-74\" width=\"561\"/>\\n      <vstem pos=\"139\" width=\"84\"/>\\n    </hintset>\\n  </hintSetList>\\n  </data>'
Ntp3
s."
EndChar

StartChar: DEVANAGARI_DOUBLE_DANDA
Encoding: 116 2405 116
GlifName: DEVANAGARI__DOUBLE__DANDA_
Width: 500
VWidth: 0
Flags: W
LayerCount: 2
Back
Fore
SplineSet
354 -74 m 257
NamedP: "hr00"
 437 -14 l 257
 437 487 l 257
 354 427 l 257
 354 -72 l 257
 354 -74 l 257
NamedP: "hr00"
139 -74 m 257
 223 -14 l 257
 223 487 l 257
 139 427 l 257
 139 -72 l 257
 139 -74 l 257
EndSplineSet
PickledDataWithLists: "(dp1
S'com.adobe.type.autohint'
p2
(S'data'
S'<data>\\n  <hintSetList>\\n    <hintset pointTag=\"hr00\">\\n      <hstem pos=\"-74\" width=\"561\"/>\\n      <vstem pos=\"139\" width=\"84\"/>\\n      <vstem pos=\"354\" width=\"83\"/>\\n    </hintset>\\n  </hintSetList>\\n  </data>'
Ntp3
s."
EndChar

StartChar: Arasunna
Encoding: 117 3073 117
GlifName: Arasunna_
Width: 329
VWidth: 0
Flags: W
LayerCount: 2
Back
Fore
SplineSet
200 -3 m 257
NamedP: "hr00"
 266 68 l 257
 255 64 243 62 231 62 c 256
 200 62 171 77 145 107 c 256
 118 138 105 171 105 206 c 256
 105 233 109 258 117 281 c 256
 126 304 138 323 153 339 c 256
 158 345 164 350 171 353 c 256
 180 356 190 358 201 358 c 256
 210 358 219 355 228 349 c 256
 236 344 243 337 250 326 c 257
 306 406 l 257
 301 413 294 418 286 421 c 256
 279 424 271 426 262 426 c 258
 214 426 l 257
 157 393 112 354 79 309 c 256
 46 263 30 217 30 170 c 256
 30 129 47 90 84 53 c 256
 121 16 159 -1 200 -1 c 257
 200 -3 l 257
NamedP: "hr00"
EndSplineSet
PickledDataWithLists: "(dp1
S'com.adobe.type.autohint'
p2
(S'data'
S'<data>\\n  <hintSetList>\\n    <hintset pointTag=\"hr00\">\\n      <hstem pos=\"20\" width=\"-21\"/>\\n      <hstem pos=\"-1\" width=\"63\"/>\\n      <hstem pos=\"358\" width=\"68\"/>\\n      <vstem pos=\"30\" width=\"75\"/>\\n    </hintset>\\n  </hintSetList>\\n  </data>'
Ntp3
s."
EndChar

StartChar: Anusvara
Encoding: 118 3074 118
GlifName: Anusvara_
Width: 499
VWidth: 0
Flags: W
LayerCount: 2
Back
Fore
SplineSet
249 50 m 256
NamedP: "hr00"
 208 50 172 65 143 96 c 256
 114 126 100 163 100 206 c 256
 100 233 105 258 116 281 c 256
 126 304 140 323 159 339 c 257
 226 339 l 258
 275 339 318 321 358 289 c 256
 398 256 419 222 419 183 c 256
 419 142 404 109 373 86 c 256
 342 62 301 50 249 50 c 256
NamedP: "hr00"
269 -1 m 258
 317 -1 363 24 408 74 c 256
 453 125 476 177 476 231 c 256
 476 280 450 324 397 365 c 256
 345 406 288 426 226 426 c 258
 85 426 l 257
 85 345 l 257
 126 345 l 257
 96 321 72 293 55 260 c 256
 38 227 30 195 30 164 c 256
 30 123 46 85 81 50 c 256
 116 15 154 -1 194 -1 c 258
 269 -1 l 258
EndSplineSet
PickledDataWithLists: "(dp1
S'com.adobe.type.autohint'
p2
(S'data'
S'<data>\\n  <hintSetList>\\n    <hintset pointTag=\"hr00\">\\n      <hstem pos=\"-1\" width=\"51\"/>\\n      <hstem pos=\"339\" width=\"87\"/>\\n      <vstem pos=\"30\" width=\"70\"/>\\n      <vstem pos=\"419\" width=\"57\"/>\\n    </hintset>\\n  </hintSetList>\\n  </data>'
Ntp3
s."
EndChar

StartChar: Visarga
Encoding: 119 3075 119
GlifName: Visarga_
Width: 261
VWidth: 0
Flags: W
LayerCount: 2
Back
Fore
SplineSet
139 305 m 256
NamedP: "hr00"
 124 305 112 310 103 319 c 256
 92 328 87 340 87 353 c 256
 87 361 90 368 96 373 c 257
 101 379 108 382 116 382 c 256
 131 382 144 376 154 365 c 257
 165 355 170 343 170 328 c 256
 170 321 167 316 161 312 c 256
 155 307 148 305 139 305 c 256
NamedP: "hr00"
96 248 m 256
 129 248 162 259 193 285 c 256
 223 310 238 337 238 364 c 256
 238 381 231 396 217 409 c 257
 202 420 185 426 165 426 c 256
 132 426 101 415 73 392 c 256
 44 368 30 343 30 316 c 256
 30 298 37 282 50 268 c 256
 63 255 79 248 96 248 c 256
139 50 m 256
 126 50 115 56 105 67 c 257
 93 78 87 91 87 104 c 256
 87 112 90 119 95 124 c 257
 99 130 104 133 110 133 c 256
 123 133 134 127 146 115 c 256
 158 103 164 92 164 79 c 256
 164 70 161 64 156 59 c 257
 152 53 146 50 139 50 c 256
96 -1 m 256
 130 -1 161 10 190 35 c 256
 218 59 232 87 232 115 c 256
 232 134 225 150 212 164 c 256
 199 177 183 184 165 184 c 256
 132 184 101 171 73 146 c 256
 44 119 30 91 30 61 c 256
 30 44 37 30 50 17 c 256
 63 5 79 -1 96 -1 c 256
EndSplineSet
PickledDataWithLists: "(dp1
S'com.adobe.type.autohint'
p2
(S'data'
S'<data>\\n  <hintSetList>\\n    <hintset pointTag=\"hr00\">\\n      <hstem pos=\"20\" width=\"-21\"/>\\n      <hstem pos=\"-1\" width=\"51\"/>\\n      <hstem pos=\"133\" width=\"51\"/>\\n      <hstem pos=\"248\" width=\"57\"/>\\n      <hstem pos=\"382\" width=\"44\"/>\\n      <vstem pos=\"30\" width=\"57\"/>\\n      <vstem pos=\"164\" width=\"68\"/>\\n      <vstem pos=\"170\" width=\"68\"/>\\n    </hintset>\\n  </hintSetList>\\n  </data>'
Ntp3
s."
EndChar

StartChar: uni0C05
Encoding: 120 3077 120
GlifName: uni0C05_
Width: 590
VWidth: 0
Flags: W
LayerCount: 2
Back
Fore
SplineSet
170 292 m 256
NamedP: "hr00"
 161 292 152 299 143 314 c 256
 134 327 130 342 130 359 c 256
 130 363 132 367 137 370 c 256
 140 373 145 375 152 375 c 256
 163 375 171 368 180 354 c 256
 188 341 194 327 194 310 c 256
 194 305 191 301 186 297 c 256
 183 294 177 292 170 292 c 256
NamedP: "hr00"
285 -1 m 256
 352 -1 415 29 476 89 c 256
 537 150 567 214 567 279 c 256
 567 315 554 349 527 380 c 256
 500 411 470 426 439 426 c 256
 407 426 377 415 350 389 c 256
 322 363 310 334 310 304 c 256
 310 288 315 273 323 258 c 256
 332 242 342 229 356 220 c 257
 213 220 l 257
 182 150 l 257
 371 150 l 257
 446 244 l 257
 427 244 407 255 387 276 c 256
 366 297 355 317 355 334 c 256
 355 342 358 349 363 354 c 256
 368 360 375 363 384 363 c 256
 414 363 441 349 466 322 c 256
 491 294 504 264 504 231 c 256
 504 187 484 148 445 114 c 256
 406 79 362 62 311 62 c 256
 261 62 213 84 168 124 c 256
 123 164 100 205 100 249 c 256
 100 250 100 251 101 254 c 258
 104 260 l 257
 111 255 119 250 127 247 c 256
 136 244 144 242 152 242 c 256
 182 242 210 254 237 277 c 256
 262 300 275 325 275 353 c 256
 275 373 268 390 255 405 c 256
 242 419 226 426 207 426 c 256
 159 426 116 409 81 372 c 256
 46 336 30 293 30 243 c 256
 30 183 57 126 110 75 c 256
 164 23 222 -1 285 -1 c 256
EndSplineSet
PickledDataWithLists: "(dp1
S'com.adobe.type.autohint'
p2
(S'data'
S'<data>\\n  <hintSetList>\\n    <hintset pointTag=\"hr00\">\\n      <hstem pos=\"-1\" width=\"63\"/>\\n      <hstem pos=\"150\" width=\"70\"/>\\n      <hstem pos=\"242\" width=\"50\"/>\\n      <hstem pos=\"363\" width=\"63\"/>\\n      <hstem pos=\"375\" width=\"51\"/>\\n      <vstem pos=\"30\" width=\"70\"/>\\n      <vstem pos=\"194\" width=\"81\"/>\\n      <vstem pos=\"310\" width=\"45\"/>\\n      <vstem pos=\"504\" width=\"63\"/>\\n    </hintset>\\n  </hintSetList>\\n  </data>'
Ntp3
s."
EndChar

StartChar: AA
Encoding: 121 3078 121
GlifName: AA_
Width: 565
VWidth: 0
Flags: W
LayerCount: 2
Back
Fore
SplineSet
170 292 m 256
NamedP: "hr00"
 161 292 153 298 146 309 c 256
 139 322 136 336 136 353 c 256
 136 358 138 363 143 368 c 256
 148 373 153 375 159 375 c 256
 167 375 175 369 183 357 c 256
 190 345 194 331 194 316 c 256
 194 309 191 304 186 300 c 257
 183 295 177 292 170 292 c 256
NamedP: "hr00"
425 245 m 257
 402 258 384 272 370 287 c 256
 355 302 348 315 348 328 c 256
 348 338 352 346 361 353 c 256
 368 360 378 363 390 363 c 256
 408 363 426 355 443 339 c 256
 460 324 468 308 468 291 c 256
 468 280 464 270 455 261 c 257
 448 252 438 246 425 244 c 257
 425 245 l 257
291 -1 m 256
 344 -1 394 15 440 47 c 256
 484 78 506 113 506 151 c 256
 506 166 503 179 496 191 c 256
 489 204 481 213 471 219 c 257
 494 238 511 258 523 279 c 256
 536 300 542 321 542 340 c 256
 542 363 534 384 517 401 c 256
 500 418 479 426 456 426 c 258
 420 426 l 258
 393 426 365 412 338 384 c 256
 310 355 298 326 298 298 c 256
 298 285 303 270 314 255 c 256
 325 241 338 229 355 220 c 257
 219 220 l 257
 182 157 l 257
 384 157 l 258
 394 157 406 161 420 169 c 257
 423 166 426 160 428 153 c 256
 430 144 431 134 431 121 c 256
 431 104 424 91 411 80 c 256
 398 68 383 62 365 62 c 258
 316 62 l 258
 259 62 211 82 171 121 c 256
 131 160 111 205 111 258 c 257
 113 254 118 250 126 247 c 256
 133 244 142 242 152 242 c 256
 179 242 207 253 235 278 c 256
 263 302 275 328 275 353 c 256
 275 373 268 390 253 405 c 256
 238 419 221 426 201 426 c 256
 160 426 120 406 84 364 c 256
 47 322 30 274 30 225 c 256
 30 169 58 117 113 70 c 256
 168 23 227 -1 291 -1 c 256
EndSplineSet
PickledDataWithLists: "(dp1
S'com.adobe.type.autohint'
p2
(S'data'
S'<data>\\n  <hintSetList>\\n    <hintset pointTag=\"hr00\">\\n      <hstem pos=\"-1\" width=\"63\"/>\\n      <hstem pos=\"157\" width=\"63\"/>\\n      <hstem pos=\"242\" width=\"50\"/>\\n      <hstem pos=\"363\" width=\"63\"/>\\n      <hstem pos=\"375\" width=\"51\"/>\\n      <vstem pos=\"30\" width=\"81\"/>\\n      <vstem pos=\"194\" width=\"81\"/>\\n      <vstem pos=\"298\" width=\"50\"/>\\n      <vstem pos=\"431\" width=\"75\"/>\\n      <vstem pos=\"468\" width=\"74\"/>\\n    </hintset>\\n  </hintSetList>\\n  </data>'
Ntp3
s."
EndChar

StartChar: uni0C07
Encoding: 122 3079 122
GlifName: uni0C07_
Width: 668
VWidth: 0
Flags: W
LayerCount: 2
Back
Fore
SplineSet
345 62 m 256
NamedP: "hr00"
 318 62 294 71 275 87 c 256
 255 104 245 123 245 146 c 256
 245 161 250 174 261 183 c 257
 270 194 282 199 297 199 c 256
 306 199 315 195 326 188 c 256
 338 181 350 169 364 157 c 258
 430 98 l 257
 419 87 406 78 391 72 c 256
 376 65 361 62 345 62 c 256
NamedP: "hr00"
303 -1 m 256
 332 -1 359 5 386 18 c 256
 414 31 439 49 461 72 c 257
 503 35 l 258
 516 23 531 15 544 8 c 256
 556 2 567 -1 577 -1 c 257
 648 63 l 257
 633 58 624 56 620 56 c 256
 613 56 605 58 596 62 c 256
 587 67 579 73 572 80 c 257
 523 121 l 257
 544 142 560 165 572 189 c 256
 583 212 590 234 590 255 c 256
 590 302 576 343 546 376 c 256
 516 410 479 426 437 426 c 256
 410 426 384 420 361 411 c 256
 337 401 318 388 304 371 c 257
 286 388 266 402 245 412 c 256
 224 421 203 426 182 426 c 256
 145 426 110 413 78 386 c 256
 46 359 30 329 30 298 c 256
 30 286 34 275 41 264 c 257
 50 254 61 247 74 242 c 257
 167 279 l 257
 144 288 125 299 112 312 c 256
 99 325 92 338 92 353 c 256
 92 359 96 364 104 368 c 256
 112 373 122 375 134 375 c 256
 155 375 177 367 201 350 c 256
 227 333 253 308 280 277 c 257
 295 304 313 325 333 340 c 256
 352 355 370 363 389 363 c 256
 420 363 449 348 475 318 c 256
 502 288 515 255 515 219 c 256
 515 208 513 198 509 188 c 256
 505 177 499 168 492 159 c 257
 438 214 l 258
 427 225 412 233 394 240 c 256
 377 246 359 250 340 250 c 256
 298 250 259 235 223 206 c 256
 187 176 169 144 169 109 c 256
 169 79 181 52 208 30 c 256
 234 8 267 -1 303 -1 c 256
EndSplineSet
PickledDataWithLists: "(dp1
S'com.adobe.type.autohint'
p2
(S'data'
S'<data>\\n  <hintSetList>\\n    <hintset pointTag=\"hr00\">\\n      <hstem pos=\"-1\" width=\"63\"/>\\n      <hstem pos=\"199\" width=\"51\"/>\\n      <hstem pos=\"363\" width=\"63\"/>\\n      <hstem pos=\"375\" width=\"51\"/>\\n      <vstem pos=\"30\" width=\"62\"/>\\n      <vstem pos=\"169\" width=\"76\"/>\\n      <vstem pos=\"515\" width=\"75\"/>\\n    </hintset>\\n  </hintSetList>\\n  </data>'
Ntp3
s."
EndChar

StartChar: II
Encoding: 123 3080 123
GlifName: II_
Width: 948
VWidth: 0
Flags: W
LayerCount: 2
Back
Fore
SplineSet
189 243 m 257
NamedP: "hr00"
 194 270 201 292 212 309 c 256
 223 326 236 340 251 352 c 257
 317 352 l 258
 352 352 384 343 412 325 c 256
 440 308 461 285 474 256 c 257
 189 256 l 257
 189 243 l 257
NamedP: "hr00"
346 50 m 256
 307 50 272 63 242 89 c 256
 212 114 195 145 191 182 c 257
 492 182 l 257
 489 147 472 118 442 91 c 256
 413 65 381 50 346 50 c 256
809 62 m 256
 784 62 760 70 739 85 c 256
 718 100 707 116 707 134 c 256
 707 145 709 154 713 163 c 256
 717 171 723 177 730 182 c 257
 763 182 794 174 821 157 c 256
 848 140 862 123 862 104 c 256
 862 93 857 83 847 75 c 256
 837 66 824 62 809 62 c 256
310 -1 m 256
 367 -1 418 15 463 50 c 256
 507 84 536 129 549 182 c 257
 668 182 l 257
 657 169 648 155 641 141 c 256
 635 128 632 115 632 104 c 256
 632 77 647 54 677 32 c 256
 706 11 738 -1 772 -1 c 256
 806 -1 840 15 874 48 c 256
 909 81 926 114 926 146 c 256
 926 168 915 188 893 207 c 256
 872 226 845 238 813 244 c 257
 871 278 l 257
 888 286 901 295 911 305 c 256
 921 316 926 325 926 334 c 256
 926 357 911 377 881 394 c 256
 851 411 817 420 778 420 c 256
 739 420 704 408 671 384 c 256
 637 359 620 333 620 304 c 256
 620 299 622 290 627 278 c 257
 708 304 l 257
 701 309 696 316 693 323 c 256
 690 330 688 338 688 346 c 256
 688 355 694 364 706 372 c 256
 717 379 731 382 748 382 c 256
 769 382 789 378 807 367 c 256
 824 357 832 345 832 334 c 256
 832 327 829 319 822 311 c 257
 817 302 808 293 797 286 c 258
 748 256 l 257
 549 256 l 257
 549 298 524 337 473 372 c 256
 421 408 365 426 305 426 c 258
 249 426 l 257
 531 594 l 257
 531 701 l 257
 165 462 l 257
 165 352 l 257
 212 352 l 257
 187 335 164 303 141 256 c 257
 92 256 l 257
 30 182 l 257
 122 182 l 257
 118 168 116 158 116 151 c 256
 116 114 137 79 178 47 c 256
 218 15 262 -1 310 -1 c 256
EndSplineSet
PickledDataWithLists: "(dp1
S'com.adobe.type.autohint'
p2
(S'data'
S'<data>\\n  <hintSetList>\\n    <hintset pointTag=\"hr00\">\\n      <hstem pos=\"-1\" width=\"51\"/>\\n      <hstem pos=\"-1\" width=\"63\"/>\\n      <hstem pos=\"182\" width=\"74\"/>\\n      <hstem pos=\"352\" width=\"74\"/>\\n      <hstem pos=\"382\" width=\"38\"/>\\n      <vstem pos=\"30\" width=\"896\"/>\\n      <vstem pos=\"116\" width=\"75\"/>\\n      <vstem pos=\"620\" width=\"68\"/>\\n      <vstem pos=\"632\" width=\"75\"/>\\n      <vstem pos=\"832\" width=\"94\"/>\\n      <vstem pos=\"862\" width=\"64\"/>\\n    </hintset>\\n  </hintSetList>\\n  </data>'
Ntp3
s."
EndChar

StartChar: uni0C09
Encoding: 124 3081 124
GlifName: uni0C09_
Width: 595
VWidth: 0
Flags: W
LayerCount: 2
Back
Fore
SplineSet
103 218 m 257
NamedP: "hr00"
 492 218 l 257
 574 292 l 257
 171 292 l 257
 103 219 l 257
 103 218 l 257
NamedP: "hr00"
158 -1 m 256
 179 -1 199 4 219 15 c 256
 240 26 258 41 274 60 c 257
 292 41 313 26 337 15 c 256
 360 4 383 -1 407 -1 c 256
 446 -1 483 15 518 48 c 256
 554 82 572 116 572 151 c 256
 572 162 570 173 566 183 c 256
 562 192 556 200 547 207 c 257
 473 146 l 257
 484 142 493 136 500 129 c 256
 507 122 510 113 510 104 c 256
 510 95 503 86 489 79 c 256
 473 71 454 67 432 67 c 256
 408 67 386 74 365 87 c 256
 344 100 327 119 316 142 c 257
 297 120 278 103 257 91 c 256
 236 80 216 74 195 74 c 256
 168 74 144 86 121 111 c 256
 98 136 87 164 87 194 c 256
 87 228 96 259 113 287 c 256
 131 316 155 337 184 352 c 257
 347 352 l 258
 366 352 381 349 394 343 c 256
 407 336 413 328 413 319 c 257
 482 389 l 257
 475 400 465 409 450 416 c 256
 436 423 420 426 401 426 c 258
 355 426 l 257
 355 640 l 257
 268 590 l 257
 268 426 l 257
 209 426 155 396 105 335 c 256
 55 274 30 207 30 134 c 256
 30 101 43 70 70 42 c 256
 97 13 127 -1 158 -1 c 256
EndSplineSet
PickledDataWithLists: "(dp1
S'com.adobe.type.autohint'
p2
(S'data'
S'<data>\\n  <hintSetList>\\n    <hintset pointTag=\"hr00\">\\n      <hstem pos=\"-1\" width=\"68\"/>\\n      <hstem pos=\"-1\" width=\"75\"/>\\n      <hstem pos=\"218\" width=\"74\"/>\\n      <hstem pos=\"352\" width=\"74\"/>\\n      <vstem pos=\"30\" width=\"57\"/>\\n      <vstem pos=\"268\" width=\"87\"/>\\n      <vstem pos=\"510\" width=\"62\"/>\\n    </hintset>\\n  </hintSetList>\\n  </data>'
Ntp3
s."
EndChar

StartChar: UU
Encoding: 125 3082 125
GlifName: UU_
Width: 941
VWidth: 0
Flags: W
LayerCount: 2
Back
Fore
SplineSet
158 -1 m 256
NamedP: "hr00"
 179 -1 199 4 219 15 c 256
 240 26 258 41 274 60 c 257
 292 41 313 26 337 15 c 256
 360 4 383 -1 407 -1 c 256
 446 -1 483 15 518 48 c 256
 554 82 572 116 572 151 c 256
 572 162 570 173 566 183 c 256
 562 192 556 200 547 207 c 257
 473 146 l 257
 484 142 493 136 500 129 c 256
 507 122 510 113 510 104 c 256
 510 95 503 86 489 79 c 256
 473 71 454 67 432 67 c 256
 408 67 386 74 365 87 c 256
 344 100 327 119 316 142 c 257
 297 120 278 103 257 91 c 256
 236 80 216 74 195 74 c 256
 168 74 144 86 121 111 c 256
 98 136 87 164 87 194 c 256
 87 228 96 259 113 287 c 256
 131 316 155 337 184 352 c 257
 347 352 l 258
 366 352 381 349 394 343 c 256
 407 336 413 328 413 319 c 257
 482 389 l 257
 475 400 465 409 450 416 c 256
 436 423 420 426 402 426 c 257
 402 640 l 257
 315 590 l 257
 315 426 l 257
 270 426 l 257
 270 627 l 257
 188 577 l 257
 188 396 l 257
 139 368 101 331 73 284 c 256
 44 237 30 187 30 134 c 256
 30 101 43 70 70 42 c 256
 97 13 127 -1 158 -1 c 256
NamedP: "hr00"
801 110 m 256
 776 110 753 118 732 134 c 256
 711 149 700 165 700 183 c 256
 700 194 702 203 706 211 c 256
 711 220 717 226 724 230 c 257
 757 230 787 222 814 205 c 256
 842 188 856 170 856 151 c 256
 856 140 851 130 840 122 c 256
 830 114 817 110 801 110 c 256
765 48 m 256
 799 48 833 64 867 97 c 256
 901 130 918 162 918 194 c 256
 918 217 907 237 886 256 c 256
 863 275 836 287 805 292 c 257
 864 327 l 257
 881 335 894 344 903 354 c 256
 913 364 918 374 918 383 c 256
 918 406 904 425 875 442 c 256
 844 460 810 469 772 469 c 256
 733 469 697 457 663 432 c 256
 630 408 613 382 613 353 c 256
 613 348 615 339 619 327 c 257
 701 353 l 257
 694 358 690 364 687 371 c 256
 684 378 682 386 682 395 c 256
 682 404 688 413 700 420 c 256
 711 427 724 430 741 430 c 256
 762 430 781 425 800 415 c 257
 817 404 825 394 825 383 c 256
 825 375 822 367 815 360 c 257
 809 351 799 343 789 335 c 258
 741 299 l 257
 165 299 l 257
 97 230 l 257
 660 230 l 257
 649 217 641 204 634 190 c 256
 628 176 625 163 625 151 c 256
 625 126 639 102 669 80 c 256
 698 58 731 48 765 48 c 256
EndSplineSet
PickledDataWithLists: "(dp1
S'com.adobe.type.autohint'
p2
(S'data'
S'<data>\\n  <hintSetList>\\n    <hintset pointTag=\"hr00\">\\n      <hstem pos=\"-1\" width=\"68\"/>\\n      <hstem pos=\"-1\" width=\"75\"/>\\n      <hstem pos=\"48\" width=\"62\"/>\\n      <hstem pos=\"230\" width=\"69\"/>\\n      <hstem pos=\"352\" width=\"74\"/>\\n      <hstem pos=\"430\" width=\"39\"/>\\n      <vstem pos=\"30\" width=\"57\"/>\\n      <vstem pos=\"188\" width=\"82\"/>\\n      <vstem pos=\"315\" width=\"87\"/>\\n      <vstem pos=\"510\" width=\"62\"/>\\n      <vstem pos=\"613\" width=\"69\"/>\\n      <vstem pos=\"625\" width=\"75\"/>\\n      <vstem pos=\"825\" width=\"93\"/>\\n      <vstem pos=\"856\" width=\"62\"/>\\n    </hintset>\\n  </hintSetList>\\n  </data>'
Ntp3
s."
EndChar

StartChar: Ru
Encoding: 126 3083 126
GlifName: Ru_
Width: 1340
VWidth: 0
Flags: W
LayerCount: 2
Back
Fore
SplineSet
145 280 m 256
NamedP: "hr00"
 132 280 121 286 111 299 c 257
 99 312 93 325 93 340 c 256
 93 352 96 362 103 369 c 256
 110 378 119 382 129 382 c 256
 140 382 151 376 161 363 c 256
 171 350 176 336 176 321 c 256
 176 310 173 300 168 292 c 256
 162 284 154 280 145 280 c 256
NamedP: "hr00"
183 5 m 256
 199 5 217 10 236 20 c 256
 256 31 275 46 292 65 c 257
 313 44 332 28 351 17 c 256
 372 5 390 -1 407 -1 c 256
 442 -1 476 9 507 29 c 256
 539 50 564 77 581 112 c 257
 600 77 627 50 660 29 c 256
 693 9 728 -1 764 -1 c 256
 797 -1 830 10 861 33 c 256
 892 56 916 86 934 123 c 257
 954 86 981 56 1014 33 c 256
 1049 10 1085 -1 1122 -1 c 256
 1171 -1 1215 22 1256 68 c 256
 1297 115 1317 165 1317 219 c 256
 1317 276 1299 325 1262 366 c 256
 1225 406 1180 426 1128 426 c 257
 1078 352 l 257
 1131 352 1175 334 1211 300 c 256
 1248 265 1266 225 1266 176 c 256
 1266 145 1256 118 1238 96 c 256
 1219 73 1198 62 1171 62 c 256
 1131 62 1093 77 1055 105 c 256
 1017 134 984 171 958 219 c 257
 958 276 940 325 903 366 c 256
 866 406 821 426 769 426 c 257
 719 352 l 257
 772 352 817 334 853 300 c 256
 890 265 908 225 908 176 c 256
 908 145 897 118 879 96 c 256
 860 73 839 62 812 62 c 256
 774 62 737 75 700 102 c 256
 662 130 630 167 603 213 c 257
 603 265 580 315 531 360 c 256
 483 405 428 426 370 426 c 257
 320 352 l 257
 379 352 432 332 480 294 c 256
 528 256 553 215 553 170 c 256
 553 142 543 118 524 97 c 256
 505 77 483 67 456 67 c 256
 435 67 414 73 392 86 c 256
 371 99 350 118 329 141 c 257
 308 121 287 106 266 96 c 256
 245 85 226 80 207 80 c 256
 182 80 161 87 143 102 c 256
 126 117 117 136 117 158 c 256
 117 172 122 186 132 199 c 256
 142 213 155 225 172 235 c 257
 197 254 217 272 230 290 c 256
 244 309 251 325 251 340 c 256
 251 363 243 384 226 401 c 256
 209 418 188 426 165 426 c 256
 132 426 101 413 73 386 c 256
 44 359 30 329 30 298 c 256
 30 279 38 263 53 250 c 256
 69 237 87 230 107 230 c 257
 89 216 76 199 65 179 c 256
 55 160 49 140 49 121 c 256
 49 96 64 70 94 44 c 256
 125 17 154 5 183 5 c 256
EndSplineSet
PickledDataWithLists: "(dp1
S'com.adobe.type.autohint'
p2
(S'data'
S'<data>\\n  <hintSetList>\\n    <hintset pointTag=\"hr00\">\\n      <hstem pos=\"-1\" width=\"63\"/>\\n      <hstem pos=\"-1\" width=\"68\"/>\\n      <hstem pos=\"5\" width=\"75\"/>\\n      <hstem pos=\"230\" width=\"50\"/>\\n      <hstem pos=\"352\" width=\"74\"/>\\n      <hstem pos=\"382\" width=\"44\"/>\\n      <vstem pos=\"30\" width=\"63\"/>\\n      <vstem pos=\"49\" width=\"68\"/>\\n      <vstem pos=\"176\" width=\"75\"/>\\n      <vstem pos=\"553\" width=\"50\"/>\\n      <vstem pos=\"908\" width=\"50\"/>\\n      <vstem pos=\"1266\" width=\"51\"/>\\n    </hintset>\\n  </hintSetList>\\n  </data>'
Ntp3
s."
EndChar

StartChar: Lu
Encoding: 127 3084 127
GlifName: Lu_
Width: 853
VWidth: 0
Flags: W
LayerCount: 2
Back
Fore
SplineSet
430 426 m 256
NamedP: "hr00"
 416 426 399 421 378 409 c 256
 358 398 337 381 316 360 c 257
 295 381 275 398 255 409 c 256
 234 421 216 426 201 426 c 256
 164 426 126 409 88 375 c 256
 49 341 30 307 30 274 c 256
 30 261 32 250 35 240 c 256
 38 230 42 223 49 218 c 257
 112 279 l 257
 104 282 97 288 92 295 c 256
 88 301 86 308 86 316 c 256
 86 327 92 337 103 345 c 256
 115 354 129 358 146 358 c 256
 165 358 185 352 205 339 c 256
 226 326 246 307 267 284 c 257
 287 303 308 318 329 329 c 256
 351 340 373 345 395 345 c 256
 420 345 441 338 459 323 c 256
 476 308 485 289 485 268 c 256
 485 240 468 204 434 161 c 256
 400 117 383 81 383 54 c 256
 383 17 398 -15 429 -42 c 256
 461 -69 499 -82 544 -82 c 256
 622 -82 690 -57 746 -5 c 256
 803 47 830 112 830 185 c 256
 830 227 820 270 801 313 c 256
 782 356 754 395 717 432 c 257
 645 391 l 257
 681 354 709 313 728 269 c 256
 747 225 756 180 756 133 c 256
 756 87 738 49 704 17 c 256
 670 -14 629 -31 580 -31 c 256
 549 -31 521 -20 496 1 c 256
 470 23 457 47 457 73 c 256
 457 102 473 140 505 187 c 256
 537 236 553 275 553 304 c 256
 553 331 541 358 513 386 c 256
 485 414 457 426 430 426 c 256
NamedP: "hr00"
EndSplineSet
PickledDataWithLists: "(dp1
S'com.adobe.type.autohint'
p2
(S'data'
S'<data>\\n  <hintSetList>\\n    <hintset pointTag=\"hr00\">\\n      <hstem pos=\"-82\" width=\"51\"/>\\n      <hstem pos=\"345\" width=\"81\"/>\\n      <hstem pos=\"358\" width=\"68\"/>\\n      <vstem pos=\"30\" width=\"56\"/>\\n      <vstem pos=\"383\" width=\"74\"/>\\n      <vstem pos=\"485\" width=\"68\"/>\\n      <vstem pos=\"756\" width=\"74\"/>\\n    </hintset>\\n  </hintSetList>\\n  </data>'
Ntp3
s."
EndChar

StartChar: uni0C0E
Encoding: 128 3086 128
GlifName: uni0C0E_
Width: 608
VWidth: 0
Flags: W
LayerCount: 2
Back
Fore
SplineSet
170 67 m 256
NamedP: "hr00"
 153 67 135 75 116 92 c 256
 97 108 87 124 87 140 c 256
 87 150 90 158 97 165 c 256
 104 172 112 175 122 175 c 256
 132 175 146 168 163 154 c 256
 180 141 198 122 219 98 c 257
 216 89 210 82 201 76 c 256
 193 70 183 67 170 67 c 256
NamedP: "hr00"
376 -1 m 256
 431 -1 480 26 522 80 c 256
 564 135 585 198 585 268 c 256
 585 356 565 435 528 504 c 256
 490 574 440 623 377 651 c 257
 290 595 l 257
 364 568 423 521 468 454 c 256
 513 388 535 314 535 231 c 256
 535 184 524 145 501 112 c 256
 479 79 452 62 420 62 c 256
 401 62 383 66 366 74 c 256
 350 81 336 92 325 105 c 257
 251 177 l 257
 236 195 220 208 205 217 c 256
 188 227 173 232 159 232 c 256
 127 232 97 220 70 194 c 256
 42 168 30 139 30 109 c 256
 30 85 44 60 73 35 c 256
 102 11 130 -1 159 -1 c 256
 176 -1 193 4 210 15 c 256
 227 26 240 41 250 59 c 257
 269 41 289 26 311 15 c 256
 334 4 355 -1 376 -1 c 256
EndSplineSet
PickledDataWithLists: "(dp1
S'com.adobe.type.autohint'
p2
(S'data'
S'<data>\\n  <hintSetList>\\n    <hintset pointTag=\"hr00\">\\n      <hstem pos=\"-1\" width=\"63\"/>\\n      <hstem pos=\"-1\" width=\"68\"/>\\n      <hstem pos=\"175\" width=\"57\"/>\\n      <vstem pos=\"30\" width=\"57\"/>\\n      <vstem pos=\"535\" width=\"50\"/>\\n    </hintset>\\n  </hintSetList>\\n  </data>'
Ntp3
s."
EndChar

StartChar: EE
Encoding: 129 3087 129
GlifName: EE_
Width: 608
VWidth: 0
Flags: W
LayerCount: 2
Back
Fore
SplineSet
176 472 m 257
NamedP: "hr00"
 251 534 l 257
 242 549 l 257
 241 554 240 559 240 565 c 256
 240 592 255 617 285 645 c 256
 313 672 342 685 371 685 c 256
 390 685 406 681 420 673 c 257
 488 735 l 257
 481 743 473 749 464 754 c 257
 454 758 443 760 432 760 c 256
 375 760 317 731 258 672 c 256
 199 613 170 555 170 498 c 256
 170 493 172 485 176 474 c 256
 176 472 l 257
NamedP: "hr00"
170 67 m 256
 153 67 135 75 116 92 c 256
 97 108 87 124 87 140 c 256
 87 150 90 158 97 165 c 256
 104 172 112 175 122 175 c 256
 132 175 146 168 163 154 c 256
 180 141 198 122 219 98 c 257
 216 89 210 82 201 76 c 256
 193 70 183 67 170 67 c 256
376 -1 m 256
 431 -1 480 26 522 80 c 256
 564 135 585 198 585 268 c 256
 585 356 565 435 528 504 c 256
 490 574 440 623 377 651 c 257
 290 595 l 257
 364 568 423 521 468 454 c 256
 513 388 535 314 535 231 c 256
 535 184 524 145 501 112 c 256
 479 79 452 62 420 62 c 256
 401 62 383 66 366 74 c 256
 350 81 336 92 325 105 c 257
 251 177 l 257
 236 195 220 208 205 217 c 256
 188 227 173 232 159 232 c 256
 127 232 97 220 70 194 c 256
 42 168 30 139 30 109 c 256
 30 85 44 60 73 35 c 256
 102 11 130 -1 159 -1 c 256
 176 -1 193 4 210 15 c 256
 227 26 240 41 250 59 c 257
 269 41 289 26 311 15 c 256
 334 4 355 -1 376 -1 c 256
EndSplineSet
PickledDataWithLists: "(dp1
S'com.adobe.type.autohint'
p2
(S'data'
S'<data>\\n  <hintSetList>\\n    <hintset pointTag=\"hr00\">\\n      <hstem pos=\"-1\" width=\"63\"/>\\n      <hstem pos=\"-1\" width=\"68\"/>\\n      <hstem pos=\"175\" width=\"57\"/>\\n      <hstem pos=\"685\" width=\"75\"/>\\n      <vstem pos=\"30\" width=\"57\"/>\\n      <vstem pos=\"170\" width=\"70\"/>\\n      <vstem pos=\"535\" width=\"50\"/>\\n    </hintset>\\n  </hintSetList>\\n  </data>'
Ntp3
s."
EndChar

StartChar: AI
Encoding: 130 3088 130
GlifName: AI_
Width: 626
VWidth: 0
Flags: W
LayerCount: 2
Back
Fore
SplineSet
181 62 m 256
NamedP: "hr00"
 161 62 142 71 125 87 c 256
 107 104 98 121 98 140 c 256
 98 155 102 168 111 177 c 257
 119 188 129 193 140 193 c 256
 161 193 180 185 198 167 c 256
 216 149 224 130 224 109 c 256
 224 96 220 85 211 76 c 257
 204 67 194 62 181 62 c 256
NamedP: "hr00"
128 -1 m 256
 155 -1 180 4 201 15 c 256
 224 26 240 41 250 59 c 257
 269 41 290 26 315 15 c 256
 339 4 364 -1 390 -1 c 256
 443 -1 493 24 537 75 c 256
 582 127 603 183 603 243 c 256
 603 288 588 330 557 369 c 256
 526 407 492 426 456 426 c 256
 426 426 399 421 374 410 c 256
 349 399 329 385 316 366 c 257
 297 385 275 399 252 410 c 256
 231 420 210 426 189 426 c 256
 151 426 116 415 84 389 c 256
 52 363 36 334 36 304 c 256
 36 290 39 277 46 264 c 256
 53 253 62 246 74 242 c 257
 155 292 l 257
 138 295 124 301 113 312 c 256
 103 321 98 333 98 346 c 256
 98 356 103 365 112 372 c 256
 121 379 133 382 146 382 c 256
 165 382 186 372 211 354 c 256
 236 335 264 310 292 277 c 257
 308 304 326 325 347 340 c 256
 367 355 387 363 407 363 c 256
 439 363 467 346 494 313 c 256
 520 281 534 245 534 206 c 256
 534 166 524 132 505 105 c 256
 486 76 463 62 437 62 c 256
 409 62 382 70 355 85 c 256
 329 100 306 120 287 146 c 257
 287 173 277 196 258 215 c 256
 239 234 216 244 189 244 c 256
 150 244 113 230 80 199 c 256
 46 168 30 133 30 98 c 256
 30 73 40 51 61 30 c 256
 82 9 104 -1 128 -1 c 256
EndSplineSet
PickledDataWithLists: "(dp1
S'com.adobe.type.autohint'
p2
(S'data'
S'<data>\\n  <hintSetList>\\n    <hintset pointTag=\"hr00\">\\n      <hstem pos=\"-1\" width=\"63\"/>\\n      <hstem pos=\"193\" width=\"51\"/>\\n      <hstem pos=\"363\" width=\"63\"/>\\n      <hstem pos=\"382\" width=\"44\"/>\\n      <vstem pos=\"30\" width=\"68\"/>\\n      <vstem pos=\"36\" width=\"62\"/>\\n      <vstem pos=\"224\" width=\"63\"/>\\n      <vstem pos=\"534\" width=\"69\"/>\\n    </hintset>\\n  </hintSetList>\\n  </data>'
Ntp3
s."
EndChar

StartChar: uni0C12
Encoding: 131 3090 131
GlifName: uni0C12_
Width: 595
VWidth: 0
Flags: W
LayerCount: 2
Back
Fore
SplineSet
145 280 m 256
NamedP: "hr00"
 132 280 121 286 111 299 c 257
 99 312 93 325 93 340 c 256
 93 352 96 362 103 369 c 256
 110 378 119 382 129 382 c 256
 140 382 151 376 161 363 c 256
 171 350 176 336 176 321 c 256
 176 310 173 300 168 292 c 256
 162 284 154 280 145 280 c 256
NamedP: "hr00"
170 -1 m 256
 187 -1 206 5 227 17 c 256
 246 28 266 44 286 65 c 257
 306 44 326 28 345 17 c 256
 366 5 384 -1 401 -1 c 256
 438 -1 476 16 515 50 c 256
 553 84 572 118 572 151 c 256
 572 164 570 175 567 185 c 256
 564 195 560 202 554 207 c 257
 490 145 l 257
 499 143 505 138 510 130 c 256
 514 124 516 117 516 109 c 256
 516 98 510 88 499 80 c 256
 487 71 473 67 456 67 c 256
 437 67 417 73 397 86 c 256
 376 99 356 118 335 141 c 257
 314 121 293 107 271 96 c 256
 250 86 228 80 207 80 c 256
 182 80 161 87 143 102 c 256
 126 117 117 136 117 158 c 256
 117 172 122 186 132 199 c 256
 142 213 155 225 172 235 c 257
 197 254 217 272 230 290 c 256
 244 309 251 325 251 340 c 256
 251 363 243 384 226 401 c 256
 209 418 188 426 165 426 c 256
 132 426 101 413 73 386 c 256
 44 359 30 329 30 298 c 256
 30 279 38 263 53 250 c 256
 69 237 87 230 107 230 c 257
 89 216 76 199 65 179 c 256
 55 160 49 140 49 121 c 256
 49 94 61 67 89 39 c 256
 117 11 144 -1 170 -1 c 256
EndSplineSet
PickledDataWithLists: "(dp1
S'com.adobe.type.autohint'
p2
(S'data'
S'<data>\\n  <hintSetList>\\n    <hintset pointTag=\"hr00\">\\n      <hstem pos=\"20\" width=\"-21\"/>\\n      <hstem pos=\"-1\" width=\"68\"/>\\n      <hstem pos=\"-1\" width=\"81\"/>\\n      <hstem pos=\"230\" width=\"50\"/>\\n      <hstem pos=\"382\" width=\"44\"/>\\n      <vstem pos=\"30\" width=\"63\"/>\\n      <vstem pos=\"49\" width=\"68\"/>\\n      <vstem pos=\"176\" width=\"75\"/>\\n      <vstem pos=\"516\" width=\"56\"/>\\n    </hintset>\\n  </hintSetList>\\n  </data>'
Ntp3
s."
EndChar

StartChar: OO
Encoding: 132 3091 132
GlifName: OO_
Width: 595
VWidth: 0
Flags: W
LayerCount: 2
Back
Fore
SplineSet
145 280 m 256
NamedP: "hr00"
 132 280 121 286 111 299 c 257
 99 312 93 325 93 340 c 256
 93 352 96 362 103 369 c 256
 110 378 119 382 129 382 c 256
 140 382 151 376 161 363 c 256
 171 350 176 336 176 321 c 256
 176 310 173 300 168 292 c 256
 162 284 154 280 145 280 c 256
NamedP: "hr00"
170 -1 m 256
 187 -1 206 5 227 17 c 256
 246 28 266 44 286 65 c 257
 306 44 326 28 345 17 c 256
 366 5 384 -1 401 -1 c 256
 438 -1 476 16 515 50 c 256
 553 84 572 118 572 151 c 256
 572 164 570 175 567 185 c 256
 564 195 560 202 554 207 c 257
 490 145 l 257
 499 143 505 138 510 130 c 256
 514 124 516 117 516 109 c 256
 516 98 510 88 499 80 c 256
 487 71 473 67 456 67 c 256
 437 67 417 73 397 86 c 256
 376 99 356 118 335 141 c 257
 314 121 293 107 271 96 c 256
 250 86 228 80 207 80 c 256
 182 80 161 87 143 102 c 256
 126 117 117 136 117 158 c 256
 117 172 122 186 132 199 c 256
 142 213 155 225 172 235 c 257
 197 254 217 272 230 290 c 256
 244 309 251 325 251 340 c 256
 251 363 245 384 233 401 c 256
 221 418 207 426 190 426 c 257
 190 614 l 258
 190 618 189 622 187 626 c 257
 184 629 181 631 177 632 c 257
 101 595 l 257
 106 593 110 590 111 586 c 257
 114 582 115 577 115 571 c 258
 115 414 l 257
 88 399 68 381 53 360 c 256
 38 339 30 318 30 298 c 256
 30 279 38 263 53 250 c 256
 69 237 87 230 107 230 c 257
 89 216 76 199 65 179 c 256
 55 160 49 140 49 121 c 256
 49 94 61 67 89 39 c 256
 117 11 144 -1 170 -1 c 256
EndSplineSet
PickledDataWithLists: "(dp1
S'com.adobe.type.autohint'
p2
(S'data'
S'<data>\\n  <hintSetList>\\n    <hintset pointTag=\"hr00\">\\n      <hstem pos=\"20\" width=\"-21\"/>\\n      <hstem pos=\"-1\" width=\"68\"/>\\n      <hstem pos=\"-1\" width=\"81\"/>\\n      <hstem pos=\"230\" width=\"50\"/>\\n      <vstem pos=\"30\" width=\"63\"/>\\n      <vstem pos=\"49\" width=\"68\"/>\\n      <vstem pos=\"115\" width=\"75\"/>\\n      <vstem pos=\"176\" width=\"75\"/>\\n      <vstem pos=\"516\" width=\"56\"/>\\n    </hintset>\\n  </hintSetList>\\n  </data>'
Ntp3
s."
EndChar

StartChar: AU
Encoding: 133 3092 133
GlifName: AU_
Width: 765
VWidth: 0
Flags: W
LayerCount: 2
Back
Fore
SplineSet
639 407 m 256
NamedP: "hr00"
 618 407 599 414 584 427 c 256
 569 440 562 455 562 474 c 256
 562 485 567 495 576 503 c 256
 585 511 597 515 610 515 c 256
 629 515 646 508 660 495 c 256
 674 482 681 467 681 449 c 256
 681 437 677 427 669 420 c 256
 660 411 650 407 639 407 c 256
NamedP: "hr00"
244 280 m 256
 231 280 219 286 208 299 c 256
 197 312 191 325 191 340 c 256
 191 352 195 362 202 369 c 256
 209 378 217 382 227 382 c 256
 238 382 249 376 259 363 c 256
 269 350 274 336 274 321 c 256
 274 310 271 300 265 292 c 256
 259 284 252 280 244 280 c 256
269 -1 m 256
 286 -1 305 5 325 17 c 256
 344 28 364 44 385 65 c 257
 405 44 425 28 444 17 c 256
 465 5 483 -1 500 -1 c 256
 537 -1 575 16 613 50 c 256
 652 84 671 118 671 151 c 256
 671 164 669 175 666 185 c 256
 663 195 659 202 652 207 c 257
 589 145 l 257
 597 143 603 139 607 132 c 256
 612 125 614 117 614 109 c 256
 614 98 608 88 596 80 c 257
 585 71 572 67 555 67 c 256
 536 67 516 73 495 86 c 256
 474 99 454 118 433 141 c 257
 412 121 391 107 369 96 c 256
 348 86 327 80 306 80 c 256
 281 80 259 87 242 102 c 256
 225 117 216 136 216 158 c 256
 216 172 221 186 231 199 c 256
 241 213 254 225 270 235 c 257
 295 254 315 272 328 290 c 256
 342 309 349 325 349 340 c 256
 349 350 345 361 338 374 c 256
 331 385 320 395 307 406 c 257
 320 417 331 430 338 443 c 256
 345 456 349 469 349 480 c 256
 349 484 348 489 346 494 c 256
 344 499 341 504 338 509 c 257
 527 509 l 257
 515 497 505 484 497 470 c 256
 490 456 486 443 486 431 c 256
 486 409 498 387 522 368 c 256
 547 348 574 339 603 339 c 256
 634 339 666 356 697 390 c 256
 728 424 743 458 743 491 c 256
 743 516 735 538 717 557 c 256
 700 575 677 584 652 584 c 258
 80 584 l 257
 30 509 l 257
 185 509 l 258
 210 509 233 503 254 492 c 256
 275 480 286 468 286 455 c 256
 286 447 283 440 276 435 c 256
 269 429 261 426 251 426 c 256
 232 426 215 430 198 439 c 256
 182 447 167 459 153 476 c 257
 110 406 l 257
 117 397 126 390 135 385 c 256
 145 380 154 376 163 375 c 257
 152 366 144 355 139 341 c 257
 132 327 129 313 129 298 c 256
 129 279 136 263 151 250 c 256
 168 237 186 230 205 230 c 257
 188 215 173 198 162 179 c 256
 151 159 146 140 146 121 c 256
 146 94 159 67 187 39 c 256
 215 11 242 -1 269 -1 c 256
EndSplineSet
PickledDataWithLists: "(dp1
S'com.adobe.type.autohint'
p2
(S'data'
S'<data>\\n  <hintSetList>\\n    <hintset pointTag=\"hr00\">\\n      <hstem pos=\"20\" width=\"-21\"/>\\n      <hstem pos=\"-1\" width=\"68\"/>\\n      <hstem pos=\"-1\" width=\"81\"/>\\n      <hstem pos=\"339\" width=\"68\"/>\\n      <hstem pos=\"382\" width=\"44\"/>\\n      <hstem pos=\"509\" width=\"75\"/>\\n      <vstem pos=\"129\" width=\"62\"/>\\n      <vstem pos=\"146\" width=\"70\"/>\\n      <vstem pos=\"274\" width=\"75\"/>\\n      <vstem pos=\"286\" width=\"63\"/>\\n      <vstem pos=\"486\" width=\"76\"/>\\n      <vstem pos=\"614\" width=\"57\"/>\\n      <vstem pos=\"681\" width=\"62\"/>\\n    </hintset>\\n  </hintSetList>\\n  </data>'
Ntp3
s."
EndChar

StartChar: Ka
Encoding: 134 3093 134
GlifName: Ka_
Width: 423
VWidth: 0
Flags: W
LayerCount: 2
Back
Fore
SplineSet
400 543 m 257
NamedP: "hr00"
 400 637 l 257
 106 460 l 257
 106 382 l 257
 84 359 73 333 73 304 c 256
 73 289 80 273 94 257 c 256
 106 242 123 230 146 218 c 258
 261 157 l 258
 282 146 298 136 310 125 c 256
 322 115 328 106 328 98 c 256
 328 88 324 79 315 72 c 256
 305 65 293 62 280 62 c 256
 248 62 215 69 182 82 c 256
 148 95 116 115 85 141 c 257
 30 73 l 257
 53 49 81 31 114 18 c 256
 146 5 181 -1 219 -1 c 256
 270 -1 313 12 346 37 c 256
 379 63 396 95 396 134 c 256
 396 149 388 165 371 182 c 256
 354 199 331 212 305 226 c 258
 183 292 l 258
 168 300 156 310 147 320 c 256
 139 329 135 338 135 346 c 256
 135 355 139 362 147 367 c 256
 156 372 165 375 176 375 c 256
 192 375 208 369 224 359 c 256
 241 348 255 334 267 315 c 257
 354 359 l 257
 342 380 324 398 300 409 c 256
 275 421 248 426 219 426 c 258
 210 426 l 257
 400 543 l 257
NamedP: "hr00"
EndSplineSet
PickledDataWithLists: "(dp1
S'com.adobe.type.autohint'
p2
(S'data'
S'<data>\\n  <hintSetList>\\n    <hintset pointTag=\"hr00\">\\n      <hstem pos=\"-1\" width=\"63\"/>\\n      <hstem pos=\"375\" width=\"51\"/>\\n      <vstem pos=\"106\" width=\"29\"/>\\n      <vstem pos=\"328\" width=\"68\"/>\\n    </hintset>\\n  </hintSetList>\\n  </data>'
Ntp3
s."
EndChar

StartChar: Kha
Encoding: 135 3094 135
GlifName: Kha_
Width: 584
VWidth: 0
Flags: W
LayerCount: 2
Back
Fore
SplineSet
194 -221 m 257
NamedP: "hr00"
 270 -171 l 257
 270 21 l 257
 194 -29 l 257
 194 -219 l 257
 194 -221 l 257
NamedP: "hr00"
151 62 m 256
 134 62 118 70 103 87 c 256
 88 103 81 121 81 140 c 256
 81 152 84 162 91 169 c 256
 98 178 106 182 116 182 c 256
 128 182 149 162 184 127 c 258
 213 98 l 257
 208 87 201 79 190 72 c 256
 179 65 166 62 151 62 c 256
134 -1 m 256
 154 -1 174 5 195 17 c 256
 215 28 233 44 250 65 c 257
 270 44 291 28 312 17 c 256
 333 5 353 -1 371 -1 c 256
 418 -1 462 21 502 68 c 256
 542 114 561 165 561 219 c 256
 561 278 546 330 516 374 c 256
 487 417 449 443 402 451 c 257
 345 377 l 257
 384 377 421 355 459 313 c 256
 496 271 516 230 516 189 c 256
 516 155 506 127 486 104 c 256
 466 79 442 67 414 67 c 256
 391 67 368 74 345 87 c 256
 323 100 304 117 287 140 c 257
 304 177 312 218 312 261 c 256
 312 302 302 340 281 375 c 256
 261 409 239 426 214 426 c 256
 185 426 157 414 128 391 c 256
 99 367 85 344 85 321 c 256
 85 312 87 304 91 295 c 256
 96 286 102 279 110 273 c 257
 187 322 l 257
 178 322 172 325 167 330 c 256
 162 334 160 339 160 346 c 256
 160 349 162 352 165 354 c 256
 168 357 172 358 177 358 c 256
 196 358 214 338 229 298 c 256
 245 258 250 220 243 185 c 257
 228 203 213 217 198 227 c 256
 183 238 170 244 159 244 c 256
 127 244 97 229 70 199 c 256
 43 167 30 133 30 98 c 256
 30 71 40 47 60 28 c 256
 81 8 106 -1 134 -1 c 256
EndSplineSet
PickledDataWithLists: "(dp1
S'com.adobe.type.autohint'
p2
(S'data'
S'<data>\\n  <hintSetList>\\n    <hintset pointTag=\"hr00\">\\n      <hstem pos=\"20\" width=\"-21\"/>\\n      <hstem pos=\"-1\" width=\"63\"/>\\n      <hstem pos=\"-1\" width=\"68\"/>\\n      <hstem pos=\"182\" width=\"62\"/>\\n      <hstem pos=\"358\" width=\"68\"/>\\n      <vstem pos=\"30\" width=\"51\"/>\\n      <vstem pos=\"85\" width=\"75\"/>\\n      <vstem pos=\"194\" width=\"76\"/>\\n      <vstem pos=\"246\" width=\"66\"/>\\n      <vstem pos=\"516\" width=\"45\"/>\\n    </hintset>\\n  </hintSetList>\\n  </data>'
Ntp3
s."
EndChar

StartChar: Ga
Encoding: 136 3095 136
GlifName: Ga_
Width: 450
VWidth: 0
Flags: W
LayerCount: 2
Back
Fore
SplineSet
418 543 m 257
NamedP: "hr00"
 418 637 l 257
 124 460 l 257
 124 379 l 257
 113 370 103 360 93 347 c 256
 51 295 30 232 30 158 c 256
 30 122 39 89 58 59 c 256
 77 30 101 10 132 -1 c 257
 186 62 l 257
 157 69 134 86 116 114 c 256
 99 140 90 171 90 206 c 256
 90 243 101 275 125 303 c 256
 148 330 179 347 214 352 c 257
 251 352 284 331 313 289 c 256
 342 248 356 201 356 146 c 256
 356 63 338 -8 302 -65 c 257
 345 -32 377 8 397 54 c 256
 417 99 425 145 420 194 c 257
 420 251 403 305 366 354 c 256
 330 402 289 426 246 426 c 256
 238 426 232 426 227 425 c 257
 418 543 l 257
NamedP: "hr00"
EndSplineSet
PickledDataWithLists: "(dp1
S'com.adobe.type.autohint'
p2
(S'data'
S'<data>\\n  <hintSetList>\\n    <hintset pointTag=\"hr00\">\\n      <hstem pos=\"20\" width=\"-21\"/>\\n      <hstem pos=\"352\" width=\"74\"/>\\n      <vstem pos=\"30\" width=\"60\"/>\\n      <vstem pos=\"356\" width=\"64\"/>\\n    </hintset>\\n  </hintSetList>\\n  </data>'
Ntp3
s."
EndChar

StartChar: Gha
Encoding: 137 3096 137
GlifName: Gha_
Width: 911
VWidth: 0
Flags: W
LayerCount: 2
Back
Fore
SplineSet
30 292 m 257
NamedP: "hr00"
 396 524 l 257
 396 618 l 257
 30 380 l 257
 30 294 l 257
 30 292 l 257
NamedP: "hr00"
212 -208 m 257
 287 -158 l 257
 287 32 l 257
 212 -18 l 257
 212 -208 l 257
519 73 m 257
 530 55 545 40 562 27 c 256
 589 8 619 -1 650 -1 c 256
 709 -1 763 23 813 72 c 256
 863 121 888 174 888 231 c 256
 888 284 869 332 829 370 c 256
 790 408 742 426 686 426 c 257
 643 352 l 257
 694 352 737 335 772 300 c 256
 807 266 825 225 825 176 c 256
 825 145 812 119 787 96 c 256
 763 74 733 62 698 62 c 256
 666 62 636 73 608 96 c 256
 589 112 574 131 561 152 c 257
 569 177 573 205 573 236 c 256
 573 279 558 319 527 355 c 256
 497 391 457 415 408 426 c 257
 333 358 l 257
 388 348 434 326 469 292 c 256
 504 258 522 219 522 176 c 256
 522 145 512 118 492 96 c 256
 472 73 448 62 420 62 c 256
 403 62 386 69 369 79 c 256
 351 90 335 103 318 122 c 258
 269 177 l 257
 254 198 239 215 223 226 c 256
 206 238 190 244 177 244 c 256
 143 244 110 228 77 196 c 256
 46 165 30 132 30 98 c 256
 30 71 40 47 60 28 c 256
 81 8 106 -1 135 -1 c 256
 154 -1 173 5 194 17 c 256
 214 28 233 44 250 65 c 257
 270 44 290 28 310 17 c 256
 331 5 349 -1 366 -1 c 256
 425 -1 475 22 514 67 c 256
 516 69 518 71 519 73 c 257
198 72 m 256
 185 65 170 62 153 62 c 256
 136 62 121 69 108 84 c 257
 94 97 87 111 87 128 c 256
 87 143 92 155 101 165 c 256
 110 176 122 182 135 182 c 256
 142 182 148 179 155 173 c 256
 162 168 169 160 176 150 c 257
 225 98 l 257
 220 87 211 79 198 72 c 256
EndSplineSet
PickledDataWithLists: "(dp1
S'com.adobe.type.autohint'
p2
(S'data'
S'<data>\\n  <hintSetList>\\n    <hintset pointTag=\"hr00\">\\n      <hstem pos=\"-1\" width=\"63\"/>\\n      <hstem pos=\"182\" width=\"62\"/>\\n      <hstem pos=\"352\" width=\"74\"/>\\n      <vstem pos=\"30\" width=\"57\"/>\\n      <vstem pos=\"212\" width=\"75\"/>\\n      <vstem pos=\"522\" width=\"51\"/>\\n      <vstem pos=\"825\" width=\"63\"/>\\n    </hintset>\\n  </hintSetList>\\n  </data>'
Ntp3
s."
EndChar

StartChar: uni0C19
Encoding: 138 3097 138
GlifName: uni0C19_
Width: 595
VWidth: 0
Flags: W
LayerCount: 2
Back
Fore
SplineSet
145 280 m 256
NamedP: "hr00"
 132 280 121 286 111 299 c 257
 99 312 93 325 93 340 c 256
 93 352 96 362 103 369 c 256
 110 378 119 382 129 382 c 256
 140 382 151 376 161 363 c 256
 171 350 176 336 176 321 c 256
 176 310 173 300 168 292 c 256
 162 284 154 280 145 280 c 256
NamedP: "hr00"
170 -1 m 256
 187 -1 206 5 227 17 c 256
 246 28 266 44 286 65 c 257
 306 44 326 28 345 17 c 256
 366 5 384 -1 401 -1 c 256
 438 -1 476 16 515 50 c 256
 553 84 572 118 572 151 c 256
 572 164 570 175 567 185 c 256
 564 195 560 202 554 207 c 257
 490 145 l 257
 499 143 505 138 510 130 c 256
 514 124 516 117 516 109 c 256
 516 98 510 88 499 80 c 256
 487 71 473 67 456 67 c 256
 437 67 417 73 397 86 c 256
 376 99 356 118 335 141 c 257
 314 121 293 107 271 96 c 256
 250 86 228 80 207 80 c 256
 182 80 161 87 143 102 c 256
 126 117 117 136 117 158 c 256
 117 172 122 186 132 199 c 256
 142 213 155 225 172 235 c 257
 197 254 217 272 230 290 c 256
 244 309 251 325 251 340 c 256
 251 363 243 384 226 401 c 256
 209 418 188 426 165 426 c 256
 132 426 101 413 73 386 c 256
 44 359 30 329 30 298 c 256
 30 279 38 263 53 250 c 256
 69 237 87 230 107 230 c 257
 89 216 76 199 65 179 c 256
 55 160 49 140 49 121 c 256
 49 94 61 67 89 39 c 256
 117 11 144 -1 170 -1 c 256
219 254 m 257
 450 254 l 257
 526 329 l 257
 408 329 l 257
 408 427 l 257
 321 365 l 257
 321 329 l 257
 273 329 l 257
 219 255 l 257
 219 254 l 257
EndSplineSet
PickledDataWithLists: "(dp1
S'com.adobe.type.autohint'
p2
(S'data'
S'<data>\\n  <hintSetList>\\n    <hintset pointTag=\"hr00\">\\n      <hstem pos=\"20\" width=\"-21\"/>\\n      <hstem pos=\"-1\" width=\"68\"/>\\n      <hstem pos=\"-1\" width=\"81\"/>\\n      <hstem pos=\"230\" width=\"50\"/>\\n      <hstem pos=\"254\" width=\"75\"/>\\n      <hstem pos=\"382\" width=\"44\"/>\\n      <vstem pos=\"30\" width=\"63\"/>\\n      <vstem pos=\"49\" width=\"68\"/>\\n      <vstem pos=\"176\" width=\"75\"/>\\n      <vstem pos=\"321\" width=\"87\"/>\\n      <vstem pos=\"516\" width=\"56\"/>\\n    </hintset>\\n  </hintSetList>\\n  </data>'
Ntp3
s."
EndChar

StartChar: Ca
Encoding: 139 3098 139
GlifName: Ca_
Width: 748
VWidth: 0
Flags: W
LayerCount: 2
Back
Fore
SplineSet
693 519 m 257
NamedP: "hr00"
 693 613 l 257
 400 436 l 257
 400 337 l 257
 425 353 l 257
 425 352 l 257
 468 352 l 258
 521 352 569 334 614 297 c 256
 659 260 681 219 681 176 c 256
 681 148 671 124 652 104 c 256
 634 84 612 74 585 74 c 256
 562 74 539 81 516 94 c 256
 494 106 474 124 457 148 c 257
 434 121 410 100 387 85 c 256
 364 70 343 62 323 62 c 256
 302 62 283 73 266 96 c 256
 248 119 239 143 239 170 c 256
 239 199 249 226 268 249 c 256
 287 273 314 292 347 305 c 257
 87 305 l 257
 30 230 l 257
 199 230 l 257
 189 221 181 208 175 191 c 257
 168 176 165 159 165 140 c 256
 165 105 176 72 202 43 c 256
 228 13 257 -1 287 -1 c 256
 304 -1 324 5 346 15 c 256
 369 26 392 40 415 60 c 257
 431 41 451 26 475 15 c 256
 498 4 523 -1 548 -1 c 256
 591 -1 633 20 671 64 c 256
 709 107 726 155 726 206 c 256
 726 261 704 311 661 357 c 256
 623 397 583 420 540 425 c 257
 693 519 l 257
NamedP: "hr00"
EndSplineSet
PickledDataWithLists: "(dp1
S'com.adobe.type.autohint'
p2
(S'data'
S'<data>\\n  <hintSetList>\\n    <hintset pointTag=\"hr00\">\\n      <hstem pos=\"-1\" width=\"75\"/>\\n      <hstem pos=\"-1\" width=\"63\"/>\\n      <hstem pos=\"230\" width=\"75\"/>\\n      <hstem pos=\"352\" width=\"73\"/>\\n      <vstem pos=\"165\" width=\"74\"/>\\n      <vstem pos=\"681\" width=\"45\"/>\\n    </hintset>\\n  </hintSetList>\\n  </data>'
Ntp3
s."
EndChar

StartChar: Cha
Encoding: 140 3099 140
GlifName: Cha_
Width: 748
VWidth: 0
Flags: W
LayerCount: 2
Back
Fore
SplineSet
693 519 m 257
NamedP: "hr00"
 693 613 l 257
 400 436 l 257
 400 337 l 257
 425 353 l 257
 425 352 l 257
 468 352 l 258
 521 352 569 334 614 297 c 256
 659 260 681 219 681 176 c 256
 681 148 671 124 652 104 c 256
 634 84 612 74 585 74 c 256
 562 74 539 81 516 94 c 256
 494 106 474 124 457 148 c 257
 434 121 410 100 387 85 c 256
 364 70 343 62 323 62 c 256
 302 62 283 73 266 96 c 256
 248 119 239 143 239 170 c 256
 239 199 249 226 268 249 c 256
 287 273 314 292 347 305 c 257
 87 305 l 257
 30 230 l 257
 199 230 l 257
 189 221 181 208 175 191 c 257
 168 176 165 159 165 140 c 256
 165 105 176 72 202 43 c 256
 228 13 257 -1 287 -1 c 256
 304 -1 324 5 346 15 c 256
 369 26 392 40 415 60 c 257
 431 41 451 26 475 15 c 256
 498 4 523 -1 548 -1 c 256
 591 -1 633 20 671 64 c 256
 709 107 726 155 726 206 c 256
 726 261 704 311 661 357 c 256
 623 397 583 420 540 425 c 257
 693 519 l 257
NamedP: "hr00"
365 -221 m 257
 439 -171 l 257
 439 21 l 257
 365 -29 l 257
 365 -219 l 257
 365 -221 l 257
EndSplineSet
PickledDataWithLists: "(dp1
S'com.adobe.type.autohint'
p2
(S'data'
S'<data>\\n  <hintSetList>\\n    <hintset pointTag=\"hr00\">\\n      <hstem pos=\"20\" width=\"-21\"/>\\n      <hstem pos=\"-1\" width=\"75\"/>\\n      <hstem pos=\"-1\" width=\"63\"/>\\n      <hstem pos=\"230\" width=\"75\"/>\\n      <hstem pos=\"352\" width=\"73\"/>\\n      <vstem pos=\"165\" width=\"74\"/>\\n      <vstem pos=\"365\" width=\"74\"/>\\n      <vstem pos=\"681\" width=\"45\"/>\\n    </hintset>\\n  </hintSetList>\\n  </data>'
Ntp3
s."
EndChar

StartChar: Ja
Encoding: 141 3100 141
GlifName: Ja_
Width: 595
VWidth: 0
Flags: W
LayerCount: 2
Back
Fore
SplineSet
145 280 m 256
NamedP: "hr00"
 132 280 121 286 111 299 c 257
 99 312 93 325 93 340 c 256
 93 352 96 362 103 369 c 256
 110 378 119 382 129 382 c 256
 140 382 151 376 161 363 c 256
 171 350 176 336 176 321 c 256
 176 310 173 300 168 292 c 256
 162 284 154 280 145 280 c 256
NamedP: "hr00"
170 -1 m 256
 187 -1 206 5 227 17 c 256
 246 28 266 44 286 65 c 257
 306 44 326 28 345 17 c 256
 366 5 384 -1 401 -1 c 256
 438 -1 476 16 515 50 c 256
 553 84 572 118 572 151 c 256
 572 164 570 175 567 185 c 256
 564 195 560 202 554 207 c 257
 490 145 l 257
 499 143 505 138 510 130 c 256
 514 124 516 117 516 109 c 256
 516 98 510 88 499 80 c 256
 487 71 473 67 456 67 c 256
 437 67 417 73 397 86 c 256
 376 99 356 118 335 141 c 257
 314 121 293 107 271 96 c 256
 250 86 228 80 207 80 c 256
 182 80 161 87 143 102 c 256
 126 117 117 136 117 158 c 256
 117 172 122 186 132 199 c 256
 142 213 155 225 172 235 c 257
 195 254 209 268 214 277 c 257
 223 266 237 257 254 252 c 257
 271 245 290 242 311 242 c 256
 334 242 360 256 387 283 c 256
 415 312 427 339 427 364 c 256
 427 381 420 396 407 409 c 257
 393 420 377 426 359 426 c 257
 309 363 l 257
 326 363 339 360 348 353 c 256
 359 346 364 337 364 328 c 256
 364 321 361 316 355 312 c 257
 350 307 343 305 335 305 c 256
 318 305 301 308 286 315 c 256
 273 321 261 329 251 340 c 257
 251 363 243 384 226 401 c 256
 209 418 188 426 165 426 c 256
 132 426 101 413 73 386 c 256
 44 359 30 329 30 298 c 256
 30 279 38 263 53 250 c 256
 69 237 87 230 107 230 c 257
 89 216 76 199 65 179 c 256
 55 160 49 140 49 121 c 256
 49 94 61 67 89 39 c 256
 117 11 144 -1 170 -1 c 256
EndSplineSet
PickledDataWithLists: "(dp1
S'com.adobe.type.autohint'
p2
(S'data'
S'<data>\\n  <hintSetList>\\n    <hintset pointTag=\"hr00\">\\n      <hstem pos=\"20\" width=\"-21\"/>\\n      <hstem pos=\"-1\" width=\"68\"/>\\n      <hstem pos=\"-1\" width=\"81\"/>\\n      <hstem pos=\"230\" width=\"50\"/>\\n      <hstem pos=\"242\" width=\"63\"/>\\n      <hstem pos=\"382\" width=\"44\"/>\\n      <vstem pos=\"30\" width=\"63\"/>\\n      <vstem pos=\"49\" width=\"68\"/>\\n      <vstem pos=\"176\" width=\"75\"/>\\n      <vstem pos=\"364\" width=\"63\"/>\\n      <vstem pos=\"516\" width=\"56\"/>\\n    </hintset>\\n  </hintSetList>\\n  </data>'
Ntp3
s."
EndChar

StartChar: Jha
Encoding: 142 3101 142
GlifName: Jha_
Width: 1139
VWidth: 0
Flags: W
LayerCount: 2
Back
Fore
SplineSet
128 354 m 257
NamedP: "hr00"
 97 333 73 305 56 270 c 256
 39 235 30 198 30 158 c 256
 30 119 49 82 88 49 c 256
 127 16 169 -1 214 -1 c 256
 281 -1 340 23 392 70 c 256
 401 79 410 88 417 97 c 257
 432 70 452 48 479 30 c 256
 512 9 548 -1 586 -1 c 256
 639 -1 689 22 733 72 c 258
 741 81 l 257
 754 60 770 42 790 27 c 256
 817 8 846 -1 877 -1 c 256
 936 -1 991 23 1041 72 c 256
 1091 121 1116 174 1116 231 c 256
 1116 284 1097 332 1057 370 c 256
 1018 408 969 426 914 426 c 257
 870 352 l 257
 921 352 965 335 1000 300 c 256
 1035 266 1053 225 1053 176 c 256
 1053 145 1040 119 1015 96 c 256
 991 74 961 62 926 62 c 256
 893 62 863 73 836 96 c 256
 815 113 799 133 786 156 c 257
 795 180 800 205 800 231 c 256
 800 284 781 332 741 370 c 256
 702 408 653 426 598 426 c 257
 554 352 l 257
 605 352 649 335 684 300 c 256
 719 266 736 225 736 176 c 256
 736 145 724 118 699 96 c 256
 674 73 645 62 610 62 c 256
 573 62 538 74 507 99 c 256
 486 116 468 135 455 158 c 257
 465 183 470 209 470 236 c 256
 470 283 445 326 395 367 c 256
 351 402 304 421 255 425 c 257
 462 553 l 257
 462 647 l 257
 169 470 l 257
 169 398 l 257
 128 354 l 257
NamedP: "hr00"
689 -221 m 257
 763 -171 l 257
 763 26 l 257
 689 -23 l 257
 689 -221 l 257
361 92 m 256
 331 64 298 50 262 50 c 256
 215 50 176 67 146 100 c 256
 115 133 100 174 100 225 c 256
 100 251 103 275 113 298 c 256
 122 319 136 337 152 352 c 257
 214 352 l 258
 262 352 305 333 345 298 c 256
 385 262 406 224 406 183 c 256
 406 150 391 119 361 92 c 256
EndSplineSet
PickledDataWithLists: "(dp1
S'com.adobe.type.autohint'
p2
(S'data'
S'<data>\\n  <hintSetList>\\n    <hintset pointTag=\"hr00\">\\n      <hstem pos=\"-1\" width=\"63\"/>\\n      <hstem pos=\"-1\" width=\"51\"/>\\n      <hstem pos=\"352\" width=\"74\"/>\\n      <vstem pos=\"30\" width=\"70\"/>\\n      <vstem pos=\"406\" width=\"64\"/>\\n      <vstem pos=\"689\" width=\"74\"/>\\n      <vstem pos=\"736\" width=\"64\"/>\\n      <vstem pos=\"1053\" width=\"63\"/>\\n    </hintset>\\n  </hintSetList>\\n  </data>'
Ntp3
s."
EndChar

StartChar: Nya
Encoding: 143 3102 143
GlifName: Nya_
Width: 838
VWidth: 0
Flags: W
LayerCount: 2
Back
Fore
SplineSet
345 62 m 256
NamedP: "hr00"
 318 62 294 71 275 87 c 256
 255 104 245 123 245 146 c 256
 245 161 250 174 261 183 c 257
 270 194 282 199 297 199 c 256
 306 199 315 195 326 188 c 256
 338 181 350 169 364 157 c 258
 430 98 l 257
 419 87 406 78 391 72 c 256
 376 65 361 62 345 62 c 256
NamedP: "hr00"
303 -1 m 256
 332 -1 359 5 386 18 c 256
 414 31 439 49 461 72 c 257
 503 35 l 258
 516 23 531 15 544 8 c 256
 556 2 567 -1 577 -1 c 257
 648 63 l 257
 633 58 624 56 620 56 c 256
 613 56 605 58 596 62 c 256
 587 67 579 73 572 80 c 257
 523 121 l 257
 542 140 557 159 568 178 c 256
 580 197 587 214 590 230 c 257
 754 230 l 257
 816 305 l 257
 730 305 l 257
 730 408 l 257
 643 347 l 257
 643 305 l 257
 607 305 l 257
 589 287 l 257
 578 328 558 362 530 387 c 256
 501 413 470 426 437 426 c 256
 410 426 384 420 361 411 c 256
 337 401 318 388 304 371 c 257
 286 388 266 402 245 412 c 256
 224 421 203 426 182 426 c 256
 145 426 110 413 78 386 c 256
 46 359 30 329 30 298 c 256
 30 286 34 275 41 264 c 257
 50 254 61 247 74 242 c 257
 167 279 l 257
 144 288 125 299 112 312 c 256
 99 325 92 338 92 353 c 256
 92 359 96 364 104 368 c 256
 112 373 122 375 134 375 c 256
 155 375 177 367 201 350 c 256
 227 333 253 308 280 277 c 257
 295 304 313 325 333 340 c 256
 352 355 370 363 389 363 c 256
 420 363 449 348 475 318 c 256
 502 288 515 255 515 219 c 256
 515 208 513 198 509 188 c 256
 505 177 499 168 492 159 c 257
 438 214 l 258
 427 225 412 233 394 240 c 256
 377 246 359 250 340 250 c 256
 298 250 259 235 223 206 c 256
 187 176 169 144 169 109 c 256
 169 79 181 52 208 30 c 256
 234 8 267 -1 303 -1 c 256
EndSplineSet
PickledDataWithLists: "(dp1
S'com.adobe.type.autohint'
p2
(S'data'
S'<data>\\n  <hintSetList>\\n    <hintset pointTag=\"hr00\">\\n      <hstem pos=\"-1\" width=\"63\"/>\\n      <hstem pos=\"199\" width=\"51\"/>\\n      <hstem pos=\"230\" width=\"75\"/>\\n      <hstem pos=\"363\" width=\"63\"/>\\n      <hstem pos=\"375\" width=\"51\"/>\\n      <vstem pos=\"30\" width=\"62\"/>\\n      <vstem pos=\"169\" width=\"76\"/>\\n      <vstem pos=\"515\" width=\"75\"/>\\n      <vstem pos=\"643\" width=\"87\"/>\\n    </hintset>\\n  </hintSetList>\\n  </data>'
Ntp3
s."
EndChar

StartChar: Lla
Encoding: 144 3123 144
GlifName: Lla_
Width: 545
VWidth: 0
Flags: W
LayerCount: 2
Back
Fore
SplineSet
522 525 m 257
NamedP: "hr00"
 522 619 l 257
 229 442 l 257
 229 343 l 257
 243 352 l 257
 359 352 l 258
 369 352 377 349 384 344 c 256
 391 339 394 334 394 328 c 256
 394 319 391 312 384 305 c 256
 377 298 369 291 359 286 c 258
 274 244 l 257
 146 286 l 258
 136 289 129 293 126 296 c 257
 120 299 117 302 117 304 c 256
 117 307 118 310 121 312 c 257
 122 314 125 315 128 315 c 257
 127 320 123 323 116 326 c 256
 111 328 105 329 97 329 c 256
 85 329 71 322 54 305 c 256
 37 288 30 274 30 261 c 256
 30 256 35 248 46 239 c 257
 58 232 73 225 91 218 c 258
 168 189 l 257
 153 177 142 163 134 146 c 257
 125 131 121 115 121 98 c 256
 121 71 135 47 163 28 c 256
 190 9 223 -1 261 -1 c 256
 297 -1 331 14 362 45 c 256
 393 77 408 111 408 146 c 256
 408 163 400 179 385 195 c 257
 368 210 348 220 325 225 c 257
 395 267 l 257
 418 278 436 291 448 308 c 256
 461 325 468 342 468 359 c 256
 468 377 461 393 446 406 c 256
 429 419 410 426 389 426 c 258
 362 426 l 257
 522 525 l 257
NamedP: "hr00"
323 75 m 257
 314 66 301 62 286 62 c 256
 262 62 239 70 217 84 c 256
 194 99 183 113 183 128 c 256
 183 139 186 148 193 157 c 256
 200 165 208 171 219 175 c 257
 280 150 l 258
 298 143 312 136 323 128 c 256
 334 119 339 111 339 104 c 256
 339 93 334 83 323 75 c 257
EndSplineSet
PickledDataWithLists: "(dp1
S'com.adobe.type.autohint'
p2
(S'data'
S'<data>\\n  <hintSetList>\\n    <hintset pointTag=\"hr00\">\\n      <hstem pos=\"-1\" width=\"63\"/>\\n      <hstem pos=\"315\" width=\"14\"/>\\n      <hstem pos=\"352\" width=\"74\"/>\\n      <vstem pos=\"30\" width=\"492\"/>\\n      <vstem pos=\"121\" width=\"62\"/>\\n      <vstem pos=\"339\" width=\"69\"/>\\n    </hintset>\\n  </hintSetList>\\n  </data>'
Ntp3
s."
EndChar

StartChar: TTha
Encoding: 145 3104 145
GlifName: TTha_
Width: 493
VWidth: 0
Flags: W
LayerCount: 2
Back
Fore
SplineSet
462 543 m 257
NamedP: "hr00"
 462 637 l 257
 169 460 l 257
 169 398 l 257
 128 354 l 257
 97 333 73 305 56 270 c 256
 39 235 30 198 30 158 c 256
 30 119 49 82 88 49 c 256
 127 16 169 -1 214 -1 c 256
 281 -1 340 22 392 70 c 256
 445 118 470 175 470 236 c 256
 470 283 445 327 395 367 c 256
 355 399 313 417 269 424 c 257
 462 543 l 257
NamedP: "hr00"
361 92 m 256
 331 64 298 50 262 50 c 256
 215 50 176 67 146 100 c 256
 115 133 100 174 100 225 c 256
 100 251 103 275 113 298 c 256
 122 319 136 337 152 352 c 257
 214 352 l 258
 262 352 305 333 345 298 c 256
 385 262 406 224 406 183 c 256
 406 150 391 119 361 92 c 256
208 170 m 257
 219 161 231 157 244 157 c 256
 255 157 266 161 275 170 c 257
 283 181 287 193 287 206 c 256
 287 217 282 227 273 236 c 256
 264 245 255 250 244 250 c 256
 231 250 219 246 208 237 c 256
 199 228 194 218 194 206 c 256
 194 193 199 181 208 170 c 257
EndSplineSet
PickledDataWithLists: "(dp1
S'com.adobe.type.autohint'
p2
(S'data'
S'<data>\\n  <hintSetList>\\n    <hintset pointTag=\"hr00\">\\n      <hstem pos=\"-1\" width=\"51\"/>\\n      <hstem pos=\"157\" width=\"93\"/>\\n      <hstem pos=\"352\" width=\"72\"/>\\n      <vstem pos=\"30\" width=\"70\"/>\\n      <vstem pos=\"194\" width=\"93\"/>\\n      <vstem pos=\"406\" width=\"64\"/>\\n    </hintset>\\n  </hintSetList>\\n  </data>'
Ntp3
s."
EndChar

StartChar: DDa
Encoding: 146 3105 146
GlifName: DDa_
Width: 608
VWidth: 0
Flags: W
LayerCount: 2
Back
Fore
SplineSet
498 553 m 257
NamedP: "hr00"
 498 647 l 257
 205 470 l 257
 205 414 l 257
 156 389 116 356 85 316 c 256
 48 269 30 221 30 170 c 256
 30 129 44 90 73 53 c 256
 101 17 132 -1 165 -1 c 256
 182 -1 201 4 221 15 c 256
 242 26 261 41 280 60 c 257
 296 41 316 26 341 15 c 256
 365 4 391 -1 420 -1 c 256
 456 -1 493 16 530 50 c 256
 567 84 585 118 585 151 c 256
 585 164 583 177 578 188 c 256
 574 199 568 207 560 214 c 257
 484 139 l 257
 494 139 502 136 508 129 c 256
 513 122 516 114 516 104 c 256
 516 93 509 83 496 75 c 256
 483 66 468 62 450 62 c 256
 429 62 408 68 385 81 c 256
 363 94 342 112 322 136 c 257
 305 116 286 101 265 90 c 256
 242 79 219 74 195 74 c 256
 170 74 148 87 126 114 c 256
 105 140 93 169 93 200 c 256
 93 232 102 261 121 288 c 256
 139 315 164 337 195 352 c 257
 377 352 l 258
 386 352 393 349 398 344 c 256
 403 340 406 334 406 326 c 257
 482 389 l 257
 475 400 468 409 461 416 c 256
 453 423 446 426 439 426 c 258
 293 426 l 257
 498 553 l 257
NamedP: "hr00"
EndSplineSet
PickledDataWithLists: "(dp1
S'com.adobe.type.autohint'
p2
(S'data'
S'<data>\\n  <hintSetList>\\n    <hintset pointTag=\"hr00\">\\n      <hstem pos=\"-1\" width=\"63\"/>\\n      <hstem pos=\"-1\" width=\"75\"/>\\n      <hstem pos=\"352\" width=\"74\"/>\\n      <vstem pos=\"30\" width=\"63\"/>\\n      <vstem pos=\"516\" width=\"69\"/>\\n    </hintset>\\n  </hintSetList>\\n  </data>'
Ntp3
s."
EndChar

StartChar: DDha
Encoding: 147 3106 147
GlifName: DDha_
Width: 608
VWidth: 0
Flags: W
LayerCount: 2
Back
Fore
SplineSet
498 553 m 257
NamedP: "hr00"
 498 647 l 257
 205 470 l 257
 205 414 l 257
 156 389 116 356 85 316 c 256
 48 269 30 221 30 170 c 256
 30 129 44 90 73 53 c 256
 101 17 132 -1 165 -1 c 256
 182 -1 201 4 221 15 c 256
 242 26 261 41 280 60 c 257
 296 41 316 26 341 15 c 256
 365 4 391 -1 420 -1 c 256
 456 -1 493 16 530 50 c 256
 567 84 585 118 585 151 c 256
 585 164 583 177 578 188 c 256
 574 199 568 207 560 214 c 257
 484 139 l 257
 494 139 502 136 508 129 c 256
 513 122 516 114 516 104 c 256
 516 93 509 83 496 75 c 256
 483 66 468 62 450 62 c 256
 429 62 408 68 385 81 c 256
 363 94 342 112 322 136 c 257
 305 116 286 101 265 90 c 256
 242 79 219 74 195 74 c 256
 170 74 148 87 126 114 c 256
 105 140 93 169 93 200 c 256
 93 232 102 261 121 288 c 256
 139 315 164 337 195 352 c 257
 377 352 l 258
 386 352 393 349 398 344 c 256
 403 340 406 334 406 326 c 257
 482 389 l 257
 475 400 468 409 461 416 c 256
 453 423 446 426 439 426 c 258
 293 426 l 257
 498 553 l 257
NamedP: "hr00"
236 -221 m 257
 312 -171 l 257
 312 21 l 257
 236 -29 l 257
 236 -219 l 257
 236 -221 l 257
EndSplineSet
PickledDataWithLists: "(dp1
S'com.adobe.type.autohint'
p2
(S'data'
S'<data>\\n  <hintSetList>\\n    <hintset pointTag=\"hr00\">\\n      <hstem pos=\"20\" width=\"-21\"/>\\n      <hstem pos=\"-1\" width=\"63\"/>\\n      <hstem pos=\"-1\" width=\"75\"/>\\n      <hstem pos=\"352\" width=\"74\"/>\\n      <vstem pos=\"30\" width=\"63\"/>\\n      <vstem pos=\"236\" width=\"76\"/>\\n      <vstem pos=\"516\" width=\"69\"/>\\n    </hintset>\\n  </hintSetList>\\n  </data>'
Ntp3
s."
EndChar

StartChar: uni0C23
Encoding: 148 3107 148
GlifName: uni0C23_
Width: 626
VWidth: 0
Flags: W
LayerCount: 2
Back
Fore
SplineSet
436 62 m 256
NamedP: "hr00"
 422 62 410 70 397 85 c 256
 385 99 378 115 378 134 c 256
 378 144 381 152 386 159 c 256
 390 166 395 169 401 169 c 256
 418 169 433 161 446 144 c 257
 461 128 468 110 468 91 c 256
 468 83 465 76 459 71 c 256
 453 65 445 62 436 62 c 256
NamedP: "hr00"
121 -3 m 257
 184 67 l 257
 163 67 146 74 132 89 c 256
 119 103 111 120 111 140 c 256
 111 161 120 182 138 204 c 256
 157 227 183 249 218 269 c 257
 187 269 161 278 140 295 c 256
 117 312 105 332 105 353 c 256
 105 359 109 364 116 368 c 256
 125 373 135 375 146 375 c 256
 167 375 189 367 214 350 c 256
 240 333 266 308 292 277 c 257
 307 302 326 323 348 337 c 256
 371 352 395 358 420 358 c 256
 447 358 471 345 494 319 c 256
 517 294 528 266 528 236 c 256
 528 226 527 217 526 210 c 256
 525 203 523 198 522 196 c 257
 513 207 503 215 492 222 c 256
 481 229 471 232 462 232 c 256
 429 232 395 217 360 184 c 256
 326 152 309 118 309 85 c 256
 309 62 319 41 338 24 c 256
 357 7 380 -1 407 -1 c 256
 450 -1 494 26 538 84 c 256
 582 141 603 199 603 255 c 256
 603 297 588 336 557 372 c 256
 526 408 492 426 456 426 c 256
 428 426 402 421 377 410 c 256
 352 399 332 385 316 366 c 257
 306 385 290 399 267 410 c 256
 246 421 222 426 195 426 c 256
 158 426 123 415 93 391 c 256
 63 368 49 340 49 310 c 256
 49 292 55 275 68 258 c 256
 79 243 95 232 114 225 c 257
 88 208 68 187 53 164 c 256
 38 140 30 116 30 91 c 256
 30 66 39 44 56 25 c 257
 75 8 97 -1 121 -1 c 257
 121 -3 l 257
EndSplineSet
PickledDataWithLists: "(dp1
S'com.adobe.type.autohint'
p2
(S'data'
S'<data>\\n  <hintSetList>\\n    <hintset pointTag=\"hr00\">\\n      <hstem pos=\"20\" width=\"-21\"/>\\n      <hstem pos=\"-1\" width=\"63\"/>\\n      <hstem pos=\"169\" width=\"63\"/>\\n      <hstem pos=\"358\" width=\"68\"/>\\n      <hstem pos=\"375\" width=\"51\"/>\\n      <vstem pos=\"30\" width=\"81\"/>\\n      <vstem pos=\"49\" width=\"56\"/>\\n      <vstem pos=\"309\" width=\"69\"/>\\n      <vstem pos=\"528\" width=\"75\"/>\\n    </hintset>\\n  </hintSetList>\\n  </data>'
Ntp3
s."
EndChar

StartChar: Ta
Encoding: 149 3108 149
GlifName: Ta_
Width: 604
VWidth: 0
Flags: W
LayerCount: 2
Back
Fore
SplineSet
560 527 m 257
NamedP: "hr00"
 560 621 l 257
 266 444 l 257
 266 345 l 257
 277 352 l 257
 422 352 l 258
 435 352 447 347 456 338 c 256
 465 329 470 318 470 305 c 257
 449 305 428 295 405 272 c 256
 383 250 373 228 373 206 c 256
 373 188 381 171 398 155 c 256
 415 140 433 133 452 133 c 256
 464 133 477 137 490 144 c 256
 502 151 514 161 525 174 c 257
 526 172 l 258
 529 167 530 165 530 164 c 256
 530 142 509 119 467 96 c 256
 426 73 384 62 342 62 c 256
 285 62 237 69 196 85 c 256
 156 100 130 121 118 145 c 257
 144 145 169 155 192 175 c 256
 215 196 227 218 227 243 c 256
 227 260 221 274 210 287 c 257
 197 299 182 305 165 305 c 256
 132 305 101 290 73 259 c 256
 44 227 30 193 30 158 c 256
 30 118 59 82 117 49 c 256
 175 16 238 -1 305 -1 c 256
 373 -1 437 20 495 64 c 256
 553 107 581 155 581 206 c 256
 581 228 574 248 561 266 c 256
 548 283 530 296 509 304 c 257
 512 308 514 315 517 326 c 256
 519 336 520 349 520 364 c 256
 520 381 513 397 498 409 c 256
 483 421 466 426 446 426 c 258
 397 426 l 257
 560 527 l 257
NamedP: "hr00"
164 199 m 256
 161 196 156 195 151 195 c 256
 138 195 126 201 115 212 c 256
 103 223 97 236 97 249 c 256
 97 252 99 255 102 257 c 256
 105 259 110 260 115 260 c 256
 128 260 140 254 151 243 c 256
 163 232 169 219 169 206 c 256
 169 203 167 201 164 199 c 256
501 199 m 256
 498 196 494 195 489 195 c 256
 476 195 463 201 452 212 c 256
 441 223 435 236 435 249 c 256
 435 252 437 255 440 257 c 256
 443 259 447 260 452 260 c 256
 465 260 478 254 489 243 c 256
 500 232 506 219 506 206 c 256
 506 203 504 201 501 199 c 256
EndSplineSet
PickledDataWithLists: "(dp1
S'com.adobe.type.autohint'
p2
(S'data'
S'<data>\\n  <hintSetList>\\n    <hintset pointTag=\"hr00\">\\n      <hstem pos=\"-1\" width=\"63\"/>\\n      <hstem pos=\"133\" width=\"62\"/>\\n      <hstem pos=\"145\" width=\"50\"/>\\n      <hstem pos=\"260\" width=\"45\"/>\\n      <hstem pos=\"352\" width=\"74\"/>\\n      <vstem pos=\"169\" width=\"58\"/>\\n      <vstem pos=\"373\" width=\"62\"/>\\n      <vstem pos=\"470\" width=\"50\"/>\\n      <vstem pos=\"530\" width=\"51\"/>\\n    </hintset>\\n  </hintSetList>\\n  </data>'
Ntp3
s."
EndChar

StartChar: Tha
Encoding: 150 3109 150
GlifName: Tha_
Width: 601
VWidth: 0
Flags: W
LayerCount: 2
Back
Fore
SplineSet
505 553 m 257
NamedP: "hr00"
 505 647 l 257
 211 470 l 257
 211 419 l 257
 169 408 132 384 99 347 c 256
 53 295 30 232 30 158 c 256
 30 119 43 82 68 49 c 256
 94 16 122 -1 152 -1 c 256
 173 -1 194 6 215 17 c 256
 237 29 257 44 274 64 c 257
 291 44 311 29 334 17 c 256
 356 6 378 -1 401 -1 c 256
 442 -1 482 22 521 67 c 256
 559 112 578 158 578 206 c 256
 578 261 556 311 510 357 c 256
 463 404 413 426 359 426 c 258
 300 426 l 257
 505 553 l 257
NamedP: "hr00"
230 -214 m 257
 306 -165 l 257
 306 26 l 257
 230 -23 l 257
 230 -214 l 257
254 92 m 256
 231 79 210 74 189 74 c 256
 160 74 137 84 117 104 c 256
 97 124 87 147 87 175 c 256
 87 224 108 265 147 299 c 256
 187 333 234 352 291 352 c 256
 351 352 407 334 458 297 c 256
 509 260 534 219 534 176 c 256
 534 146 525 121 508 100 c 256
 490 78 469 67 444 67 c 256
 422 67 400 74 378 89 c 256
 356 103 335 123 316 148 c 257
 295 124 275 104 254 92 c 256
250 195 m 257
 261 186 273 182 286 182 c 256
 298 182 308 186 317 195 c 256
 326 206 330 218 330 231 c 256
 330 242 325 252 316 261 c 256
 307 270 297 275 286 275 c 256
 273 275 261 271 250 262 c 256
 241 253 236 243 236 231 c 256
 236 218 241 206 250 195 c 257
EndSplineSet
PickledDataWithLists: "(dp1
S'com.adobe.type.autohint'
p2
(S'data'
S'<data>\\n  <hintSetList>\\n    <hintset pointTag=\"hr00\">\\n      <hstem pos=\"-1\" width=\"68\"/>\\n      <hstem pos=\"-1\" width=\"75\"/>\\n      <hstem pos=\"182\" width=\"93\"/>\\n      <hstem pos=\"352\" width=\"74\"/>\\n      <vstem pos=\"30\" width=\"57\"/>\\n      <vstem pos=\"230\" width=\"76\"/>\\n      <vstem pos=\"236\" width=\"94\"/>\\n      <vstem pos=\"534\" width=\"44\"/>\\n    </hintset>\\n  </hintSetList>\\n  </data>'
Ntp3
s."
EndChar

StartChar: Da
Encoding: 151 3110 151
GlifName: Da_
Width: 601
VWidth: 0
Flags: W
LayerCount: 2
Back
Fore
SplineSet
505 553 m 257
NamedP: "hr00"
 505 647 l 257
 211 470 l 257
 211 419 l 257
 169 408 132 384 99 347 c 256
 53 295 30 232 30 158 c 256
 30 119 43 82 68 49 c 256
 94 16 122 -1 152 -1 c 256
 173 -1 194 6 215 17 c 256
 237 29 257 44 274 64 c 257
 291 44 311 29 334 17 c 256
 356 6 378 -1 401 -1 c 256
 442 -1 482 22 521 67 c 256
 559 112 578 158 578 206 c 256
 578 261 556 311 510 357 c 256
 463 404 413 426 359 426 c 258
 300 426 l 257
 505 553 l 257
NamedP: "hr00"
254 92 m 256
 231 79 210 74 189 74 c 256
 160 74 137 84 117 104 c 256
 97 124 87 147 87 175 c 256
 87 224 108 265 147 299 c 256
 187 333 234 352 291 352 c 256
 351 352 407 334 458 297 c 256
 509 260 534 219 534 176 c 256
 534 146 525 121 508 100 c 256
 490 78 469 67 444 67 c 256
 422 67 400 74 378 89 c 256
 356 103 335 123 316 148 c 257
 295 124 275 104 254 92 c 256
EndSplineSet
PickledDataWithLists: "(dp1
S'com.adobe.type.autohint'
p2
(S'data'
S'<data>\\n  <hintSetList>\\n    <hintset pointTag=\"hr00\">\\n      <hstem pos=\"-1\" width=\"68\"/>\\n      <hstem pos=\"-1\" width=\"75\"/>\\n      <hstem pos=\"352\" width=\"74\"/>\\n      <vstem pos=\"30\" width=\"57\"/>\\n      <vstem pos=\"534\" width=\"44\"/>\\n    </hintset>\\n  </hintSetList>\\n  </data>'
Ntp3
s."
EndChar

StartChar: Dha
Encoding: 152 3111 152
GlifName: Dha_
Width: 601
VWidth: 0
Flags: W
LayerCount: 2
Back
Fore
SplineSet
505 553 m 257
NamedP: "hr00"
 505 647 l 257
 211 470 l 257
 211 419 l 257
 169 408 132 384 99 347 c 256
 53 295 30 232 30 158 c 256
 30 119 43 82 68 49 c 256
 94 16 122 -1 152 -1 c 256
 173 -1 194 6 215 17 c 256
 237 29 257 44 274 64 c 257
 291 44 311 29 334 17 c 256
 356 6 378 -1 401 -1 c 256
 442 -1 482 22 521 67 c 256
 559 112 578 158 578 206 c 256
 578 261 556 311 510 357 c 256
 463 404 413 426 359 426 c 258
 300 426 l 257
 505 553 l 257
NamedP: "hr00"
230 -214 m 257
 306 -165 l 257
 306 26 l 257
 230 -23 l 257
 230 -214 l 257
254 92 m 256
 231 79 210 74 189 74 c 256
 160 74 137 84 117 104 c 256
 97 124 87 147 87 175 c 256
 87 224 108 265 147 299 c 256
 187 333 234 352 291 352 c 256
 351 352 407 334 458 297 c 256
 509 260 534 219 534 176 c 256
 534 146 525 121 508 100 c 256
 490 78 469 67 444 67 c 256
 422 67 400 74 378 89 c 256
 356 103 335 123 316 148 c 257
 295 124 275 104 254 92 c 256
EndSplineSet
PickledDataWithLists: "(dp1
S'com.adobe.type.autohint'
p2
(S'data'
S'<data>\\n  <hintSetList>\\n    <hintset pointTag=\"hr00\">\\n      <hstem pos=\"-1\" width=\"68\"/>\\n      <hstem pos=\"-1\" width=\"75\"/>\\n      <hstem pos=\"352\" width=\"74\"/>\\n      <vstem pos=\"30\" width=\"57\"/>\\n      <vstem pos=\"230\" width=\"76\"/>\\n      <vstem pos=\"534\" width=\"44\"/>\\n    </hintset>\\n  </hintSetList>\\n  </data>'
Ntp3
s."
EndChar

StartChar: Na
Encoding: 153 3112 153
GlifName: Na_
Width: 603
VWidth: 0
Flags: W
LayerCount: 2
Back
Fore
SplineSet
355 352 m 258
NamedP: "hr00"
 399 352 440 335 479 300 c 256
 517 267 536 230 536 189 c 256
 536 154 524 124 502 100 c 256
 479 75 453 62 421 62 c 256
 405 62 390 66 375 74 c 256
 360 81 348 92 336 105 c 258
 270 177 l 257
 255 198 240 214 226 226 c 256
 213 237 201 244 191 244 c 256
 161 244 128 229 91 195 c 256
 55 162 37 131 37 104 c 258
 37 24 l 258
 37 15 35 7 30 -1 c 257
 118 -1 l 257
 118 158 l 258
 118 166 120 173 123 179 c 256
 126 185 131 188 136 188 c 256
 143 188 153 184 165 175 c 256
 176 167 188 155 201 139 c 258
 262 65 l 258
 280 44 300 28 322 17 c 256
 345 5 368 -1 391 -1 c 256
 440 -1 483 22 522 68 c 256
 560 113 581 166 581 225 c 256
 581 280 562 328 525 367 c 256
 488 406 444 426 391 426 c 258
 301 426 l 257
 501 546 l 257
 501 640 l 257
 167 443 l 257
 167 344 l 257
 180 352 l 257
 355 352 l 258
NamedP: "hr00"
EndSplineSet
PickledDataWithLists: "(dp1
S'com.adobe.type.autohint'
p2
(S'data'
S'<data>\\n  <hintSetList>\\n    <hintset pointTag=\"hr00\">\\n      <hstem pos=\"-1\" width=\"63\"/>\\n      <hstem pos=\"352\" width=\"74\"/>\\n      <vstem pos=\"37\" width=\"81\"/>\\n      <vstem pos=\"536\" width=\"45\"/>\\n    </hintset>\\n  </hintSetList>\\n  </data>'
Ntp3
s."
EndChar

StartChar: Pa
Encoding: 154 3114 154
GlifName: Pa_
Width: 597
VWidth: 0
Flags: W
LayerCount: 2
Back
Fore
SplineSet
153 62 m 256
NamedP: "hr00"
 137 62 122 69 109 84 c 257
 95 97 88 111 88 128 c 256
 88 143 93 155 102 165 c 256
 111 176 123 182 136 182 c 256
 143 182 149 179 156 173 c 256
 163 168 170 160 177 150 c 257
 226 98 l 257
 221 87 212 79 199 72 c 256
 186 65 170 62 153 62 c 256
NamedP: "hr00"
135 -1 m 256
 154 -1 174 5 195 17 c 256
 215 28 234 44 251 65 c 257
 271 44 291 28 311 17 c 256
 332 5 350 -1 367 -1 c 256
 426 -1 476 22 515 67 c 256
 554 112 574 168 574 236 c 256
 574 279 559 319 528 355 c 256
 498 391 458 415 409 426 c 257
 334 358 l 257
 389 348 435 326 470 292 c 256
 505 258 523 219 523 176 c 256
 523 145 513 118 493 96 c 256
 473 73 449 62 421 62 c 256
 404 62 387 69 370 79 c 256
 352 90 336 103 319 122 c 258
 270 177 l 257
 255 198 240 215 224 226 c 256
 207 238 191 244 178 244 c 256
 144 244 111 228 78 196 c 256
 47 165 31 132 31 98 c 256
 31 71 41 47 61 28 c 256
 82 8 107 -1 135 -1 c 256
30 292 m 257
 396 524 l 257
 396 618 l 257
 30 380 l 257
 30 294 l 257
 30 292 l 257
EndSplineSet
PickledDataWithLists: "(dp1
S'com.adobe.type.autohint'
p2
(S'data'
S'<data>\\n  <hintSetList>\\n    <hintset pointTag=\"hr00\">\\n      <hstem pos=\"-1\" width=\"63\"/>\\n      <hstem pos=\"182\" width=\"62\"/>\\n      <vstem pos=\"31\" width=\"57\"/>\\n      <vstem pos=\"523\" width=\"51\"/>\\n    </hintset>\\n  </hintSetList>\\n  </data>'
Ntp3
s."
EndChar

StartChar: Pha
Encoding: 155 3115 155
GlifName: Pha_
Width: 597
VWidth: 0
Flags: W
LayerCount: 2
Back
Fore
SplineSet
30 292 m 257
NamedP: "hr00"
 396 524 l 257
 396 618 l 257
 30 380 l 257
 30 294 l 257
 30 292 l 257
NamedP: "hr00"
153 62 m 256
 137 62 122 69 109 84 c 257
 95 97 88 111 88 128 c 256
 88 143 93 155 102 165 c 256
 111 176 123 182 136 182 c 256
 143 182 149 179 156 173 c 256
 163 168 170 160 177 150 c 257
 226 98 l 257
 221 87 212 79 199 72 c 256
 186 65 170 62 153 62 c 256
135 -1 m 256
 154 -1 174 5 195 17 c 256
 215 28 234 44 251 65 c 257
 271 44 291 28 311 17 c 256
 332 5 350 -1 367 -1 c 256
 426 -1 476 22 515 67 c 256
 554 112 574 168 574 236 c 256
 574 279 559 319 528 355 c 256
 498 391 458 415 409 426 c 257
 334 358 l 257
 389 348 435 326 470 292 c 256
 505 258 523 219 523 176 c 256
 523 145 513 118 493 96 c 256
 473 73 449 62 421 62 c 256
 404 62 387 69 370 79 c 256
 352 90 336 103 319 122 c 258
 270 177 l 257
 255 198 240 215 224 226 c 256
 207 238 191 244 178 244 c 256
 144 244 111 228 78 196 c 256
 47 165 31 132 31 98 c 256
 31 71 41 47 61 28 c 256
 82 8 107 -1 135 -1 c 256
201 -208 m 257
 276 -158 l 257
 276 32 l 257
 201 -18 l 257
 201 -206 l 257
 201 -208 l 257
EndSplineSet
PickledDataWithLists: "(dp1
S'com.adobe.type.autohint'
p2
(S'data'
S'<data>\\n  <hintSetList>\\n    <hintset pointTag=\"hr00\">\\n      <hstem pos=\"-1\" width=\"63\"/>\\n      <hstem pos=\"182\" width=\"62\"/>\\n      <vstem pos=\"31\" width=\"57\"/>\\n      <vstem pos=\"201\" width=\"75\"/>\\n      <vstem pos=\"523\" width=\"51\"/>\\n    </hintset>\\n  </hintSetList>\\n  </data>'
Ntp3
s."
EndChar

StartChar: Ba
Encoding: 156 3116 156
GlifName: Ba_
Width: 626
VWidth: 0
Flags: W
LayerCount: 2
Back
Fore
SplineSet
145 280 m 256
NamedP: "hr00"
 132 280 121 286 111 299 c 257
 99 312 93 325 93 340 c 256
 93 352 96 362 103 369 c 256
 110 378 119 382 129 382 c 256
 140 382 151 376 161 363 c 256
 171 350 176 336 176 321 c 256
 176 310 173 300 168 292 c 256
 162 284 154 280 145 280 c 256
NamedP: "hr00"
183 5 m 256
 199 5 217 10 236 20 c 256
 256 31 275 46 292 65 c 257
 313 44 332 28 351 17 c 256
 372 5 390 -1 407 -1 c 256
 456 -1 501 19 542 60 c 256
 583 101 603 145 603 194 c 256
 603 251 580 305 531 354 c 256
 482 403 428 426 370 426 c 257
 320 352 l 257
 379 352 432 332 480 294 c 256
 528 256 553 215 553 170 c 256
 553 142 543 118 524 97 c 256
 505 77 483 67 456 67 c 256
 435 67 414 73 392 86 c 256
 371 99 350 118 329 141 c 257
 308 121 287 106 266 96 c 256
 245 85 226 80 207 80 c 256
 182 80 161 87 143 102 c 256
 126 117 117 136 117 158 c 256
 117 172 122 186 132 199 c 256
 142 213 155 225 172 235 c 257
 197 254 217 272 230 290 c 256
 244 309 251 325 251 340 c 256
 251 363 243 384 226 401 c 256
 209 418 188 426 165 426 c 256
 132 426 101 413 73 386 c 256
 44 359 30 329 30 298 c 256
 30 279 38 263 53 250 c 256
 69 237 87 230 107 230 c 257
 89 216 76 199 65 179 c 256
 55 160 49 140 49 121 c 256
 49 96 64 70 94 44 c 256
 125 17 154 5 183 5 c 256
EndSplineSet
PickledDataWithLists: "(dp1
S'com.adobe.type.autohint'
p2
(S'data'
S'<data>\\n  <hintSetList>\\n    <hintset pointTag=\"hr00\">\\n      <hstem pos=\"-1\" width=\"68\"/>\\n      <hstem pos=\"5\" width=\"75\"/>\\n      <hstem pos=\"230\" width=\"50\"/>\\n      <hstem pos=\"352\" width=\"74\"/>\\n      <hstem pos=\"382\" width=\"44\"/>\\n      <vstem pos=\"30\" width=\"63\"/>\\n      <vstem pos=\"49\" width=\"68\"/>\\n      <vstem pos=\"176\" width=\"75\"/>\\n      <vstem pos=\"553\" width=\"50\"/>\\n    </hintset>\\n  </hintSetList>\\n  </data>'
Ntp3
s."
EndChar

StartChar: Bha
Encoding: 157 3117 157
GlifName: Bha_
Width: 685
VWidth: 0
Flags: W
LayerCount: 2
Back
Fore
SplineSet
662 524 m 257
NamedP: "hr00"
 662 618 l 257
 369 441 l 257
 369 342 l 257
 384 352 l 257
 414 352 l 258
 452 352 484 336 511 304 c 256
 539 272 553 234 553 189 c 256
 553 155 543 127 524 104 c 256
 505 79 483 67 456 67 c 256
 435 67 414 73 392 86 c 256
 371 99 350 118 329 141 c 257
 308 121 287 106 266 96 c 256
 245 85 226 80 207 80 c 256
 182 80 161 87 143 102 c 256
 126 117 117 136 117 158 c 256
 117 172 122 186 132 199 c 256
 142 213 155 225 172 235 c 257
 197 254 217 272 230 290 c 256
 244 309 251 325 251 340 c 256
 251 363 243 384 226 401 c 256
 209 418 188 426 165 426 c 256
 132 426 101 413 73 386 c 256
 44 359 30 329 30 298 c 256
 30 279 38 263 53 250 c 256
 69 237 87 230 107 230 c 257
 89 216 76 199 65 179 c 256
 55 160 49 140 49 121 c 256
 49 96 64 70 94 44 c 256
 125 17 155 5 184 5 c 256
 199 5 217 10 236 20 c 256
 256 31 275 46 292 65 c 257
 313 44 332 28 351 17 c 256
 372 5 390 -1 407 -1 c 256
 456 -1 501 22 542 68 c 256
 583 115 603 165 603 219 c 256
 603 270 584 317 546 361 c 256
 525 385 503 402 481 412 c 257
 662 524 l 257
NamedP: "hr00"
255 -208 m 257
 330 -158 l 257
 330 32 l 257
 255 -18 l 257
 255 -208 l 257
168 292 m 256
 162 284 155 280 146 280 c 256
 133 280 121 286 111 299 c 257
 99 312 93 325 93 340 c 256
 93 352 96 362 103 369 c 256
 110 378 119 382 129 382 c 256
 140 382 151 376 161 363 c 256
 171 350 176 336 176 321 c 256
 176 310 173 300 168 292 c 256
EndSplineSet
PickledDataWithLists: "(dp1
S'com.adobe.type.autohint'
p2
(S'data'
S'<data>\\n  <hintSetList>\\n    <hintset pointTag=\"hr00\">\\n      <hstem pos=\"-1\" width=\"68\"/>\\n      <hstem pos=\"5\" width=\"75\"/>\\n      <hstem pos=\"230\" width=\"50\"/>\\n      <hstem pos=\"382\" width=\"44\"/>\\n      <vstem pos=\"30\" width=\"63\"/>\\n      <vstem pos=\"49\" width=\"68\"/>\\n      <vstem pos=\"176\" width=\"75\"/>\\n      <vstem pos=\"255\" width=\"75\"/>\\n      <vstem pos=\"553\" width=\"50\"/>\\n    </hintset>\\n  </hintSetList>\\n  </data>'
Ntp3
s."
EndChar

StartChar: Ma
Encoding: 158 3118 158
GlifName: Ma_
Width: 912
VWidth: 0
Flags: W
LayerCount: 2
Back
Fore
SplineSet
562 153 m 257
NamedP: "hr00"
 569 178 573 206 573 236 c 256
 573 289 548 334 498 371 c 256
 447 408 387 426 317 426 c 258
 295 426 l 257
 494 546 l 257
 494 640 l 257
 160 443 l 257
 160 344 l 257
 173 352 l 257
 317 352 l 258
 374 352 422 335 463 300 c 256
 503 266 523 225 523 176 c 256
 523 145 513 118 493 96 c 256
 472 73 448 62 420 62 c 256
 403 62 387 68 370 79 c 257
 351 89 334 103 318 122 c 258
 270 177 l 257
 255 198 239 215 223 226 c 256
 206 238 190 244 177 244 c 256
 143 244 110 228 78 196 c 256
 46 165 30 132 30 98 c 256
 30 71 40 47 60 28 c 256
 81 8 106 -1 135 -1 c 256
 154 -1 174 5 195 17 c 256
 215 28 233 44 250 65 c 257
 270 44 290 28 310 17 c 256
 331 5 349 -1 366 -1 c 256
 425 -1 475 22 515 67 c 256
 517 69 519 71 520 73 c 257
 531 55 546 40 563 27 c 256
 590 8 620 -1 651 -1 c 256
 710 -1 764 23 814 72 c 256
 864 121 889 174 889 231 c 256
 889 284 870 332 830 370 c 256
 791 408 743 426 687 426 c 257
 644 352 l 257
 695 352 738 335 773 300 c 256
 808 266 826 225 826 176 c 256
 826 145 813 119 788 96 c 256
 764 74 734 62 699 62 c 256
 667 62 637 73 609 96 c 256
 590 112 574 131 562 153 c 257
NamedP: "hr00"
199 72 m 256
 186 65 171 62 154 62 c 256
 137 62 123 69 108 84 c 256
 94 98 87 111 87 128 c 256
 87 143 92 155 101 165 c 256
 110 176 122 182 135 182 c 256
 142 182 148 179 155 173 c 256
 162 168 169 160 176 150 c 257
 225 98 l 257
 220 87 212 79 199 72 c 256
EndSplineSet
PickledDataWithLists: "(dp1
S'com.adobe.type.autohint'
p2
(S'data'
S'<data>\\n  <hintSetList>\\n    <hintset pointTag=\"hr00\">\\n      <hstem pos=\"-1\" width=\"63\"/>\\n      <hstem pos=\"182\" width=\"62\"/>\\n      <hstem pos=\"352\" width=\"74\"/>\\n      <vstem pos=\"30\" width=\"57\"/>\\n      <vstem pos=\"523\" width=\"50\"/>\\n      <vstem pos=\"826\" width=\"63\"/>\\n    </hintset>\\n  </hintSetList>\\n  </data>'
Ntp3
s."
EndChar

StartChar: Ya
Encoding: 159 3119 159
GlifName: Ya_
Width: 1086
VWidth: 0
Flags: W
LayerCount: 2
Back
Fore
SplineSet
547 352 m 258
NamedP: "hr00"
 589 352 625 335 654 300 c 256
 683 266 698 225 698 176 c 256
 698 145 687 118 668 96 c 256
 648 73 625 62 596 62 c 256
 571 62 547 71 522 90 c 256
 497 108 476 133 457 164 c 257
 461 171 464 182 466 195 c 256
 469 208 470 224 470 243 c 256
 470 288 449 330 408 369 c 256
 367 407 322 426 274 426 c 258
 214 426 l 257
 157 393 112 354 79 307 c 256
 46 260 30 212 30 164 c 256
 30 123 44 85 76 50 c 256
 107 16 142 -1 177 -1 c 258
 269 -1 l 258
 292 -1 317 7 342 22 c 256
 368 37 392 57 414 83 c 257
 431 57 454 37 481 22 c 256
 508 7 536 -1 566 -1 c 256
 615 -1 655 20 691 62 c 258
 697 69 l 257
 708 53 721 39 738 27 c 256
 765 8 794 -1 825 -1 c 256
 884 -1 939 23 988 72 c 256
 1038 121 1063 174 1063 231 c 256
 1063 284 1045 332 1005 370 c 256
 966 408 917 426 861 426 c 257
 818 352 l 257
 869 352 913 335 948 300 c 256
 983 266 1000 225 1000 176 c 256
 1000 145 988 118 963 96 c 256
 938 73 909 62 874 62 c 256
 841 62 811 73 783 96 c 256
 764 112 748 131 735 153 c 257
 740 172 742 192 742 213 c 256
 742 271 724 321 687 364 c 256
 665 389 641 406 614 415 c 257
 793 526 l 257
 793 620 l 257
 500 443 l 257
 500 344 l 257
 512 352 l 257
 547 352 l 258
NamedP: "hr00"
364 89 m 256
 336 63 302 50 262 50 c 256
 220 50 183 66 150 97 c 256
 117 129 100 165 100 206 c 256
 100 231 106 256 117 281 c 256
 129 306 145 330 165 352 c 257
 235 352 293 336 338 303 c 256
 383 271 406 231 406 183 c 256
 406 146 392 115 364 89 c 256
EndSplineSet
PickledDataWithLists: "(dp1
S'com.adobe.type.autohint'
p2
(S'data'
S'<data>\\n  <hintSetList>\\n    <hintset pointTag=\"hr00\">\\n      <hstem pos=\"-1\" width=\"51\"/>\\n      <hstem pos=\"-1\" width=\"63\"/>\\n      <hstem pos=\"352\" width=\"74\"/>\\n      <vstem pos=\"30\" width=\"70\"/>\\n      <vstem pos=\"406\" width=\"64\"/>\\n      <vstem pos=\"698\" width=\"44\"/>\\n      <vstem pos=\"1000\" width=\"63\"/>\\n    </hintset>\\n  </hintSetList>\\n  </data>'
Ntp3
s."
EndChar

StartChar: Ra
Encoding: 160 3120 160
GlifName: Ra_
Width: 493
VWidth: 0
Flags: W
LayerCount: 2
Back
Fore
SplineSet
462 533 m 257
NamedP: "hr00"
 462 627 l 257
 169 450 l 257
 169 398 l 257
 128 354 l 257
 97 333 73 305 56 270 c 256
 39 235 30 198 30 158 c 256
 30 119 49 82 88 49 c 256
 127 16 169 -1 214 -1 c 256
 281 -1 340 22 392 70 c 256
 445 118 470 175 470 236 c 256
 470 283 445 326 395 367 c 256
 358 396 321 414 282 421 c 257
 462 533 l 257
NamedP: "hr00"
361 92 m 256
 331 64 298 50 262 50 c 256
 215 50 176 67 146 100 c 256
 115 133 100 174 100 225 c 256
 100 251 103 275 113 298 c 256
 122 319 136 337 152 352 c 257
 214 352 l 258
 262 352 305 333 345 298 c 256
 385 262 406 224 406 183 c 256
 406 150 391 119 361 92 c 256
EndSplineSet
PickledDataWithLists: "(dp1
S'com.adobe.type.autohint'
p2
(S'data'
S'<data>\\n  <hintSetList>\\n    <hintset pointTag=\"hr00\">\\n      <hstem pos=\"-1\" width=\"51\"/>\\n      <vstem pos=\"30\" width=\"70\"/>\\n      <vstem pos=\"406\" width=\"64\"/>\\n    </hintset>\\n  </hintSetList>\\n  </data>'
Ntp3
s."
EndChar

StartChar: RRa
Encoding: 161 3121 161
GlifName: RRa_
Width: 620
VWidth: 0
Flags: W
LayerCount: 2
Back
Fore
SplineSet
151 280 m 256
NamedP: "hr00"
 142 280 134 285 127 294 c 256
 120 303 117 315 117 328 c 256
 117 336 120 343 125 349 c 256
 129 355 134 358 141 358 c 256
 151 358 159 353 166 344 c 256
 173 335 176 323 176 310 c 256
 176 302 174 295 169 289 c 256
 164 283 158 280 151 280 c 256
NamedP: "hr00"
425 -1 m 256
 468 -1 508 23 543 72 c 256
 579 121 597 174 597 231 c 256
 597 282 579 328 543 367 c 256
 507 406 466 426 420 426 c 256
 388 426 358 412 331 384 c 256
 304 355 291 324 291 291 c 256
 291 279 294 268 301 257 c 256
 308 246 316 237 325 232 c 257
 219 232 l 257
 175 163 l 257
 377 163 l 257
 441 232 l 257
 414 232 389 240 368 257 c 256
 347 273 336 291 336 310 c 256
 336 322 341 332 352 339 c 257
 362 348 375 352 390 352 c 256
 427 352 461 334 495 297 c 256
 528 261 546 223 546 183 c 256
 546 150 537 123 520 101 c 256
 503 78 481 67 456 67 c 256
 431 67 407 74 382 87 c 256
 359 100 339 118 322 142 c 257
 303 120 284 103 264 91 c 256
 245 80 226 74 207 74 c 256
 176 74 149 86 127 111 c 256
 104 136 93 165 93 200 c 256
 93 213 95 223 99 230 c 257
 106 226 112 223 117 222 c 257
 122 219 126 218 129 218 c 256
 154 218 181 234 210 267 c 256
 237 299 251 330 251 359 c 256
 251 377 245 393 233 406 c 256
 220 419 206 426 189 426 c 256
 153 426 118 399 83 345 c 256
 48 290 30 236 30 183 c 256
 30 138 45 96 76 57 c 256
 108 18 142 -1 177 -1 c 256
 193 -1 211 4 230 15 c 256
 247 26 264 41 280 60 c 257
 299 41 321 26 346 15 c 256
 372 4 398 -1 425 -1 c 256
EndSplineSet
PickledDataWithLists: "(dp1
S'com.adobe.type.autohint'
p2
(S'data'
S'<data>\\n  <hintSetList>\\n    <hintset pointTag=\"hr00\">\\n      <hstem pos=\"-1\" width=\"68\"/>\\n      <hstem pos=\"-1\" width=\"75\"/>\\n      <hstem pos=\"163\" width=\"69\"/>\\n      <hstem pos=\"218\" width=\"62\"/>\\n      <hstem pos=\"352\" width=\"74\"/>\\n      <hstem pos=\"358\" width=\"68\"/>\\n      <vstem pos=\"30\" width=\"63\"/>\\n      <vstem pos=\"176\" width=\"75\"/>\\n      <vstem pos=\"291\" width=\"45\"/>\\n      <vstem pos=\"546\" width=\"51\"/>\\n    </hintset>\\n  </hintSetList>\\n  </data>'
Ntp3
s."
EndChar

StartChar: La
Encoding: 162 3122 162
GlifName: La_
Width: 578
VWidth: 0
Flags: W
LayerCount: 2
Back
Fore
SplineSet
164 292 m 256
NamedP: "hr00"
 153 292 143 296 136 305 c 257
 127 312 123 322 123 334 c 256
 123 342 126 349 131 354 c 257
 135 360 140 363 146 363 c 256
 156 363 164 358 171 349 c 256
 179 340 183 329 183 316 c 256
 183 309 181 304 178 300 c 256
 174 295 169 292 164 292 c 256
NamedP: "hr00"
291 -1 m 256
 357 -1 417 29 472 90 c 256
 527 152 555 219 555 291 c 256
 555 327 545 358 525 385 c 256
 505 411 480 425 450 426 c 257
 399 358 l 257
 426 358 448 347 465 324 c 256
 482 302 491 275 491 243 c 256
 491 193 473 150 436 115 c 256
 400 80 356 62 305 62 c 256
 254 62 208 80 165 117 c 256
 122 153 100 193 100 236 c 256
 100 248 101 258 104 266 c 257
 113 258 122 252 129 248 c 256
 136 244 142 242 146 242 c 256
 172 242 199 254 225 280 c 256
 251 306 263 333 263 359 c 256
 263 377 256 393 242 406 c 256
 227 419 209 426 189 426 c 256
 150 426 113 406 80 367 c 256
 47 326 30 283 30 236 c 256
 30 175 56 118 110 70 c 256
 163 22 224 -1 291 -1 c 256
EndSplineSet
PickledDataWithLists: "(dp1
S'com.adobe.type.autohint'
p2
(S'data'
S'<data>\\n  <hintSetList>\\n    <hintset pointTag=\"hr00\">\\n      <hstem pos=\"-1\" width=\"63\"/>\\n      <hstem pos=\"242\" width=\"50\"/>\\n      <hstem pos=\"358\" width=\"68\"/>\\n      <hstem pos=\"363\" width=\"63\"/>\\n      <vstem pos=\"30\" width=\"70\"/>\\n      <vstem pos=\"183\" width=\"80\"/>\\n      <vstem pos=\"491\" width=\"64\"/>\\n    </hintset>\\n  </hintSetList>\\n  </data>'
Ntp3
s."
EndChar

StartChar: LLa
Encoding: 163 3123 163
GlifName: LLa_
Width: 545
VWidth: 0
Flags: W
LayerCount: 2
Back
Fore
SplineSet
522 525 m 257
NamedP: "hr00"
 522 619 l 257
 229 442 l 257
 229 343 l 257
 243 352 l 257
 359 352 l 258
 369 352 377 349 384 344 c 256
 391 339 394 334 394 328 c 256
 394 319 391 312 384 305 c 256
 377 298 369 291 359 286 c 258
 274 244 l 257
 146 286 l 258
 136 289 129 293 126 296 c 257
 120 299 117 302 117 304 c 256
 117 307 118 310 121 312 c 257
 122 314 125 315 128 315 c 257
 127 320 123 323 116 326 c 256
 111 328 105 329 97 329 c 256
 85 329 71 322 54 305 c 256
 37 288 30 274 30 261 c 256
 30 256 35 248 46 239 c 257
 58 232 73 225 91 218 c 258
 168 189 l 257
 153 177 142 163 134 146 c 257
 125 131 121 115 121 98 c 256
 121 71 135 47 163 28 c 256
 190 9 223 -1 261 -1 c 256
 297 -1 331 14 362 45 c 256
 393 77 408 111 408 146 c 256
 408 163 400 179 385 195 c 257
 368 210 348 220 325 225 c 257
 395 267 l 257
 418 278 436 291 448 308 c 256
 461 325 468 342 468 359 c 256
 468 377 461 393 446 406 c 256
 429 419 410 426 389 426 c 258
 362 426 l 257
 522 525 l 257
NamedP: "hr00"
323 75 m 257
 314 66 301 62 286 62 c 256
 262 62 239 70 217 84 c 256
 194 99 183 113 183 128 c 256
 183 139 186 148 193 157 c 256
 200 165 208 171 219 175 c 257
 280 150 l 258
 298 143 312 136 323 128 c 256
 334 119 339 111 339 104 c 256
 339 93 334 83 323 75 c 257
EndSplineSet
PickledDataWithLists: "(dp1
S'com.adobe.type.autohint'
p2
(S'data'
S'<data>\\n  <hintSetList>\\n    <hintset pointTag=\"hr00\">\\n      <hstem pos=\"-1\" width=\"63\"/>\\n      <hstem pos=\"315\" width=\"14\"/>\\n      <hstem pos=\"352\" width=\"74\"/>\\n      <vstem pos=\"30\" width=\"492\"/>\\n      <vstem pos=\"121\" width=\"62\"/>\\n      <vstem pos=\"339\" width=\"69\"/>\\n    </hintset>\\n  </hintSetList>\\n  </data>'
Ntp3
s."
EndChar

StartChar: uni0C34
Encoding: 164 3124 164
GlifName: uni0C34_
Width: 620
VWidth: 0
Flags: W
LayerCount: 2
Back
Fore
SplineSet
533 244 m 257
NamedP: "hr00"
 542 225 546 204 546 183 c 256
 546 150 537 123 520 101 c 256
 503 78 481 67 456 67 c 256
 431 67 407 74 382 87 c 256
 359 100 339 118 322 142 c 257
 303 120 284 103 264 91 c 256
 245 80 226 74 207 74 c 256
 176 74 149 86 127 111 c 256
 104 136 93 165 93 200 c 256
 93 213 95 223 99 230 c 257
 106 226 112 223 117 222 c 257
 122 219 126 218 129 218 c 256
 154 218 181 234 210 267 c 256
 237 299 251 330 251 359 c 256
 251 377 245 393 233 406 c 256
 220 419 206 426 189 426 c 256
 153 426 118 399 83 345 c 256
 48 290 30 236 30 183 c 256
 30 138 45 96 76 57 c 256
 108 18 142 -1 177 -1 c 256
 193 -1 211 4 230 15 c 256
 247 26 264 41 280 60 c 257
 299 41 321 26 346 15 c 256
 372 4 399 -1 426 -1 c 256
 469 -1 508 23 543 72 c 256
 579 121 597 174 597 231 c 256
 597 282 579 328 543 367 c 256
 507 406 466 426 420 426 c 256
 388 426 358 412 331 384 c 256
 304 355 291 324 291 291 c 256
 291 279 294 268 301 257 c 256
 308 246 317 237 328 230 c 256
 355 212 389 205 430 210 c 256
 469 215 504 226 533 244 c 257
NamedP: "hr00"
169 289 m 256
 164 283 159 280 152 280 c 256
 142 280 134 285 127 294 c 256
 120 303 117 315 117 328 c 256
 117 336 120 343 125 349 c 256
 129 355 134 358 141 358 c 256
 151 358 159 353 166 344 c 256
 173 335 176 323 176 310 c 256
 176 302 174 295 169 289 c 256
507 282 m 257
 436 249 390 240 368 257 c 256
 347 273 336 291 336 310 c 256
 336 322 341 332 352 339 c 257
 362 348 375 352 390 352 c 256
 427 352 462 334 495 297 c 256
 500 292 504 287 507 282 c 257
EndSplineSet
PickledDataWithLists: "(dp1
S'com.adobe.type.autohint'
p2
(S'data'
S'<data>\\n  <hintSetList>\\n    <hintset pointTag=\"hr00\">\\n      <hstem pos=\"-1\" width=\"68\"/>\\n      <hstem pos=\"-1\" width=\"75\"/>\\n      <hstem pos=\"210\" width=\"39\"/>\\n      <hstem pos=\"218\" width=\"62\"/>\\n      <hstem pos=\"352\" width=\"74\"/>\\n      <hstem pos=\"358\" width=\"68\"/>\\n      <vstem pos=\"30\" width=\"63\"/>\\n      <vstem pos=\"176\" width=\"75\"/>\\n      <vstem pos=\"291\" width=\"45\"/>\\n      <vstem pos=\"546\" width=\"51\"/>\\n    </hintset>\\n  </hintSetList>\\n  </data>'
Ntp3
s."
EndChar

StartChar: Va
Encoding: 165 3125 165
GlifName: Va_
Width: 596
VWidth: 0
Flags: W
LayerCount: 2
Back
Fore
SplineSet
317 352 m 258
NamedP: "hr00"
 374 352 422 335 463 300 c 256
 503 266 523 225 523 176 c 256
 523 145 513 118 493 96 c 256
 472 73 448 62 420 62 c 256
 403 62 387 68 370 79 c 257
 351 89 334 103 318 122 c 258
 270 177 l 257
 255 198 239 215 223 226 c 256
 206 238 190 244 177 244 c 256
 143 244 110 228 78 196 c 256
 46 165 30 132 30 98 c 256
 30 71 40 47 60 28 c 256
 81 8 106 -1 135 -1 c 256
 154 -1 174 5 195 17 c 256
 215 28 233 44 250 65 c 257
 270 44 290 28 310 17 c 256
 331 5 349 -1 366 -1 c 256
 425 -1 475 22 515 67 c 256
 554 112 573 168 573 236 c 256
 573 289 548 334 498 371 c 256
 447 408 387 426 317 426 c 258
 295 426 l 257
 494 546 l 257
 494 640 l 257
 160 443 l 257
 160 344 l 257
 173 352 l 257
 317 352 l 258
NamedP: "hr00"
199 72 m 256
 186 65 171 62 154 62 c 256
 137 62 123 69 108 84 c 256
 94 98 87 111 87 128 c 256
 87 143 92 155 101 165 c 256
 110 176 122 182 135 182 c 256
 142 182 148 179 155 173 c 256
 162 168 169 160 176 150 c 257
 225 98 l 257
 220 87 212 79 199 72 c 256
EndSplineSet
PickledDataWithLists: "(dp1
S'com.adobe.type.autohint'
p2
(S'data'
S'<data>\\n  <hintSetList>\\n    <hintset pointTag=\"hr00\">\\n      <hstem pos=\"-1\" width=\"63\"/>\\n      <hstem pos=\"182\" width=\"62\"/>\\n      <hstem pos=\"352\" width=\"74\"/>\\n      <vstem pos=\"30\" width=\"57\"/>\\n      <vstem pos=\"523\" width=\"50\"/>\\n    </hintset>\\n  </hintSetList>\\n  </data>'
Ntp3
s."
EndChar

StartChar: Sha
Encoding: 166 3126 166
GlifName: Sha_
Width: 517
VWidth: 0
Flags: W
LayerCount: 2
Back
Fore
SplineSet
494 546 m 257
NamedP: "hr00"
 494 640 l 257
 160 443 l 257
 160 344 l 257
 173 352 l 257
 335 352 l 258
 346 352 356 349 364 344 c 256
 372 339 376 334 376 328 c 256
 376 319 371 309 361 299 c 256
 352 289 340 279 324 269 c 257
 311 276 296 280 281 280 c 256
 226 280 170 257 114 209 c 256
 57 161 30 113 30 66 c 256
 30 52 33 39 40 27 c 256
 47 16 57 8 69 5 c 257
 149 66 l 257
 138 71 129 79 122 89 c 256
 115 98 112 109 112 121 c 256
 112 146 122 169 143 190 c 256
 165 213 185 224 207 224 c 256
 212 224 218 223 224 220 c 257
 229 219 233 216 237 213 c 257
 222 200 210 185 201 166 c 256
 193 148 189 129 189 109 c 256
 189 82 204 57 233 33 c 256
 262 10 294 -1 329 -1 c 256
 361 -1 393 13 425 43 c 256
 455 72 470 102 470 134 c 256
 470 151 464 167 452 184 c 256
 441 201 424 214 402 226 c 258
 349 255 l 257
 385 278 l 258
 405 291 423 303 435 320 c 256
 447 337 452 354 452 370 c 256
 452 385 447 399 436 410 c 256
 425 421 411 426 396 426 c 258
 295 426 l 257
 494 546 l 257
NamedP: "hr00"
391 79 m 257
 381 71 369 67 354 67 c 256
 326 67 301 75 280 92 c 256
 257 109 245 127 245 146 c 256
 245 158 247 168 251 176 c 256
 256 185 262 190 269 193 c 257
 354 150 l 258
 370 142 383 134 393 125 c 257
 403 118 408 111 408 104 c 256
 408 95 402 86 391 79 c 257
EndSplineSet
PickledDataWithLists: "(dp1
S'com.adobe.type.autohint'
p2
(S'data'
S'<data>\\n  <hintSetList>\\n    <hintset pointTag=\"hr00\">\\n      <hstem pos=\"-1\" width=\"68\"/>\\n      <hstem pos=\"224\" width=\"56\"/>\\n      <hstem pos=\"352\" width=\"74\"/>\\n      <vstem pos=\"30\" width=\"82\"/>\\n      <vstem pos=\"189\" width=\"56\"/>\\n      <vstem pos=\"408\" width=\"62\"/>\\n    </hintset>\\n  </hintSetList>\\n  </data>'
Ntp3
s."
EndChar

StartChar: SSa
Encoding: 167 3127 167
GlifName: SSa_
Width: 588
VWidth: 0
Flags: W
LayerCount: 2
Back
Fore
SplineSet
30 292 m 257
NamedP: "hr00"
 396 524 l 257
 396 618 l 257
 30 380 l 257
 30 294 l 257
 30 292 l 257
NamedP: "hr00"
163 62 m 256
 141 62 124 70 108 84 c 256
 93 98 85 114 85 134 c 256
 85 147 89 159 97 168 c 256
 105 177 115 182 126 182 c 256
 133 182 140 179 149 172 c 257
 159 166 168 156 180 145 c 258
 229 98 l 257
 225 87 217 79 206 72 c 256
 193 65 179 62 163 62 c 256
490 -208 m 257
 565 -146 l 257
 565 219 l 258
 565 270 548 318 510 361 c 256
 472 405 430 426 386 426 c 257
 343 352 l 257
 389 352 431 334 469 298 c 256
 507 263 526 224 526 183 c 256
 526 150 516 121 496 97 c 256
 476 74 452 62 424 62 c 256
 407 62 390 69 373 79 c 256
 355 90 338 103 322 122 c 258
 267 184 l 257
 254 203 240 217 226 227 c 256
 211 238 198 244 187 244 c 256
 152 244 117 230 86 199 c 256
 54 168 40 133 40 98 c 256
 40 71 50 47 70 28 c 256
 91 8 116 -1 145 -1 c 256
 165 -1 185 4 205 15 c 256
 226 26 244 41 260 59 c 257
 276 41 294 26 315 15 c 256
 335 4 355 -1 376 -1 c 256
 419 -1 457 11 490 34 c 257
 490 -206 l 257
 490 -208 l 257
EndSplineSet
PickledDataWithLists: "(dp1
S'com.adobe.type.autohint'
p2
(S'data'
S'<data>\\n  <hintSetList>\\n    <hintset pointTag=\"hr00\">\\n      <hstem pos=\"-1\" width=\"63\"/>\\n      <hstem pos=\"352\" width=\"74\"/>\\n      <vstem pos=\"40\" width=\"45\"/>\\n      <vstem pos=\"490\" width=\"75\"/>\\n    </hintset>\\n  </hintSetList>\\n  </data>'
Ntp3
s."
EndChar

StartChar: Sa
Encoding: 168 3128 168
GlifName: Sa_
Width: 613
VWidth: 0
Flags: W
LayerCount: 2
Back
Fore
SplineSet
31 292 m 257
NamedP: "hr00"
 397 524 l 257
 397 618 l 257
 31 380 l 257
 31 294 l 257
 31 292 l 257
NamedP: "hr00"
49 49 m 257
 49 4 43 -30 30 -51 c 257
 123 -13 l 257
 127 -1 129 28 129 73 c 258
 129 151 l 258
 129 160 132 167 138 173 c 256
 145 179 152 182 160 182 c 256
 169 182 180 176 195 163 c 256
 207 151 224 133 245 108 c 256
 274 74 303 47 333 28 c 256
 364 9 393 -1 420 -1 c 256
 461 -1 499 23 536 70 c 256
 573 119 591 168 591 219 c 256
 591 270 573 317 537 361 c 256
 501 404 462 426 420 426 c 257
 358 352 l 257
 404 352 446 335 485 297 c 256
 522 260 541 219 541 176 c 256
 541 145 533 118 517 96 c 256
 500 73 480 62 457 62 c 256
 437 62 414 70 388 87 c 256
 363 104 337 127 312 159 c 256
 292 185 273 206 254 221 c 256
 235 236 218 244 202 244 c 256
 174 244 140 227 101 192 c 256
 62 158 42 129 42 104 c 257
 49 49 l 257
EndSplineSet
PickledDataWithLists: "(dp1
S'com.adobe.type.autohint'
p2
(S'data'
S'<data>\\n  <hintSetList>\\n    <hintset pointTag=\"hr00\">\\n      <hstem pos=\"-1\" width=\"63\"/>\\n      <hstem pos=\"182\" width=\"62\"/>\\n      <hstem pos=\"352\" width=\"74\"/>\\n      <vstem pos=\"49\" width=\"80\"/>\\n      <vstem pos=\"541\" width=\"50\"/>\\n    </hintset>\\n  </hintSetList>\\n  </data>'
Ntp3
s."
EndChar

StartChar: Ha
Encoding: 169 3129 169
GlifName: Ha_
Width: 964
VWidth: 0
Flags: W
LayerCount: 2
Back
Fore
SplineSet
30 292 m 257
NamedP: "hr00"
 396 524 l 257
 396 618 l 257
 30 380 l 257
 30 294 l 257
 30 292 l 257
NamedP: "hr00"
794 177 m 256
 768 177 746 185 727 200 c 256
 708 215 698 234 698 255 c 256
 698 279 708 301 727 320 c 256
 747 341 766 352 789 352 c 256
 816 352 838 342 856 323 c 256
 875 304 885 282 885 255 c 256
 885 234 876 215 859 200 c 256
 841 185 819 177 794 177 c 256
174 74 m 256
 151 74 132 81 116 95 c 256
 99 109 91 126 91 146 c 256
 91 158 96 168 105 175 c 257
 114 184 126 188 139 188 c 256
 144 188 151 185 159 179 c 256
 167 174 176 167 186 157 c 258
 241 104 l 257
 236 95 227 87 216 82 c 256
 203 77 189 74 174 74 c 256
131 -1 m 256
 160 -1 187 4 211 15 c 256
 236 26 256 41 272 59 c 257
 288 41 306 26 327 15 c 256
 347 4 367 -1 387 -1 c 256
 438 -1 485 18 525 60 c 256
 565 101 583 147 583 200 c 256
 583 230 578 258 567 285 c 256
 556 312 542 334 523 352 c 257
 724 352 l 257
 699 335 679 314 664 291 c 256
 649 267 641 243 641 219 c 256
 641 189 652 162 676 140 c 256
 700 118 731 108 764 108 c 256
 805 108 844 128 883 167 c 256
 923 208 941 249 941 291 c 256
 941 328 928 360 903 387 c 256
 878 413 847 426 812 426 c 258
 345 426 l 257
 283 352 l 257
 349 352 407 332 456 293 c 256
 507 254 533 209 533 158 c 256
 533 133 523 111 504 94 c 256
 485 76 463 67 436 67 c 256
 416 67 396 72 377 82 c 256
 360 91 343 105 328 122 c 258
 273 184 l 257
 260 203 245 216 228 227 c 256
 212 237 196 244 181 244 c 256
 146 244 114 228 84 196 c 256
 55 164 40 129 40 91 c 256
 40 66 49 44 66 25 c 257
 85 8 107 -1 131 -1 c 256
EndSplineSet
PickledDataWithLists: "(dp1
S'com.adobe.type.autohint'
p2
(S'data'
S'<data>\\n  <hintSetList>\\n    <hintset pointTag=\"hr00\">\\n      <hstem pos=\"-1\" width=\"68\"/>\\n      <hstem pos=\"-1\" width=\"75\"/>\\n      <hstem pos=\"108\" width=\"69\"/>\\n      <hstem pos=\"188\" width=\"56\"/>\\n      <hstem pos=\"352\" width=\"74\"/>\\n      <vstem pos=\"40\" width=\"51\"/>\\n      <vstem pos=\"533\" width=\"50\"/>\\n      <vstem pos=\"641\" width=\"57\"/>\\n      <vstem pos=\"885\" width=\"56\"/>\\n    </hintset>\\n  </hintSetList>\\n  </data>'
Ntp3
s."
EndChar

StartChar: Avagraha
Encoding: 170 3133 170
GlifName: Avagraha_
Width: 734
VWidth: 0
Flags: W
LayerCount: 2
Back
Fore
SplineSet
674 -1 m 257
NamedP: "hr00"
 735 71 l 257
 133 71 l 257
 126 77 120 82 116 87 c 256
 112 92 110 97 110 100 c 256
 110 113 122 126 146 141 c 256
 168 156 198 169 237 180 c 256
 282 193 318 210 347 232 c 256
 375 254 389 276 389 298 c 256
 389 328 379 354 360 377 c 256
 341 398 317 409 290 409 c 258
 196 409 l 258
 159 409 124 394 92 363 c 256
 60 332 44 299 44 263 c 256
 44 253 46 243 51 234 c 256
 56 223 63 212 74 203 c 257
 157 251 l 257
 148 260 140 268 135 276 c 256
 130 285 128 295 128 304 c 256
 128 325 136 342 153 357 c 256
 170 371 190 378 214 378 c 256
 241 378 264 370 283 353 c 256
 302 336 312 316 312 292 c 256
 312 274 300 258 276 240 c 256
 253 223 222 209 184 199 c 256
 143 189 108 171 82 145 c 256
 56 119 44 89 44 59 c 256
 44 47 47 35 54 24 c 256
 60 14 68 6 79 -1 c 257
 674 -1 l 257
NamedP: "hr00"
EndSplineSet
PickledDataWithLists: "(dp1
S'com.adobe.type.autohint'
p2
(S'data'
S'<data>\\n  <hintSetList>\\n    <hintset pointTag=\"hr00\">\\n      <hstem pos=\"-1\" width=\"72\"/>\\n      <hstem pos=\"378\" width=\"31\"/>\\n      <vstem pos=\"44\" width=\"84\"/>\\n      <vstem pos=\"44\" width=\"66\"/>\\n      <vstem pos=\"312\" width=\"77\"/>\\n    </hintset>\\n  </hintSetList>\\n  </data>'
Ntp3
s."
EndChar

StartChar: AAMatra
Encoding: 171 3134 171
GlifName: AAMatra_
Width: 664
VWidth: 0
Flags: W
LayerCount: 2
Back
Fore
SplineSet
502 170 m 256
NamedP: "hr00"
 478 170 457 177 438 192 c 256
 420 207 411 224 411 245 c 256
 411 264 420 284 438 305 c 256
 457 326 475 337 491 337 c 256
 518 337 542 329 562 313 c 256
 581 298 590 279 590 257 c 256
 590 233 583 212 566 195 c 256
 548 177 527 170 502 170 c 256
NamedP: "hr00"
356 198 m 256
 356 173 368 150 391 131 c 256
 414 112 441 103 473 103 c 256
 512 103 550 122 585 160 c 256
 620 199 638 239 638 280 c 256
 638 315 626 345 600 372 c 256
 575 397 545 409 509 409 c 258
 -202 409 l 257
 -226 337 l 257
 435 337 l 257
 412 324 394 305 379 278 c 256
 365 253 356 227 356 198 c 256
EndSplineSet
PickledDataWithLists: "(dp1
S'com.adobe.type.autohint'
p2
(S'data'
S'<data>\\n  <hintSetList>\\n    <hintset pointTag=\"hr00\">\\n      <hstem pos=\"103\" width=\"67\"/>\\n      <hstem pos=\"337\" width=\"72\"/>\\n      <vstem pos=\"356\" width=\"55\"/>\\n      <vstem pos=\"590\" width=\"48\"/>\\n    </hintset>\\n  </hintSetList>\\n  </data>'
Ntp3
s."
EndChar

StartChar: Imatra
Encoding: 172 3135 172
GlifName: Imatra_
Width: 0
VWidth: 0
Flags: W
LayerCount: 2
Back
Fore
SplineSet
11 513 m 256
NamedP: "hr00"
 -7 513 -25 522 -44 539 c 256
 -63 556 -73 572 -73 589 c 256
 -73 595 -70 600 -64 604 c 256
 -57 609 -48 611 -39 611 c 256
 -21 611 -2 603 18 587 c 256
 37 572 47 557 47 542 c 256
 47 534 44 527 37 522 c 256
 30 516 22 513 11 513 c 256
NamedP: "hr00"
0 342 m 256
 37 342 71 360 104 397 c 256
 137 435 154 473 154 512 c 256
 154 546 142 577 119 606 c 256
 96 634 70 648 42 648 c 258
 -33 648 l 258
 -56 648 -77 638 -97 618 c 256
 -118 597 -128 576 -128 553 c 256
 -128 533 -116 512 -92 491 c 256
 -69 470 -46 460 -23 460 c 256
 0 460 22 464 41 475 c 256
 59 485 73 499 83 516 c 257
 86 512 88 506 90 499 c 256
 92 491 93 482 93 472 c 256
 93 454 87 440 75 428 c 256
 62 415 48 409 30 409 c 256
 9 409 -9 413 -26 420 c 256
 -43 427 -55 437 -62 450 c 257
 -134 402 l 257
 -121 383 -103 368 -79 358 c 256
 -55 347 -29 342 0 342 c 256
EndSplineSet
PickledDataWithLists: "(dp1
S'com.adobe.type.autohint'
p2
(S'data'
S'<data>\\n  <hintSetList>\\n    <hintset pointTag=\"hr00\">\\n      <hstem pos=\"342\" width=\"67\"/>\\n      <hstem pos=\"460\" width=\"53\"/>\\n      <hstem pos=\"611\" width=\"37\"/>\\n      <vstem pos=\"-128\" width=\"55\"/>\\n      <vstem pos=\"93\" width=\"61\"/>\\n    </hintset>\\n  </hintSetList>\\n  </data>'
Ntp3
s."
EndChar

StartChar: IIMatra
Encoding: 173 3136 173
GlifName: IIMatra_
Width: 0
VWidth: 0
Flags: W
LayerCount: 2
Back
Fore
SplineSet
11 509 m 256
NamedP: "hr00"
 -7 509 -25 517 -44 534 c 256
 -63 550 -73 566 -73 583 c 256
 -73 589 -70 594 -64 598 c 256
 -57 603 -48 605 -39 605 c 256
 -21 605 -2 597 18 581 c 256
 37 566 47 551 47 536 c 256
 47 529 44 522 37 517 c 256
 30 512 22 509 11 509 c 256
NamedP: "hr00"
0 342 m 256
 37 342 71 360 104 395 c 256
 138 432 154 469 154 508 c 256
 154 541 142 571 119 600 c 256
 96 628 70 642 42 642 c 256
 34 642 24 647 13 656 c 256
 2 665 -4 674 -4 682 c 256
 -4 687 -2 691 1 694 c 256
 4 697 8 699 12 699 c 256
 19 699 27 696 35 689 c 257
 44 684 52 675 59 663 c 257
 114 722 l 257
 105 734 94 743 79 749 c 256
 65 755 49 758 30 758 c 256
 14 758 -4 748 -23 727 c 256
 -42 706 -52 688 -52 671 c 256
 -52 666 -50 661 -47 656 c 256
 -44 650 -40 645 -36 642 c 257
 -57 642 -78 632 -97 613 c 256
 -118 593 -128 571 -128 548 c 256
 -128 527 -116 506 -92 485 c 256
 -69 464 -46 454 -23 454 c 256
 0 454 22 458 41 469 c 256
 59 479 73 493 83 510 c 257
 86 506 88 500 90 493 c 256
 92 485 93 476 93 467 c 256
 93 451 87 437 75 426 c 256
 63 415 48 409 30 409 c 256
 9 409 -11 412 -28 419 c 256
 -45 425 -56 433 -62 444 c 257
 -134 396 l 257
 -122 379 -104 367 -80 357 c 256
 -57 348 -30 342 0 342 c 256
EndSplineSet
PickledDataWithLists: "(dp1
S'com.adobe.type.autohint'
p2
(S'data'
S'<data>\\n  <hintSetList>\\n    <hintset pointTag=\"hr00\">\\n      <hstem pos=\"342\" width=\"67\"/>\\n      <hstem pos=\"454\" width=\"55\"/>\\n      <hstem pos=\"605\" width=\"37\"/>\\n      <hstem pos=\"699\" width=\"59\"/>\\n      <vstem pos=\"-128\" width=\"55\"/>\\n      <vstem pos=\"-52\" width=\"48\"/>\\n      <vstem pos=\"93\" width=\"61\"/>\\n    </hintset>\\n  </hintSetList>\\n  </data>'
Ntp3
s."
EndChar

StartChar: UMatra
Encoding: 174 3137 174
GlifName: UMatra_
Width: 290
VWidth: 0
Flags: W
LayerCount: 2
Back
Fore
SplineSet
32 -1 m 256
NamedP: "hr00"
 91 -1 143 22 190 69 c 256
 238 116 262 167 262 222 c 256
 262 273 243 318 206 355 c 256
 169 391 123 409 69 409 c 257
 27 337 l 257
 76 337 118 321 151 288 c 256
 185 255 202 216 202 169 c 256
 202 139 190 113 166 92 c 256
 143 71 114 60 80 60 c 256
 49 60 20 71 -6 92 c 256
 -33 115 -54 145 -67 182 c 257
 -108 98 l 257
 -95 68 -75 44 -49 25 c 256
 -24 8 3 -1 32 -1 c 256
NamedP: "hr00"
EndSplineSet
PickledDataWithLists: "(dp1
S'com.adobe.type.autohint'
p2
(S'data'
S'<data>\\n  <hintSetList>\\n    <hintset pointTag=\"hr00\">\\n      <hstem pos=\"-1\" width=\"61\"/>\\n      <hstem pos=\"337\" width=\"72\"/>\\n      <vstem pos=\"202\" width=\"60\"/>\\n    </hintset>\\n  </hintSetList>\\n  </data>'
Ntp3
s."
EndChar

StartChar: UUMatra
Encoding: 175 3138 175
GlifName: UUMatra_
Width: 610
VWidth: 0
Flags: W
LayerCount: 2
Back
Fore
SplineSet
458 176 m 256
NamedP: "hr00"
 433 176 412 184 394 200 c 256
 376 215 367 234 367 257 c 256
 367 279 374 298 386 313 c 256
 399 329 412 337 429 337 c 256
 456 337 479 327 500 307 c 257
 523 289 534 268 534 245 c 256
 534 226 527 211 512 197 c 256
 498 184 480 176 458 176 c 256
NamedP: "hr00"
44 -1 m 256
 99 -1 149 21 194 65 c 256
 239 110 262 158 262 210 c 256
 262 231 257 252 246 275 c 256
 235 298 219 318 200 337 c 257
 381 337 l 257
 356 321 337 301 323 276 c 256
 308 251 301 225 301 198 c 256
 301 173 313 150 337 131 c 256
 362 112 391 103 425 103 c 256
 464 103 501 124 536 165 c 256
 571 206 589 248 589 292 c 256
 589 324 575 352 548 375 c 256
 519 398 486 409 447 409 c 258
 57 409 l 257
 9 337 l 257
 45 337 l 258
 87 337 122 320 151 286 c 256
 181 252 196 211 196 163 c 256
 196 134 186 110 167 90 c 256
 148 70 124 60 97 60 c 256
 58 60 23 72 -8 95 c 256
 -40 118 -63 149 -77 188 c 257
 -108 116 l 257
 -92 81 -71 51 -43 30 c 256
 -15 8 15 -1 44 -1 c 256
EndSplineSet
PickledDataWithLists: "(dp1
S'com.adobe.type.autohint'
p2
(S'data'
S'<data>\\n  <hintSetList>\\n    <hintset pointTag=\"hr00\">\\n      <hstem pos=\"-1\" width=\"61\"/>\\n      <hstem pos=\"103\" width=\"73\"/>\\n      <hstem pos=\"337\" width=\"72\"/>\\n      <vstem pos=\"196\" width=\"66\"/>\\n      <vstem pos=\"301\" width=\"66\"/>\\n      <vstem pos=\"534\" width=\"55\"/>\\n    </hintset>\\n  </hintSetList>\\n  </data>'
Ntp3
s."
EndChar

StartChar: RMatra
Encoding: 176 3139 176
GlifName: RMatra_
Width: 225
VWidth: 0
Flags: W
LayerCount: 2
Back
Fore
SplineSet
-2 -222 m 256
NamedP: "hr00"
 -15 -222 -28 -216 -39 -205 c 257
 -51 -195 -57 -183 -57 -170 c 256
 -57 -164 -54 -159 -49 -156 c 257
 -44 -151 -37 -149 -29 -149 c 256
 -16 -149 -5 -154 6 -165 c 256
 17 -176 22 -187 22 -200 c 256
 22 -207 20 -212 15 -215 c 257
 11 -220 5 -222 -2 -222 c 256
NamedP: "hr00"
243 -130 m 256
 243 -72 232 -16 206 37 c 256
 179 92 142 140 93 180 c 257
 7 144 l 257
 64 103 108 53 139 -4 c 256
 170 -61 186 -121 186 -184 c 256
 186 -221 172 -250 146 -276 c 256
 119 -302 89 -316 52 -316 c 256
 23 -316 -1 -311 -22 -299 c 256
 -42 -288 -52 -274 -52 -260 c 257
 -48 -264 -42 -267 -35 -270 c 256
 -29 -272 -22 -273 -15 -273 c 256
 6 -273 25 -264 42 -246 c 257
 57 -226 65 -203 65 -176 c 256
 65 -154 57 -135 42 -118 c 256
 27 -102 9 -94 -13 -94 c 256
 -38 -94 -64 -107 -86 -136 c 256
 -108 -164 -118 -196 -118 -229 c 256
 -118 -269 -104 -305 -74 -333 c 256
 -44 -362 -7 -375 34 -375 c 256
 81 -375 127 -348 174 -294 c 256
 221 -238 243 -183 243 -130 c 256
EndSplineSet
PickledDataWithLists: "(dp1
S'com.adobe.type.autohint'
p2
(S'data'
S'<data>\\n  <hintSetList>\\n    <hintset pointTag=\"hr00\">\\n      <hstem pos=\"-375\" width=\"59\"/>\\n      <hstem pos=\"-273\" width=\"51\"/>\\n      <hstem pos=\"-149\" width=\"55\"/>\\n      <vstem pos=\"-118\" width=\"66\"/>\\n      <vstem pos=\"22\" width=\"43\"/>\\n      <vstem pos=\"186\" width=\"57\"/>\\n    </hintset>\\n  </hintSetList>\\n  </data>'
Ntp3
s."
EndChar

StartChar: RRMatra
Encoding: 177 3140 177
GlifName: RRMatra_
Width: 463
VWidth: 0
Flags: W
LayerCount: 2
Back
Fore
SplineSet
372 9 m 256
NamedP: "hr00"
 359 9 347 14 336 25 c 256
 326 35 321 47 321 60 c 256
 321 69 324 77 329 84 c 256
 334 91 341 94 349 94 c 256
 363 94 375 89 385 78 c 257
 395 69 400 58 400 43 c 256
 400 34 397 26 392 19 c 256
 387 12 381 9 372 9 c 256
NamedP: "hr00"
-14 -222 m 256
 -27 -222 -40 -216 -51 -205 c 257
 -63 -195 -69 -183 -69 -170 c 256
 -69 -164 -66 -159 -61 -156 c 257
 -56 -151 -49 -149 -41 -149 c 256
 -28 -149 -17 -154 -6 -165 c 256
 5 -176 10 -187 10 -200 c 256
 10 -207 8 -212 3 -215 c 257
 -1 -220 -7 -222 -14 -222 c 256
231 -130 m 256
 231 -90 222 -49 201 -7 c 256
 180 36 151 75 112 112 c 257
 317 112 l 257
 302 102 289 89 280 74 c 256
 271 57 266 41 266 25 c 256
 266 6 274 -12 290 -25 c 256
 307 -39 326 -45 349 -45 c 256
 374 -45 397 -34 418 -11 c 256
 439 13 449 39 449 66 c 256
 449 95 438 120 417 141 c 256
 394 163 368 173 338 173 c 258
 116 173 l 257
 8 107 l 257
 57 72 94 30 121 -17 c 256
 148 -66 162 -115 162 -166 c 256
 162 -207 149 -242 126 -271 c 256
 102 -301 74 -316 40 -316 c 256
 11 -316 -13 -311 -34 -299 c 256
 -54 -288 -64 -274 -64 -260 c 257
 -60 -264 -54 -267 -47 -270 c 256
 -41 -272 -34 -273 -27 -273 c 256
 -6 -273 13 -264 30 -246 c 257
 45 -226 53 -203 53 -176 c 256
 53 -154 45 -135 30 -118 c 256
 15 -102 -3 -94 -25 -94 c 256
 -50 -94 -76 -108 -98 -138 c 256
 -120 -168 -130 -201 -130 -235 c 256
 -130 -274 -116 -308 -88 -335 c 256
 -59 -363 -24 -375 16 -375 c 256
 63 -375 113 -349 161 -294 c 256
 210 -239 231 -183 231 -130 c 256
EndSplineSet
PickledDataWithLists: "(dp1
S'com.adobe.type.autohint'
p2
(S'data'
S'<data>\\n  <hintSetList>\\n    <hintset pointTag=\"hr00\">\\n      <hstem pos=\"-375\" width=\"59\"/>\\n      <hstem pos=\"-273\" width=\"51\"/>\\n      <hstem pos=\"-149\" width=\"55\"/>\\n      <hstem pos=\"-45\" width=\"54\"/>\\n      <hstem pos=\"112\" width=\"61\"/>\\n      <vstem pos=\"-130\" width=\"66\"/>\\n      <vstem pos=\"10\" width=\"43\"/>\\n      <vstem pos=\"162\" width=\"69\"/>\\n      <vstem pos=\"266\" width=\"55\"/>\\n      <vstem pos=\"400\" width=\"49\"/>\\n    </hintset>\\n  </hintSetList>\\n  </data>'
Ntp3
s."
EndChar

StartChar: uni0C46
Encoding: 178 3142 178
GlifName: uni0C46_
Width: 0
VWidth: 0
Flags: W
LayerCount: 2
Back
Fore
SplineSet
180 538 m 257
NamedP: "hr00"
 180 538 175 544 163 557 c 256
 152 568 138 573 121 573 c 258
 -159 573 l 257
 -225 501 l 257
 69 501 l 258
 82 501 93 497 102 489 c 256
 110 482 114 472 114 461 c 256
 114 447 104 435 85 425 c 256
 65 414 41 409 13 409 c 256
 3 409 -6 411 -14 415 c 256
 -23 419 -31 425 -38 433 c 257
 -80 367 l 257
 -75 358 -65 350 -51 345 c 256
 -38 340 -22 337 -3 337 c 256
 32 337 72 358 115 400 c 256
 158 442 180 488 180 538 c 257
NamedP: "hr00"
EndSplineSet
PickledDataWithLists: "(dp1
S'com.adobe.type.autohint'
p2
(S'data'
S'<data>\\n  <hintSetList>\\n    <hintset pointTag=\"hr00\">\\n      <hstem pos=\"337\" width=\"72\"/>\\n      <hstem pos=\"501\" width=\"72\"/>\\n      <vstem pos=\"-225\" width=\"405\"/>\\n    </hintset>\\n  </hintSetList>\\n  </data>'
Ntp3
s."
EndChar

StartChar: EEMatra
Encoding: 179 3143 179
GlifName: EEMatra_
Width: 0
VWidth: 0
Flags: W
LayerCount: 2
Back
Fore
SplineSet
180 538 m 257
NamedP: "hr00"
 180 538 175 544 163 557 c 256
 152 568 138 573 121 573 c 258
 104 573 l 257
 91 584 81 594 74 603 c 256
 67 612 64 619 64 624 c 256
 64 629 65 633 68 636 c 256
 72 639 76 641 81 641 c 256
 86 641 93 639 100 635 c 256
 107 631 114 625 121 617 c 257
 169 659 l 257
 163 672 154 683 143 690 c 256
 131 697 118 701 103 701 c 256
 86 701 67 690 45 669 c 256
 21 647 9 628 9 613 c 256
 9 606 11 598 15 591 c 256
 20 584 26 578 31 573 c 257
 -159 573 l 257
 -225 501 l 257
 69 501 l 258
 82 501 93 496 102 485 c 256
 110 475 114 463 114 449 c 256
 114 438 104 429 85 421 c 256
 66 413 43 409 15 409 c 256
 4 409 -5 411 -14 415 c 256
 -23 419 -31 425 -38 433 c 257
 -80 367 l 257
 -75 358 -65 350 -51 345 c 256
 -38 340 -22 337 -3 337 c 256
 32 337 72 358 115 400 c 256
 158 442 180 488 180 538 c 257
NamedP: "hr00"
EndSplineSet
PickledDataWithLists: "(dp1
S'com.adobe.type.autohint'
p2
(S'data'
S'<data>\\n  <hintSetList>\\n    <hintset pointTag=\"hr00\">\\n      <hstem pos=\"337\" width=\"72\"/>\\n      <hstem pos=\"501\" width=\"72\"/>\\n      <hstem pos=\"641\" width=\"60\"/>\\n      <vstem pos=\"-225\" width=\"405\"/>\\n      <vstem pos=\"9\" width=\"55\"/>\\n    </hintset>\\n  </hintSetList>\\n  </data>'
Ntp3
s."
EndChar

StartChar: AIMatra
Encoding: 180 3144 180
GlifName: AIMatra_
Width: 601
VWidth: 0
Flags: W
LayerCount: 2
Back
Fore
SplineSet
173 -180 m 256
NamedP: "hr00"
 160 -180 148 -176 139 -167 c 256
 129 -158 124 -147 124 -134 c 256
 124 -128 127 -123 132 -119 c 256
 137 -114 144 -111 152 -111 c 256
 165 -111 175 -116 184 -125 c 256
 193 -134 197 -144 197 -157 c 256
 197 -164 195 -169 190 -173 c 257
 186 -178 180 -180 173 -180 c 256
NamedP: "hr00"
491 -234 m 257
 541 -159 l 257
 530 -167 515 -172 495 -173 c 256
 480 -174 453 -174 414 -174 c 258
 254 -174 l 257
 260 -169 265 -163 269 -156 c 256
 273 -149 275 -141 275 -134 c 256
 275 -115 269 -97 253 -83 c 256
 238 -69 219 -63 198 -63 c 256
 163 -63 133 -73 106 -94 c 256
 81 -115 69 -140 69 -169 c 256
 69 -187 76 -202 91 -215 c 256
 106 -228 124 -234 145 -234 c 258
 491 -234 l 257
361 337 m 256
 384 337 410 358 438 400 c 256
 465 442 479 480 479 514 c 256
 479 530 473 544 462 557 c 257
 450 568 436 573 420 573 c 258
 140 573 l 257
 74 501 l 257
 368 501 l 258
 381 501 391 496 400 485 c 256
 409 475 413 463 413 449 c 256
 413 438 410 428 403 421 c 256
 396 413 388 409 378 409 c 256
 368 409 359 411 350 415 c 256
 341 419 334 425 327 433 c 257
 285 367 l 257
 290 358 299 350 314 345 c 256
 327 340 343 337 361 337 c 256
EndSplineSet
PickledDataWithLists: "(dp1
S'com.adobe.type.autohint'
p2
(S'data'
S'<data>\\n  <hintSetList>\\n    <hintset pointTag=\"hr00\">\\n      <hstem pos=\"-234\" width=\"60\"/>\\n      <hstem pos=\"-111\" width=\"48\"/>\\n      <hstem pos=\"337\" width=\"72\"/>\\n      <hstem pos=\"501\" width=\"72\"/>\\n      <vstem pos=\"69\" width=\"472\"/>\\n      <vstem pos=\"69\" width=\"55\"/>\\n      <vstem pos=\"197\" width=\"78\"/>\\n      <vstem pos=\"413\" width=\"66\"/>\\n    </hintset>\\n  </hintSetList>\\n  </data>'
Ntp3
s."
EndChar

StartChar: OMatra
Encoding: 181 3146 181
GlifName: OMatra_
Width: 614
VWidth: 0
Flags: W
LayerCount: 2
Back
Fore
SplineSet
491 409 m 256
NamedP: "hr00"
 471 409 454 416 439 428 c 256
 424 440 417 454 417 472 c 256
 417 483 421 492 429 499 c 257
 436 507 446 511 457 511 c 256
 478 511 495 504 510 492 c 256
 525 480 532 466 532 449 c 256
 532 438 528 428 520 421 c 257
 513 413 503 409 491 409 c 256
NamedP: "hr00"
352 426 m 256
 352 405 364 384 388 365 c 256
 413 346 440 337 469 337 c 256
 495 337 521 354 548 387 c 256
 574 420 587 452 587 484 c 256
 587 511 577 535 554 555 c 256
 532 575 506 584 475 584 c 258
 251 584 l 258
 239 584 225 580 209 572 c 256
 192 564 175 552 157 537 c 257
 145 552 130 564 112 572 c 256
 93 580 74 584 53 584 c 258
 -11 584 l 258
 -39 584 -67 569 -96 539 c 256
 -125 508 -139 478 -139 449 c 256
 -139 418 -129 392 -110 370 c 256
 -90 348 -67 337 -40 337 c 258
 14 337 l 257
 14 409 l 257
 -16 409 l 258
 -35 409 -51 415 -65 428 c 256
 -78 439 -85 454 -85 472 c 256
 -85 483 -81 492 -72 499 c 256
 -63 507 -53 511 -40 511 c 258
 29 511 l 258
 49 511 67 507 83 499 c 256
 99 491 112 480 122 465 c 257
 137 480 151 491 164 499 c 256
 176 507 187 511 198 511 c 258
 403 511 l 257
 387 496 374 482 365 467 c 256
 356 451 352 437 352 426 c 256
EndSplineSet
PickledDataWithLists: "(dp1
S'com.adobe.type.autohint'
p2
(S'data'
S'<data>\\n  <hintSetList>\\n    <hintset pointTag=\"hr00\">\\n      <hstem pos=\"337\" width=\"72\"/>\\n      <hstem pos=\"511\" width=\"73\"/>\\n      <vstem pos=\"-139\" width=\"54\"/>\\n      <vstem pos=\"352\" width=\"65\"/>\\n      <vstem pos=\"532\" width=\"55\"/>\\n    </hintset>\\n  </hintSetList>\\n  </data>'
Ntp3
s."
EndChar

StartChar: OOMatra
Encoding: 182 3147 182
GlifName: OOMatra_
Width: 633
VWidth: 0
Flags: W
LayerCount: 2
Back
Fore
SplineSet
492 409 m 256
NamedP: "hr00"
 472 409 455 415 440 428 c 256
 426 439 419 454 419 472 c 256
 419 483 423 492 431 499 c 257
 438 507 448 511 459 511 c 256
 480 511 497 505 512 492 c 256
 526 481 533 466 533 449 c 256
 533 438 529 428 521 421 c 257
 514 413 504 409 492 409 c 256
NamedP: "hr00"
353 432 m 256
 353 409 365 387 389 367 c 256
 414 347 442 337 471 337 c 256
 496 337 524 354 550 387 c 256
 576 420 588 452 588 484 c 256
 588 500 583 516 574 533 c 256
 565 548 552 561 535 572 c 258
 488 601 l 258
 472 611 460 621 451 632 c 256
 442 643 437 654 437 665 c 256
 437 676 441 686 450 693 c 256
 459 701 470 705 483 705 c 256
 490 705 497 701 504 694 c 256
 512 687 520 677 528 664 c 257
 606 712 l 257
 598 727 587 738 574 746 c 256
 559 754 544 758 528 758 c 256
 495 758 460 746 426 720 c 256
 392 694 376 666 376 641 c 256
 376 632 380 622 387 611 c 256
 394 602 404 593 415 584 c 257
 257 584 l 258
 245 584 231 580 215 572 c 256
 198 564 181 552 163 537 c 257
 151 552 136 564 118 572 c 256
 99 580 80 584 59 584 c 258
 -5 584 l 258
 -33 584 -62 569 -91 539 c 256
 -120 508 -134 478 -134 449 c 256
 -134 418 -125 392 -105 370 c 256
 -85 347 -60 337 -33 337 c 258
 14 337 l 257
 14 409 l 257
 -11 409 l 258
 -30 409 -45 416 -59 428 c 256
 -72 440 -79 454 -79 472 c 256
 -79 483 -75 492 -66 499 c 256
 -57 507 -46 511 -33 511 c 258
 35 511 l 258
 55 511 73 507 89 499 c 256
 105 491 118 480 129 465 c 257
 144 480 157 491 170 499 c 256
 183 507 194 511 204 511 c 258
 404 511 l 257
 388 496 375 482 366 469 c 256
 357 454 353 441 353 432 c 256
EndSplineSet
PickledDataWithLists: "(dp1
S'com.adobe.type.autohint'
p2
(S'data'
S'<data>\\n  <hintSetList>\\n    <hintset pointTag=\"hr00\">\\n      <hstem pos=\"337\" width=\"72\"/>\\n      <hstem pos=\"511\" width=\"73\"/>\\n      <hstem pos=\"705\" width=\"53\"/>\\n      <vstem pos=\"-134\" width=\"55\"/>\\n      <vstem pos=\"353\" width=\"66\"/>\\n      <vstem pos=\"376\" width=\"61\"/>\\n      <vstem pos=\"533\" width=\"55\"/>\\n    </hintset>\\n  </hintSetList>\\n  </data>'
Ntp3
s."
EndChar

StartChar: AuMatra
Encoding: 183 3148 183
GlifName: AuMatra_
Width: 635
VWidth: 0
Flags: W
LayerCount: 2
Back
Fore
SplineSet
502 391 m 256
NamedP: "hr00"
 481 391 463 401 444 421 c 256
 426 440 416 461 416 484 c 256
 416 500 420 514 429 525 c 256
 439 536 450 541 462 541 c 256
 483 541 503 530 521 508 c 256
 539 487 548 463 548 437 c 256
 548 424 544 413 535 404 c 256
 526 395 515 391 502 391 c 256
NamedP: "hr00"
356 443 m 256
 356 414 368 386 395 361 c 256
 421 336 449 325 480 325 c 256
 509 325 537 342 566 375 c 256
 595 408 609 441 609 473 c 256
 609 510 597 542 573 569 c 256
 549 595 520 608 486 608 c 258
 -91 608 l 257
 -151 535 l 257
 -15 535 l 258
 9 535 29 528 46 514 c 256
 63 499 71 482 71 461 c 256
 71 446 67 434 58 425 c 256
 49 414 39 409 26 409 c 256
 11 409 -4 413 -17 421 c 256
 -32 430 -46 442 -57 457 c 257
 -115 390 l 257
 -104 373 -88 360 -67 351 c 256
 -46 342 -23 337 2 337 c 256
 27 337 57 356 92 393 c 256
 127 430 144 463 144 490 c 256
 144 499 143 508 140 516 c 257
 139 524 136 530 133 535 c 257
 401 535 l 257
 388 527 377 514 368 497 c 256
 360 480 356 462 356 443 c 256
EndSplineSet
PickledDataWithLists: "(dp1
S'com.adobe.type.autohint'
p2
(S'data'
S'<data>\\n  <hintSetList>\\n    <hintset pointTag=\"hr00\">\\n      <hstem pos=\"325\" width=\"66\"/>\\n      <hstem pos=\"337\" width=\"72\"/>\\n      <hstem pos=\"535\" width=\"73\"/>\\n      <vstem pos=\"71\" width=\"73\"/>\\n      <vstem pos=\"356\" width=\"60\"/>\\n      <vstem pos=\"548\" width=\"61\"/>\\n    </hintset>\\n  </hintSetList>\\n  </data>'
Ntp3
s."
EndChar

StartChar: Halanth
Encoding: 184 3149 184
GlifName: Halanth_
Width: 0
VWidth: 0
Flags: W
LayerCount: 2
Back
Fore
SplineSet
-110 548 m 256
NamedP: "hr00"
 -110 537 -106 526 -97 515 c 256
 -89 504 -78 496 -64 490 c 257
 -82 475 -96 460 -106 447 c 256
 -117 433 -122 422 -122 414 c 256
 -122 392 -112 374 -92 359 c 256
 -71 344 -46 336 -17 336 c 256
 7 336 29 347 47 369 c 256
 65 391 72 419 72 454 c 257
 66 439 57 428 44 420 c 256
 33 413 18 409 1 409 c 256
 -13 409 -25 413 -35 421 c 256
 -45 428 -50 438 -50 449 c 256
 -50 458 -44 468 -31 480 c 256
 -18 492 -1 505 22 519 c 257
 -2 523 -21 531 -35 543 c 256
 -49 554 -56 568 -56 583 c 256
 -56 591 -52 598 -44 603 c 256
 -37 608 -28 611 -17 611 c 256
 6 611 29 605 54 593 c 256
 110 566 176 552 252 552 c 256
 274 552 294 558 311 570 c 257
 409 683 l 257
 388 664 366 651 345 645 c 256
 324 639 300 636 275 636 c 256
 226 636 170 644 106 660 c 256
 74 668 45 672 19 672 c 256
 -13 672 -42 659 -69 633 c 256
 -96 607 -110 579 -110 548 c 256
NamedP: "hr00"
EndSplineSet
PickledDataWithLists: "(dp1
S'com.adobe.type.autohint'
p2
(S'data'
S'<data>\\n  <hintSetList>\\n    <hintset pointTag=\"hr00\">\\n      <hstem pos=\"336\" width=\"73\"/>\\n      <hstem pos=\"552\" width=\"84\"/>\\n      <hstem pos=\"611\" width=\"61\"/>\\n      <vstem pos=\"-122\" width=\"531\"/>\\n      <vstem pos=\"-110\" width=\"54\"/>\\n    </hintset>\\n  </hintSetList>\\n  </data>'
Ntp3
s."
EndChar

StartChar: uni0C55
Encoding: 185 3157 185
GlifName: uni0C55_
Width: 153
VWidth: 0
Flags: W
LayerCount: 2
Back
Fore
SplineSet
94 562 m 257
NamedP: "hr00"
 82 573 73 582 66 591 c 256
 59 600 55 607 55 612 c 256
 55 617 57 621 60 624 c 256
 63 627 67 629 72 629 c 256
 77 629 84 627 91 623 c 256
 98 619 105 613 113 605 c 257
 160 647 l 257
 154 660 145 671 134 678 c 256
 121 685 108 689 95 689 c 256
 78 689 58 678 35 657 c 256
 12 635 0 616 0 601 c 256
 0 594 2 586 6 579 c 256
 11 572 17 565 25 559 c 257
 94 559 l 257
 94 562 l 257
NamedP: "hr00"
EndSplineSet
PickledDataWithLists: "(dp1
S'com.adobe.type.autohint'
p2
(S'data'
S'<data>\\n  <hintSetList>\\n    <hintset pointTag=\"hr00\">\\n      <hstem pos=\"559\" width=\"130\"/>\\n      <vstem pos=\"0\" width=\"160\"/>\\n      <vstem pos=\"0\" width=\"55\"/>\\n    </hintset>\\n  </hintSetList>\\n  </data>'
Ntp3
s."
EndChar

StartChar: tvam
Encoding: 186 3158 186
GlifName: tvam
Width: 0
VWidth: 0
Flags: W
LayerCount: 2
Back
Fore
SplineSet
470 -180 m 256
NamedP: "hr00"
 457 -180 445 -176 436 -167 c 256
 426 -158 421 -147 421 -134 c 256
 421 -128 424 -123 429 -119 c 256
 434 -114 441 -111 449 -111 c 256
 462 -111 472 -116 481 -125 c 256
 490 -134 494 -144 494 -157 c 256
 494 -164 492 -169 487 -173 c 257
 483 -178 477 -180 470 -180 c 256
NamedP: "hr00"
840 -234 m 257
 890 -159 l 257
 879 -167 864 -172 844 -173 c 256
 829 -174 802 -174 763 -174 c 258
 551 -174 l 257
 557 -169 562 -163 566 -156 c 256
 570 -149 572 -141 572 -134 c 256
 572 -115 566 -97 550 -83 c 256
 535 -69 516 -63 495 -63 c 256
 460 -63 430 -73 403 -94 c 256
 378 -115 366 -140 366 -169 c 256
 366 -187 373 -202 388 -215 c 256
 403 -228 421 -234 442 -234 c 258
 840 -234 l 257
EndSplineSet
PickledDataWithLists: "(dp1
S'com.adobe.type.autohint'
p2
(S'data'
S'<data>\\n  <hintSetList>\\n    <hintset pointTag=\"hr00\">\\n      <hstem pos=\"-234\" width=\"60\"/>\\n      <hstem pos=\"-111\" width=\"48\"/>\\n      <vstem pos=\"366\" width=\"524\"/>\\n      <vstem pos=\"366\" width=\"55\"/>\\n      <vstem pos=\"494\" width=\"78\"/>\\n    </hintset>\\n  </hintSetList>\\n  </data>'
Ntp3
s."
EndChar

StartChar: CaNukta
Encoding: 187 3160 187
GlifName: CaNukta_
Width: 748
VWidth: 0
Flags: W
LayerCount: 2
Back
Fore
SplineSet
463 647 m 256
NamedP: "hr00"
 452 647 442 651 431 660 c 256
 421 668 416 677 416 688 c 256
 416 697 419 704 424 710 c 256
 428 716 433 719 440 719 c 256
 455 719 468 714 479 705 c 256
 490 696 495 684 495 671 c 256
 495 664 492 659 486 654 c 256
 480 649 472 647 463 647 c 256
NamedP: "hr00"
48 590 m 257
 453 590 l 258
 478 590 502 601 527 623 c 256
 552 646 564 667 564 688 c 256
 564 709 556 727 541 742 c 256
 524 758 505 764 483 764 c 256
 451 764 421 754 394 735 c 256
 367 716 354 694 354 671 c 256
 354 668 356 662 359 653 c 257
 116 653 l 257
 48 591 l 257
 48 590 l 257
693 519 m 257
 693 613 l 257
 400 436 l 257
 400 337 l 257
 425 353 l 257
 425 352 l 257
 468 352 l 258
 521 352 569 334 614 297 c 256
 659 260 681 219 681 176 c 256
 681 148 671 124 652 104 c 256
 634 84 612 74 585 74 c 256
 562 74 539 81 516 94 c 256
 494 106 474 124 457 148 c 257
 434 121 410 100 387 85 c 256
 364 70 343 62 323 62 c 256
 302 62 283 73 266 96 c 256
 248 119 239 143 239 170 c 256
 239 199 249 226 268 249 c 256
 287 273 314 292 347 305 c 257
 87 305 l 257
 30 230 l 257
 199 230 l 257
 189 221 181 208 175 191 c 257
 168 176 165 159 165 140 c 256
 165 105 176 72 202 43 c 256
 228 13 257 -1 287 -1 c 256
 304 -1 324 5 346 15 c 256
 369 26 392 40 415 60 c 257
 431 41 451 26 475 15 c 256
 498 4 523 -1 548 -1 c 256
 591 -1 633 20 671 64 c 256
 709 107 726 155 726 206 c 256
 726 261 704 311 661 357 c 256
 623 397 583 420 540 425 c 257
 693 519 l 257
EndSplineSet
PickledDataWithLists: "(dp1
S'com.adobe.type.autohint'
p2
(S'data'
S'<data>\\n  <hintSetList>\\n    <hintset pointTag=\"hr00\">\\n      <hstem pos=\"-1\" width=\"75\"/>\\n      <hstem pos=\"-1\" width=\"63\"/>\\n      <hstem pos=\"230\" width=\"75\"/>\\n      <hstem pos=\"352\" width=\"73\"/>\\n      <hstem pos=\"590\" width=\"63\"/>\\n      <hstem pos=\"719\" width=\"45\"/>\\n      <vstem pos=\"165\" width=\"74\"/>\\n      <vstem pos=\"354\" width=\"62\"/>\\n      <vstem pos=\"495\" width=\"69\"/>\\n      <vstem pos=\"681\" width=\"45\"/>\\n    </hintset>\\n  </hintSetList>\\n  </data>'
Ntp3
s."
EndChar

StartChar: JaNukta
Encoding: 188 3161 188
GlifName: JaNukta_
Width: 595
VWidth: 0
Flags: W
LayerCount: 2
Back
Fore
SplineSet
462 567 m 256
NamedP: "hr00"
 451 567 441 571 430 580 c 256
 420 588 415 597 415 608 c 256
 415 617 418 624 423 630 c 256
 427 636 432 639 439 639 c 256
 454 639 467 634 478 625 c 256
 489 616 494 604 494 591 c 256
 494 584 491 579 485 574 c 256
 479 569 471 567 462 567 c 256
NamedP: "hr00"
47 510 m 257
 452 510 l 258
 477 510 501 521 526 543 c 256
 551 566 563 587 563 608 c 256
 563 629 555 647 540 662 c 256
 523 678 504 684 482 684 c 256
 450 684 420 674 393 655 c 256
 366 636 353 614 353 591 c 256
 353 588 355 582 358 573 c 257
 115 573 l 257
 47 511 l 257
 47 510 l 257
145 280 m 256
 132 280 121 286 111 299 c 257
 99 312 93 325 93 340 c 256
 93 352 96 362 103 369 c 256
 110 378 119 382 129 382 c 256
 140 382 151 376 161 363 c 256
 171 350 176 336 176 321 c 256
 176 310 173 300 168 292 c 256
 162 284 154 280 145 280 c 256
170 -1 m 256
 187 -1 206 5 227 17 c 256
 246 28 266 44 286 65 c 257
 306 44 326 28 345 17 c 256
 366 5 384 -1 401 -1 c 256
 438 -1 476 16 515 50 c 256
 553 84 572 118 572 151 c 256
 572 164 570 175 567 185 c 256
 564 195 560 202 554 207 c 257
 490 145 l 257
 499 143 505 138 510 130 c 256
 514 124 516 117 516 109 c 256
 516 98 510 88 499 80 c 256
 487 71 473 67 456 67 c 256
 437 67 417 73 397 86 c 256
 376 99 356 118 335 141 c 257
 314 121 293 107 271 96 c 256
 250 86 228 80 207 80 c 256
 182 80 161 87 143 102 c 256
 126 117 117 136 117 158 c 256
 117 172 122 186 132 199 c 256
 142 213 155 225 172 235 c 257
 195 254 209 268 214 277 c 257
 223 266 237 257 254 252 c 257
 271 245 290 242 311 242 c 256
 334 242 360 256 387 283 c 256
 415 312 427 339 427 364 c 256
 427 381 420 396 407 409 c 257
 393 420 377 426 359 426 c 257
 309 363 l 257
 326 363 339 360 348 353 c 256
 359 346 364 337 364 328 c 256
 364 321 361 316 355 312 c 257
 350 307 343 305 335 305 c 256
 318 305 301 308 286 315 c 256
 273 321 261 329 251 340 c 257
 251 363 243 384 226 401 c 256
 209 418 188 426 165 426 c 256
 132 426 101 413 73 386 c 256
 44 359 30 329 30 298 c 256
 30 279 38 263 53 250 c 256
 69 237 87 230 107 230 c 257
 89 216 76 199 65 179 c 256
 55 160 49 140 49 121 c 256
 49 94 61 67 89 39 c 256
 117 11 144 -1 170 -1 c 256
EndSplineSet
PickledDataWithLists: "(dp1
S'com.adobe.type.autohint'
p2
(S'data'
S'<data>\\n  <hintSetList>\\n    <hintset pointTag=\"hr00\">\\n      <hstem pos=\"20\" width=\"-21\"/>\\n      <hstem pos=\"-1\" width=\"68\"/>\\n      <hstem pos=\"-1\" width=\"81\"/>\\n      <hstem pos=\"242\" width=\"63\"/>\\n      <hstem pos=\"382\" width=\"44\"/>\\n      <hstem pos=\"510\" width=\"63\"/>\\n      <hstem pos=\"639\" width=\"45\"/>\\n      <vstem pos=\"30\" width=\"63\"/>\\n      <vstem pos=\"49\" width=\"68\"/>\\n      <vstem pos=\"176\" width=\"75\"/>\\n      <vstem pos=\"353\" width=\"62\"/>\\n      <vstem pos=\"364\" width=\"63\"/>\\n      <vstem pos=\"494\" width=\"69\"/>\\n      <vstem pos=\"516\" width=\"56\"/>\\n    </hintset>\\n  </hintSetList>\\n  </data>'
Ntp3
s."
EndChar

StartChar: RRu
Encoding: 189 3168 189
GlifName: RRu_
Width: 1693
VWidth: 0
Flags: W
LayerCount: 2
Back
Fore
SplineSet
1534 184 m 256
NamedP: "hr00"
 1508 184 1486 192 1467 209 c 256
 1448 225 1438 245 1438 268 c 256
 1438 291 1446 311 1458 327 c 256
 1471 344 1485 352 1504 352 c 256
 1531 352 1555 340 1578 320 c 256
 1600 300 1613 279 1613 255 c 256
 1613 235 1605 218 1590 205 c 256
 1575 191 1556 184 1534 184 c 256
NamedP: "hr00"
145 280 m 256
 132 280 121 286 111 299 c 257
 99 312 93 325 93 340 c 256
 93 352 96 362 103 369 c 256
 110 378 119 382 129 382 c 256
 140 382 151 376 161 363 c 256
 171 350 176 336 176 321 c 256
 176 310 173 300 168 292 c 256
 162 284 154 280 145 280 c 256
183 5 m 256
 199 5 217 10 236 20 c 256
 256 31 275 46 292 65 c 257
 313 44 332 28 351 17 c 256
 372 5 390 -1 407 -1 c 256
 440 -1 473 9 505 29 c 256
 535 49 559 76 576 111 c 257
 595 76 621 49 654 29 c 256
 687 9 722 -1 757 -1 c 256
 790 -1 821 10 852 32 c 256
 882 53 906 81 925 117 c 257
 945 81 972 51 1006 30 c 256
 1041 8 1078 -1 1116 -1 c 256
 1165 -1 1209 22 1250 68 c 256
 1291 115 1311 165 1311 219 c 256
 1311 246 1306 272 1298 295 c 256
 1289 319 1278 338 1263 352 c 257
 1453 352 l 257
 1428 335 1408 313 1393 287 c 256
 1378 261 1370 234 1370 206 c 256
 1370 179 1383 156 1408 137 c 256
 1433 118 1464 108 1499 108 c 256
 1539 108 1578 129 1615 172 c 256
 1652 214 1670 258 1670 304 c 256
 1670 337 1657 367 1627 391 c 256
 1598 415 1562 426 1522 426 c 258
 1115 426 l 257
 1065 352 l 257
 1104 352 l 258
 1147 352 1183 334 1214 298 c 256
 1244 263 1260 220 1260 170 c 256
 1260 140 1250 115 1231 94 c 256
 1213 73 1191 62 1164 62 c 256
 1126 62 1088 76 1051 105 c 256
 1014 133 981 171 952 219 c 257
 952 276 934 325 897 366 c 256
 860 406 815 426 763 426 c 257
 713 352 l 257
 766 352 810 334 846 300 c 256
 883 265 901 225 901 176 c 256
 901 145 891 118 873 96 c 256
 854 73 833 62 806 62 c 256
 771 62 736 75 700 101 c 256
 664 127 632 162 603 206 c 257
 603 261 579 311 531 357 c 256
 482 403 428 426 370 426 c 257
 320 352 l 257
 379 352 432 332 480 294 c 256
 528 256 553 215 553 170 c 256
 553 142 543 118 524 97 c 256
 505 77 483 67 456 67 c 256
 435 67 414 73 392 86 c 256
 371 99 350 118 329 141 c 257
 308 121 287 106 266 96 c 256
 245 85 226 80 207 80 c 256
 182 80 161 87 143 102 c 256
 126 117 117 136 117 158 c 256
 117 172 122 186 132 199 c 256
 142 213 155 225 172 235 c 257
 197 254 217 272 230 290 c 256
 244 309 251 325 251 340 c 256
 251 363 243 384 226 401 c 256
 209 418 188 426 165 426 c 256
 132 426 101 413 73 386 c 256
 44 359 30 329 30 298 c 256
 30 279 38 263 53 250 c 256
 69 237 87 230 107 230 c 257
 89 216 76 199 65 179 c 256
 55 160 49 140 49 121 c 256
 49 96 64 70 94 44 c 256
 125 17 154 5 183 5 c 256
EndSplineSet
PickledDataWithLists: "(dp1
S'com.adobe.type.autohint'
p2
(S'data'
S'<data>\\n  <hintSetList>\\n    <hintset pointTag=\"hr00\">\\n      <hstem pos=\"-1\" width=\"63\"/>\\n      <hstem pos=\"-1\" width=\"68\"/>\\n      <hstem pos=\"5\" width=\"75\"/>\\n      <hstem pos=\"108\" width=\"76\"/>\\n      <hstem pos=\"230\" width=\"50\"/>\\n      <hstem pos=\"352\" width=\"74\"/>\\n      <hstem pos=\"382\" width=\"44\"/>\\n      <vstem pos=\"30\" width=\"63\"/>\\n      <vstem pos=\"49\" width=\"68\"/>\\n      <vstem pos=\"176\" width=\"75\"/>\\n      <vstem pos=\"553\" width=\"50\"/>\\n      <vstem pos=\"901\" width=\"51\"/>\\n      <vstem pos=\"1260\" width=\"51\"/>\\n      <vstem pos=\"1370\" width=\"68\"/>\\n      <vstem pos=\"1613\" width=\"57\"/>\\n    </hintset>\\n  </hintSetList>\\n  </data>'
Ntp3
s."
EndChar

StartChar: LLu
Encoding: 190 3169 190
GlifName: LLu_
Width: 1175
VWidth: 0
Flags: W
LayerCount: 2
Back
Fore
SplineSet
1010 171 m 256
NamedP: "hr00"
 983 171 959 180 940 196 c 256
 920 213 910 232 910 255 c 256
 910 275 919 296 938 318 c 256
 957 341 976 352 994 352 c 256
 1022 352 1046 342 1065 323 c 256
 1085 304 1095 282 1095 255 c 256
 1095 232 1087 213 1070 196 c 256
 1053 179 1034 171 1010 171 c 256
NamedP: "hr00"
859 213 m 256
 859 184 870 159 893 138 c 256
 916 118 943 108 975 108 c 256
 1016 108 1057 127 1095 167 c 256
 1134 207 1152 249 1152 291 c 256
 1152 328 1140 360 1113 387 c 256
 1086 414 1054 426 1017 426 c 258
 645 426 l 257
 603 354 l 257
 635 326 661 292 679 253 c 256
 698 213 706 171 706 126 c 256
 706 82 690 46 658 15 c 256
 627 -15 588 -31 542 -31 c 256
 521 -31 502 -20 485 1 c 256
 466 23 457 47 457 73 c 256
 457 102 473 140 505 187 c 256
 537 236 553 275 553 304 c 256
 553 331 541 358 513 386 c 256
 485 414 458 426 431 426 c 256
 416 426 399 421 378 409 c 256
 358 398 337 381 316 360 c 257
 295 381 275 398 255 409 c 256
 234 421 216 426 201 426 c 256
 164 426 126 409 88 375 c 256
 49 341 30 307 30 274 c 256
 30 261 32 250 35 240 c 256
 38 230 42 223 49 218 c 257
 112 279 l 257
 104 282 97 288 92 295 c 256
 88 301 86 308 86 316 c 256
 86 327 92 337 103 345 c 256
 115 354 129 358 146 358 c 256
 165 358 185 352 205 339 c 256
 226 326 246 307 267 284 c 257
 287 303 308 318 329 329 c 256
 351 340 373 345 395 345 c 256
 420 345 441 338 459 323 c 256
 476 308 485 289 485 268 c 256
 485 240 468 204 434 161 c 256
 400 117 383 81 383 54 c 256
 383 15 397 -19 426 -47 c 256
 455 -74 490 -88 531 -88 c 256
 585 -88 641 -60 697 0 c 256
 753 60 780 120 780 179 c 256
 780 209 773 239 762 268 c 256
 750 299 734 327 712 352 c 257
 946 352 l 257
 921 341 901 322 884 297 c 256
 867 271 859 243 859 213 c 256
EndSplineSet
PickledDataWithLists: "(dp1
S'com.adobe.type.autohint'
p2
(S'data'
S'<data>\\n  <hintSetList>\\n    <hintset pointTag=\"hr00\">\\n      <hstem pos=\"-88\" width=\"57\"/>\\n      <hstem pos=\"108\" width=\"63\"/>\\n      <hstem pos=\"345\" width=\"81\"/>\\n      <hstem pos=\"352\" width=\"74\"/>\\n      <hstem pos=\"358\" width=\"68\"/>\\n      <vstem pos=\"30\" width=\"56\"/>\\n      <vstem pos=\"383\" width=\"74\"/>\\n      <vstem pos=\"485\" width=\"68\"/>\\n      <vstem pos=\"706\" width=\"74\"/>\\n      <vstem pos=\"859\" width=\"51\"/>\\n      <vstem pos=\"1095\" width=\"57\"/>\\n    </hintset>\\n  </hintSetList>\\n  </data>'
Ntp3
s."
EndChar

StartChar: uni0C62
Encoding: 191 3170 191
GlifName: uni0C62_
Width: 0
VWidth: 0
Flags: W
LayerCount: 2
Back
Fore
SplineSet
-581 -105 m 256
NamedP: "hr00"
 -581 -113 -580 -121 -577 -129 c 256
 -574 -136 -570 -144 -565 -151 c 257
 -513 -151 l 257
 -520 -146 -525 -139 -528 -131 c 256
 -531 -124 -533 -115 -533 -105 c 256
 -533 -91 -526 -79 -513 -70 c 256
 -500 -60 -485 -55 -466 -55 c 256
 -449 -55 -434 -60 -423 -71 c 257
 -411 -81 -405 -94 -405 -109 c 258
 -405 -136 l 257
 -359 -136 l 257
 -359 -109 l 258
 -359 -94 -352 -82 -338 -71 c 256
 -325 -61 -309 -55 -289 -55 c 256
 -270 -55 -253 -59 -240 -68 c 256
 -227 -77 -220 -88 -220 -101 c 256
 -220 -116 -226 -131 -237 -146 c 256
 -249 -162 -265 -176 -285 -189 c 256
 -306 -202 -322 -217 -333 -235 c 256
 -345 -253 -351 -271 -351 -289 c 256
 -351 -319 -339 -345 -316 -366 c 256
 -292 -387 -263 -397 -230 -397 c 256
 -183 -397 -143 -374 -110 -328 c 256
 -77 -282 -60 -227 -60 -162 c 256
 -60 -107 -69 -61 -86 -24 c 257
 -134 -24 l 257
 -116 -64 -107 -110 -107 -162 c 256
 -107 -217 -119 -263 -143 -301 c 256
 -168 -340 -197 -359 -230 -359 c 256
 -251 -359 -268 -352 -283 -339 c 256
 -298 -327 -305 -312 -305 -294 c 256
 -305 -281 -300 -267 -288 -252 c 256
 -276 -237 -259 -223 -238 -210 c 256
 -218 -197 -202 -182 -190 -163 c 256
 -179 -144 -173 -125 -173 -105 c 256
 -173 -81 -184 -60 -206 -43 c 256
 -229 -25 -257 -16 -289 -16 c 256
 -310 -16 -327 -19 -342 -25 c 256
 -359 -31 -370 -39 -377 -48 c 257
 -384 -39 -397 -31 -415 -25 c 256
 -432 -19 -453 -16 -476 -16 c 256
 -506 -16 -531 -24 -551 -41 c 256
 -571 -58 -581 -80 -581 -105 c 256
NamedP: "hr00"
EndSplineSet
PickledDataWithLists: "(dp1
S'com.adobe.type.autohint'
p2
(S'data'
S'<data>\\n  <hintSetList>\\n    <hintset pointTag=\"hr00\">\\n      <hstem pos=\"-397\" width=\"38\"/>\\n      <hstem pos=\"-55\" width=\"39\"/>\\n      <vstem pos=\"-581\" width=\"48\"/>\\n      <vstem pos=\"-405\" width=\"46\"/>\\n      <vstem pos=\"-351\" width=\"46\"/>\\n      <vstem pos=\"-220\" width=\"47\"/>\\n      <vstem pos=\"-107\" width=\"47\"/>\\n    </hintset>\\n  </hintSetList>\\n  </data>'
Ntp3
s."
EndChar

StartChar: uni0C63
Encoding: 192 3171 192
GlifName: uni0C63_
Width: 0
VWidth: 0
Flags: W
LayerCount: 2
Back
Fore
SplineSet
-153 -208 m 256
NamedP: "hr00"
 -162 -208 -170 -205 -177 -198 c 256
 -184 -191 -187 -182 -187 -172 c 256
 -187 -165 -184 -158 -177 -153 c 256
 -170 -148 -162 -146 -152 -146 c 256
 -142 -146 -134 -148 -128 -153 c 256
 -121 -158 -118 -165 -118 -172 c 256
 -118 -182 -121 -191 -128 -198 c 256
 -134 -205 -142 -208 -153 -208 c 256
NamedP: "hr00"
-828 -105 m 256
 -828 -113 -827 -121 -824 -129 c 256
 -821 -136 -817 -144 -812 -151 c 257
 -760 -151 l 257
 -767 -146 -772 -139 -775 -131 c 256
 -778 -124 -780 -115 -780 -105 c 256
 -780 -91 -773 -79 -760 -70 c 256
 -747 -60 -732 -55 -713 -55 c 256
 -696 -55 -681 -60 -670 -71 c 257
 -658 -81 -652 -94 -652 -109 c 258
 -652 -136 l 257
 -606 -136 l 257
 -606 -109 l 258
 -606 -94 -599 -82 -585 -71 c 256
 -572 -61 -556 -55 -536 -55 c 256
 -517 -55 -500 -59 -487 -68 c 256
 -474 -77 -467 -88 -467 -101 c 256
 -467 -116 -473 -131 -484 -146 c 256
 -496 -162 -512 -176 -532 -189 c 256
 -553 -202 -569 -217 -580 -235 c 256
 -592 -253 -598 -271 -598 -289 c 256
 -598 -319 -586 -345 -563 -366 c 256
 -539 -387 -510 -397 -477 -397 c 256
 -430 -397 -390 -374 -357 -328 c 256
 -324 -282 -307 -227 -307 -162 c 256
 -307 -133 -312 -100 -323 -63 c 257
 -188 -63 l 258
 -171 -63 -156 -67 -143 -76 c 256
 -130 -85 -123 -96 -120 -107 c 257
 -128 -102 -140 -100 -156 -100 c 256
 -177 -100 -195 -107 -210 -120 c 256
 -225 -134 -233 -150 -233 -169 c 256
 -233 -189 -225 -206 -209 -220 c 256
 -194 -234 -175 -241 -152 -241 c 256
 -127 -241 -105 -234 -86 -216 c 256
 -69 -199 -60 -178 -60 -154 c 256
 -60 -118 -71 -87 -97 -61 c 256
 -123 -35 -153 -24 -188 -24 c 258
 -394 -24 l 257
 -367 -83 -354 -129 -354 -162 c 256
 -354 -217 -366 -263 -390 -301 c 256
 -415 -340 -444 -359 -477 -359 c 256
 -498 -359 -515 -352 -530 -339 c 256
 -545 -327 -552 -312 -552 -294 c 256
 -552 -281 -547 -267 -535 -252 c 256
 -523 -237 -506 -223 -485 -210 c 256
 -465 -197 -449 -182 -437 -163 c 256
 -426 -144 -420 -125 -420 -105 c 256
 -420 -81 -431 -60 -453 -43 c 256
 -476 -25 -504 -16 -536 -16 c 256
 -557 -16 -574 -19 -589 -25 c 256
 -606 -31 -617 -39 -624 -48 c 257
 -631 -39 -644 -31 -662 -25 c 256
 -679 -19 -700 -16 -723 -16 c 256
 -753 -16 -778 -24 -798 -41 c 256
 -818 -58 -828 -80 -828 -105 c 256
EndSplineSet
PickledDataWithLists: "(dp1
S'com.adobe.type.autohint'
p2
(S'data'
S'<data>\\n  <hintSetList>\\n    <hintset pointTag=\"hr00\">\\n      <hstem pos=\"-397\" width=\"38\"/>\\n      <hstem pos=\"-241\" width=\"33\"/>\\n      <hstem pos=\"-146\" width=\"46\"/>\\n      <hstem pos=\"-63\" width=\"39\"/>\\n      <hstem pos=\"-55\" width=\"39\"/>\\n      <vstem pos=\"-828\" width=\"48\"/>\\n      <vstem pos=\"-652\" width=\"46\"/>\\n      <vstem pos=\"-598\" width=\"46\"/>\\n      <vstem pos=\"-467\" width=\"47\"/>\\n      <vstem pos=\"-354\" width=\"47\"/>\\n      <vstem pos=\"-233\" width=\"46\"/>\\n      <vstem pos=\"-118\" width=\"58\"/>\\n    </hintset>\\n  </hintSetList>\\n  </data>'
Ntp3
s."
EndChar

StartChar: Telugu0
Encoding: 193 3174 193
GlifName: Telugu0_
Width: 595
VWidth: 0
Flags: W
LayerCount: 2
Back
Fore
SplineSet
328 34 m 256
NamedP: "hr00"
 276 34 235 60 202 110 c 256
 170 160 153 226 153 310 c 256
 153 353 163 387 183 412 c 256
 202 437 228 450 261 450 c 256
 314 450 359 425 400 375 c 256
 440 326 461 269 461 205 c 256
 461 152 448 111 425 81 c 256
 401 50 369 34 328 34 c 256
NamedP: "hr00"
309 -6 m 256
 366 -6 417 20 457 72 c 256
 498 125 517 187 517 260 c 256
 517 325 496 381 455 427 c 256
 412 474 362 497 304 497 c 256
 241 497 188 472 146 421 c 256
 104 370 85 305 85 228 c 256
 85 163 107 108 151 63 c 256
 195 17 248 -6 309 -6 c 256
EndSplineSet
PickledDataWithLists: "(dp1
S'com.adobe.type.autohint'
p2
(S'data'
S'<data>\\n  <hintSetList>\\n    <hintset pointTag=\"hr00\">\\n      <hstem pos=\"-6\" width=\"40\"/>\\n      <hstem pos=\"450\" width=\"47\"/>\\n      <vstem pos=\"85\" width=\"68\"/>\\n      <vstem pos=\"461\" width=\"56\"/>\\n    </hintset>\\n  </hintSetList>\\n  </data>'
Ntp3
s."
EndChar

StartChar: Telugu1
Encoding: 194 3175 194
GlifName: Telugu1_
Width: 595
VWidth: 0
Flags: W
LayerCount: 2
Back
Fore
SplineSet
382 -6 m 257
NamedP: "hr00"
 456 54 l 257
 478 87 494 118 505 148 c 256
 517 178 523 206 523 231 c 256
 523 304 502 367 459 420 c 256
 415 473 363 499 303 499 c 256
 244 499 192 474 146 425 c 256
 101 376 78 319 78 256 c 256
 78 227 89 194 108 155 c 256
 128 115 156 73 194 29 c 257
 262 64 l 257
 225 101 196 140 176 181 c 256
 156 224 146 268 146 311 c 256
 146 354 157 387 178 412 c 256
 198 437 225 450 260 450 c 256
 315 450 363 427 402 380 c 256
 441 333 461 277 461 211 c 256
 461 176 454 141 441 104 c 256
 428 67 408 31 382 -4 c 257
 382 -6 l 257
NamedP: "hr00"
EndSplineSet
PickledDataWithLists: "(dp1
S'com.adobe.type.autohint'
p2
(S'data'
S'<data>\\n  <hintSetList>\\n    <hintset pointTag=\"hr00\">\\n      <hstem pos=\"450\" width=\"49\"/>\\n      <vstem pos=\"78\" width=\"68\"/>\\n      <vstem pos=\"461\" width=\"62\"/>\\n    </hintset>\\n  </hintSetList>\\n  </data>'
Ntp3
s."
EndChar

StartChar: Telugu2
Encoding: 195 3176 195
GlifName: Telugu2_
Width: 595
VWidth: 0
Flags: W
LayerCount: 2
Back
Fore
SplineSet
247 271 m 256
NamedP: "hr00"
 228 271 211 276 198 287 c 256
 183 298 176 310 176 325 c 256
 176 356 189 384 214 410 c 256
 239 436 267 449 297 449 c 256
 322 449 346 444 367 434 c 256
 386 425 401 412 411 396 c 257
 404 360 385 331 354 307 c 256
 324 284 288 271 247 271 c 256
NamedP: "hr00"
48 -1 m 257
 345 -1 l 258
 367 -1 388 4 408 12 c 256
 429 21 446 32 461 48 c 257
 490 72 513 103 529 141 c 256
 545 178 553 218 553 261 c 256
 553 329 532 385 489 430 c 256
 446 474 392 496 327 496 c 256
 299 496 274 491 252 482 c 256
 229 472 210 459 198 442 c 258
 134 352 l 257
 120 328 113 310 113 298 c 256
 113 275 123 255 143 239 c 256
 164 222 189 215 218 215 c 256
 269 215 314 230 354 260 c 256
 394 291 420 330 431 377 c 257
 446 364 459 342 469 311 c 256
 478 280 483 244 483 203 c 256
 483 172 478 144 467 119 c 256
 457 94 442 76 423 64 c 257
 418 59 408 57 393 56 c 256
 383 55 363 55 333 55 c 258
 92 55 l 257
 48 0 l 257
 48 -1 l 257
EndSplineSet
PickledDataWithLists: "(dp1
S'com.adobe.type.autohint'
p2
(S'data'
S'<data>\\n  <hintSetList>\\n    <hintset pointTag=\"hr00\">\\n      <hstem pos=\"-1\" width=\"56\"/>\\n      <hstem pos=\"215\" width=\"56\"/>\\n      <hstem pos=\"449\" width=\"47\"/>\\n      <vstem pos=\"113\" width=\"63\"/>\\n      <vstem pos=\"411\" width=\"20\"/>\\n      <vstem pos=\"483\" width=\"70\"/>\\n    </hintset>\\n  </hintSetList>\\n  </data>'
Ntp3
s."
EndChar

StartChar: Telugu3
Encoding: 196 3177 196
GlifName: Telugu3_
Width: 595
VWidth: 0
Flags: W
LayerCount: 2
Back
Fore
SplineSet
279 -6 m 256
NamedP: "hr00"
 310 -6 337 -2 358 2 c 256
 380 7 397 13 408 22 c 256
 439 47 463 73 481 98 c 256
 498 123 506 146 506 166 c 256
 506 194 493 222 467 249 c 256
 441 276 408 296 367 310 c 257
 419 367 l 258
 433 382 438 396 438 405 c 256
 438 426 427 447 402 465 c 256
 378 483 351 491 322 491 c 258
 273 491 l 258
 242 491 211 479 180 454 c 256
 148 428 132 403 132 379 c 256
 132 368 137 357 146 345 c 256
 155 335 167 326 182 319 c 257
 252 374 l 257
 234 381 220 388 211 396 c 256
 201 404 196 412 196 419 c 256
 196 426 201 432 211 438 c 257
 222 443 235 445 250 445 c 256
 278 445 304 437 327 422 c 256
 352 405 364 388 364 369 c 256
 364 357 355 341 334 326 c 258
 247 264 l 257
 298 264 344 250 386 222 c 256
 428 194 449 164 449 131 c 256
 449 106 438 84 415 64 c 256
 392 43 368 32 341 32 c 256
 304 32 268 45 232 70 c 256
 195 95 177 119 177 144 c 256
 177 153 179 162 182 170 c 256
 185 178 191 187 198 196 c 257
 102 159 l 257
 98 146 96 135 96 126 c 256
 96 95 116 65 155 37 c 256
 196 8 237 -6 279 -6 c 256
NamedP: "hr00"
EndSplineSet
PickledDataWithLists: "(dp1
S'com.adobe.type.autohint'
p2
(S'data'
S'<data>\\n  <hintSetList>\\n    <hintset pointTag=\"hr00\">\\n      <hstem pos=\"-6\" width=\"38\"/>\\n      <hstem pos=\"445\" width=\"46\"/>\\n      <vstem pos=\"96\" width=\"81\"/>\\n      <vstem pos=\"364\" width=\"74\"/>\\n      <vstem pos=\"449\" width=\"57\"/>\\n    </hintset>\\n  </hintSetList>\\n  </data>'
Ntp3
s."
EndChar

StartChar: Telugu4
Encoding: 197 3178 197
GlifName: Telugu4_
Width: 595
VWidth: 0
Flags: W
LayerCount: 2
Back
Fore
SplineSet
327 27 m 256
NamedP: "hr00"
 300 27 276 35 254 52 c 256
 231 69 219 88 219 108 c 256
 219 119 227 133 243 150 c 256
 257 166 279 187 310 213 c 257
 343 193 370 173 389 155 c 256
 409 136 419 121 419 108 c 256
 419 88 409 69 390 52 c 256
 371 35 350 27 327 27 c 256
NamedP: "hr00"
352 -1 m 258
 383 -1 414 11 446 38 c 256
 477 64 493 90 493 115 c 256
 493 132 486 151 471 172 c 256
 456 191 435 210 408 229 c 257
 367 249 l 257
 409 284 l 258
 473 338 506 373 506 391 c 256
 506 410 497 428 479 447 c 256
 461 465 437 479 407 490 c 257
 325 453 l 257
 356 441 380 427 399 409 c 256
 416 392 425 375 425 356 c 256
 425 346 419 333 406 317 c 256
 393 302 375 284 352 264 c 257
 262 312 l 257
 230 334 208 350 196 361 c 256
 180 374 172 386 172 395 c 256
 172 406 177 416 188 425 c 257
 199 436 213 445 232 452 c 257
 259 491 l 257
 210 473 170 453 140 432 c 256
 111 411 96 392 96 374 c 256
 96 363 105 349 122 332 c 256
 137 317 161 298 194 274 c 257
 284 223 l 257
 242 192 l 257
 197 151 l 258
 161 119 145 95 145 84 c 256
 145 63 157 43 180 25 c 256
 203 7 228 -1 255 -1 c 258
 352 -1 l 258
EndSplineSet
PickledDataWithLists: "(dp1
S'com.adobe.type.autohint'
p2
(S'data'
S'<data>\\n  <hintSetList>\\n    <hintset pointTag=\"hr00\">\\n      <hstem pos=\"-1\" width=\"28\"/>\\n      <vstem pos=\"96\" width=\"410\"/>\\n      <vstem pos=\"145\" width=\"74\"/>\\n      <vstem pos=\"419\" width=\"74\"/>\\n      <vstem pos=\"425\" width=\"81\"/>\\n    </hintset>\\n  </hintSetList>\\n  </data>'
Ntp3
s."
EndChar

StartChar: Telugu5
Encoding: 198 3179 198
GlifName: Telugu5_
Width: 593
VWidth: 0
Flags: W
LayerCount: 2
Back
Fore
SplineSet
406 324 m 257
NamedP: "hr00"
 395 337 385 351 378 364 c 256
 371 377 368 390 368 401 c 256
 368 420 377 436 395 450 c 256
 414 465 434 473 455 473 c 256
 467 473 476 469 483 462 c 256
 492 454 496 445 496 434 c 256
 496 412 488 391 471 371 c 256
 455 351 433 335 406 322 c 257
 406 324 l 257
NamedP: "hr00"
136 65 m 256
 125 65 115 68 108 75 c 256
 99 82 95 90 95 100 c 256
 95 115 102 130 115 143 c 256
 128 156 147 165 168 175 c 258
 219 198 l 257
 222 189 223 181 223 176 c 256
 223 147 214 122 197 99 c 256
 179 76 159 65 136 65 c 256
106 -1 m 256
 152 -1 192 22 226 69 c 256
 259 116 273 166 268 220 c 257
 355 257 l 257
 394 220 l 257
 434 167 l 258
 462 130 477 107 477 95 c 256
 477 79 472 66 463 55 c 256
 454 43 444 37 432 37 c 256
 419 37 408 42 398 52 c 256
 386 62 377 75 371 91 c 257
 299 54 l 257
 306 36 317 21 333 10 c 256
 350 -1 369 -6 389 -6 c 256
 425 -6 458 8 489 37 c 256
 519 66 534 98 534 131 c 256
 534 143 520 170 494 212 c 258
 468 254 l 257
 434 289 l 257
 489 324 l 257
 512 347 530 367 543 384 c 257
 555 403 561 418 561 429 c 256
 561 448 552 464 534 477 c 256
 515 490 492 497 467 497 c 256
 418 497 378 485 348 462 c 256
 319 440 304 409 304 370 c 256
 304 362 307 350 313 335 c 256
 319 321 327 305 338 286 c 257
 268 259 l 257
 262 317 247 367 223 410 c 256
 198 453 168 481 133 494 c 257
 77 437 l 257
 110 437 140 415 169 374 c 256
 197 333 214 288 217 235 c 257
 157 209 l 258
 120 193 93 172 71 146 c 256
 50 121 38 95 38 68 c 256
 38 49 44 33 58 19 c 256
 72 5 88 -1 106 -1 c 256
EndSplineSet
PickledDataWithLists: "(dp1
S'com.adobe.type.autohint'
p2
(S'data'
S'<data>\\n  <hintSetList>\\n    <hintset pointTag=\"hr00\">\\n      <hstem pos=\"-6\" width=\"43\"/>\\n      <hstem pos=\"-1\" width=\"66\"/>\\n      <hstem pos=\"473\" width=\"24\"/>\\n      <vstem pos=\"38\" width=\"57\"/>\\n      <vstem pos=\"217\" width=\"51\"/>\\n      <vstem pos=\"304\" width=\"64\"/>\\n      <vstem pos=\"477\" width=\"57\"/>\\n      <vstem pos=\"496\" width=\"65\"/>\\n    </hintset>\\n  </hintSetList>\\n  </data>'
Ntp3
s."
EndChar

StartChar: Telugu6
Encoding: 199 3180 199
GlifName: Telugu6_
Width: 593
VWidth: 0
Flags: W
LayerCount: 2
Back
Fore
SplineSet
519 -1 m 257
NamedP: "hr00"
 561 62 l 257
 548 57 l 257
 543 56 536 55 529 55 c 258
 228 55 l 258
 201 55 179 64 160 81 c 256
 141 98 131 119 131 144 c 256
 131 167 146 191 175 220 c 256
 205 250 245 280 296 310 c 257
 222 347 l 258
 198 359 182 372 170 382 c 256
 157 393 150 403 150 410 c 256
 150 420 157 429 170 438 c 256
 182 445 197 449 215 449 c 256
 244 449 270 440 294 425 c 256
 318 409 337 389 349 362 c 257
 405 424 l 257
 398 446 379 463 349 476 c 256
 320 489 285 496 245 496 c 256
 204 496 168 485 137 462 c 256
 108 440 93 412 93 379 c 256
 93 366 103 351 122 333 c 256
 141 316 168 298 201 279 c 257
 152 257 112 233 83 206 c 256
 53 179 38 154 38 131 c 256
 38 99 55 68 93 40 c 256
 130 12 171 -1 214 -1 c 258
 519 -1 l 257
NamedP: "hr00"
EndSplineSet
PickledDataWithLists: "(dp1
S'com.adobe.type.autohint'
p2
(S'data'
S'<data>\\n  <hintSetList>\\n    <hintset pointTag=\"hr00\">\\n      <hstem pos=\"-1\" width=\"56\"/>\\n      <hstem pos=\"449\" width=\"47\"/>\\n      <vstem pos=\"38\" width=\"523\"/>\\n      <vstem pos=\"38\" width=\"93\"/>\\n      <vstem pos=\"93\" width=\"57\"/>\\n    </hintset>\\n  </hintSetList>\\n  </data>'
Ntp3
s."
EndChar

StartChar: Telugu7
Encoding: 200 3181 200
GlifName: Telugu7_
Width: 593
VWidth: 0
Flags: W
LayerCount: 2
Back
Fore
SplineSet
348 -1 m 258
NamedP: "hr00"
 385 -1 422 10 454 35 c 256
 486 59 501 87 501 115 c 256
 501 130 496 146 486 161 c 256
 476 175 462 187 445 197 c 257
 351 155 l 257
 375 146 394 136 407 123 c 256
 420 110 427 97 427 84 c 256
 427 69 416 55 395 44 c 256
 374 33 348 27 318 27 c 256
 281 27 250 37 224 56 c 256
 198 75 185 98 185 125 c 256
 185 138 196 156 218 177 c 256
 236 194 265 217 306 248 c 258
 428 340 l 258
 459 363 471 388 471 405 c 256
 471 427 462 448 444 465 c 256
 425 483 403 490 379 490 c 258
 245 490 l 258
 210 490 178 479 148 455 c 256
 119 432 104 405 104 378 c 256
 104 371 108 356 117 333 c 257
 211 364 l 257
 202 371 196 378 191 385 c 257
 187 394 185 402 185 409 c 256
 185 424 195 438 214 449 c 256
 235 460 259 465 288 465 c 256
 313 465 336 457 357 442 c 256
 378 427 389 410 389 391 c 256
 389 374 377 354 352 329 c 256
 327 304 293 282 251 255 c 256
 201 223 164 193 138 166 c 256
 111 138 98 115 98 98 c 256
 98 71 112 47 141 28 c 256
 170 9 205 -1 244 -1 c 258
 348 -1 l 258
NamedP: "hr00"
EndSplineSet
PickledDataWithLists: "(dp1
S'com.adobe.type.autohint'
p2
(S'data'
S'<data>\\n  <hintSetList>\\n    <hintset pointTag=\"hr00\">\\n      <hstem pos=\"-1\" width=\"28\"/>\\n      <hstem pos=\"465\" width=\"25\"/>\\n      <vstem pos=\"98\" width=\"403\"/>\\n      <vstem pos=\"98\" width=\"87\"/>\\n      <vstem pos=\"104\" width=\"81\"/>\\n      <vstem pos=\"389\" width=\"82\"/>\\n      <vstem pos=\"427\" width=\"74\"/>\\n    </hintset>\\n  </hintSetList>\\n  </data>'
Ntp3
s."
EndChar

StartChar: Telugu8
Encoding: 201 3182 201
GlifName: Telugu8_
Width: 595
VWidth: 0
Flags: W
LayerCount: 2
Back
Fore
SplineSet
261 -6 m 256
NamedP: "hr00"
 314 -6 362 19 403 69 c 256
 444 120 464 178 464 243 c 256
 464 282 458 318 446 351 c 256
 433 386 415 414 393 435 c 257
 510 435 l 257
 573 491 l 257
 287 491 l 257
 243 441 l 257
 292 423 332 391 362 344 c 256
 392 298 407 246 407 189 c 256
 407 143 394 106 371 77 c 256
 347 47 318 32 281 32 c 256
 229 32 186 56 151 105 c 256
 116 154 99 215 99 289 c 256
 99 325 106 356 121 383 c 256
 136 410 155 427 178 435 c 257
 216 492 l 257
 159 471 114 436 81 387 c 256
 48 336 31 281 31 220 c 256
 31 159 54 105 99 60 c 256
 144 16 198 -6 261 -6 c 256
NamedP: "hr00"
EndSplineSet
PickledDataWithLists: "(dp1
S'com.adobe.type.autohint'
p2
(S'data'
S'<data>\\n  <hintSetList>\\n    <hintset pointTag=\"hr00\">\\n      <hstem pos=\"-6\" width=\"38\"/>\\n      <hstem pos=\"435\" width=\"56\"/>\\n      <vstem pos=\"31\" width=\"68\"/>\\n      <vstem pos=\"407\" width=\"57\"/>\\n    </hintset>\\n  </hintSetList>\\n  </data>'
Ntp3
s."
EndChar

StartChar: Telugu9
Encoding: 202 3183 202
GlifName: Telugu9_
Width: 595
VWidth: 0
Flags: W
LayerCount: 2
Back
Fore
SplineSet
250 -6 m 256
NamedP: "hr00"
 284 -6 318 7 352 32 c 256
 386 57 403 82 403 108 c 256
 403 116 400 125 393 134 c 257
 388 143 379 151 366 159 c 257
 297 121 l 257
 312 110 322 101 329 94 c 256
 336 87 340 81 340 76 c 256
 340 65 335 56 326 49 c 257
 318 41 307 37 294 37 c 256
 268 37 242 45 217 61 c 256
 191 77 178 93 178 108 c 256
 178 123 189 137 212 155 c 256
 234 172 264 189 302 203 c 257
 242 224 195 251 160 279 c 256
 124 308 106 334 106 360 c 256
 106 377 111 393 122 408 c 256
 134 424 149 436 166 445 c 257
 461 445 l 258
 466 445 471 444 474 442 c 256
 478 439 482 436 485 431 c 257
 549 491 l 257
 232 491 l 258
 184 491 141 475 106 439 c 256
 71 404 55 360 55 310 c 256
 55 290 66 268 88 243 c 256
 109 219 138 196 175 175 c 257
 152 156 135 139 123 124 c 256
 110 107 104 94 104 85 c 256
 104 62 119 41 150 23 c 256
 181 4 215 -6 250 -6 c 256
NamedP: "hr00"
EndSplineSet
PickledDataWithLists: "(dp1
S'com.adobe.type.autohint'
p2
(S'data'
S'<data>\\n  <hintSetList>\\n    <hintset pointTag=\"hr00\">\\n      <hstem pos=\"-6\" width=\"43\"/>\\n      <hstem pos=\"445\" width=\"46\"/>\\n      <vstem pos=\"55\" width=\"51\"/>\\n      <vstem pos=\"104\" width=\"74\"/>\\n      <vstem pos=\"340\" width=\"63\"/>\\n    </hintset>\\n  </hintSetList>\\n  </data>'
Ntp3
s."
EndChar

StartChar: uni0C78
Encoding: 203 3192 203
GlifName: uni0C78_
Width: 558
VWidth: 0
Flags: W
LayerCount: 2
Back
Fore
SplineSet
82 349 m 256
NamedP: "hr00"
 82 457 181 528 273 528 c 256
 371 528 464 448 463 345 c 256
 462 296 437 246 402 214 c 256
 369 183 317 166 273 166 c 256
 186 166 82 215 82 349 c 256
NamedP: "hr00"
16 331 m 256
 16 164 135 60 273 60 c 256
 311 60 347 65 378 80 c 258
 380 81 l 257
 411 64 l 258
 435 51 446 30 446 9 c 256
 446 -16 426 -39 354 -80 c 256
 316 -102 279 -116 243 -133 c 258
 218 -145 l 257
 206 -148 197 -161 197 -174 c 256
 197 -191 212 -207 229 -207 c 256
 233 -207 237 -206 242 -204 c 258
 285 -185 l 258
 318 -171 356 -151 397 -126 c 256
 439 -101 470 -77 490 -55 c 256
 510 -34 520 -12 520 11 c 256
 520 60 487 89 453 111 c 257
 439 118 l 257
 446 122 452 127 458 134 c 256
 501 182 528 249 528 328 c 256
 528 471 418 584 271 584 c 256
 112 584 16 462 16 331 c 256
EndSplineSet
PickledDataWithLists: "(dp1
S'com.adobe.type.autohint'
p2
(S'data'
S'<data>\\n  <hintSetList>\\n    <hintset pointTag=\"hr00\">\\n      <hstem pos=\"60\" width=\"106\"/>\\n      <hstem pos=\"528\" width=\"56\"/>\\n      <vstem pos=\"16\" width=\"66\"/>\\n      <vstem pos=\"446\" width=\"74\"/>\\n      <vstem pos=\"463\" width=\"65\"/>\\n    </hintset>\\n  </hintSetList>\\n  </data>'
Ntp3
s."
EndChar

StartChar: uni0C79
Encoding: 204 3193 204
GlifName: uni0C79_
Width: 110
VWidth: 0
Flags: W
LayerCount: 2
Back
Fore
SplineSet
81 9 m 257
NamedP: "hr00"
 81 16 l 257
 81 567 l 258
 81 571 79 578 79 579 c 256
 74 592 62 598 49 598 c 256
 12 598 16 567 16 567 c 257
 16 16 l 258
 16 11 10 -12 49 -12 c 256
 64 -12 76 -7 81 4 c 257
 81 9 l 257
NamedP: "hr00"
EndSplineSet
PickledDataWithLists: "(dp1
S'com.adobe.type.autohint'
p2
(S'data'
S'<data>\\n  <hintSetList>\\n    <hintset pointTag=\"hr00\">\\n      <hstem pos=\"-12\" width=\"610\"/>\\n      <hstem pos=\"567\" width=\"31\"/>\\n      <vstem pos=\"16\" width=\"65\"/>\\n    </hintset>\\n  </hintSetList>\\n  </data>'
Ntp3
s."
EndChar

StartChar: uni0C7A
Encoding: 205 3194 205
GlifName: uni0C7A_
Width: 361
VWidth: 0
Flags: W
LayerCount: 2
Back
Fore
SplineSet
330 17 m 257
NamedP: "hr00"
 330 602 l 257
 329 615 l 257
 326 630 311 637 294 637 c 256
 279 637 263 629 262 618 c 256
 261 607 261 606 261 601 c 258
 261 341 l 257
 241 326 205 321 169 321 c 257
 126 325 84 332 84 402 c 258
 84 602 l 257
 83 615 l 258
 82 630 66 637 50 637 c 256
 35 637 18 629 17 618 c 256
 16 607 16 606 16 602 c 258
 16 404 l 258
 16 297 100 256 168 256 c 257
 201 251 257 269 261 272 c 257
 261 17 l 257
 261 1 l 257
 262 -7 279 -15 294 -15 c 256
 311 -15 326 -9 329 6 c 257
 330 17 l 257
NamedP: "hr00"
EndSplineSet
PickledDataWithLists: "(dp1
S'com.adobe.type.autohint'
p2
(S'data'
S'<data>\\n  <hintSetList>\\n    <hintset pointTag=\"hr00\">\\n      <hstem pos=\"256\" width=\"65\"/>\\n      <vstem pos=\"16\" width=\"68\"/>\\n      <vstem pos=\"261\" width=\"69\"/>\\n    </hintset>\\n  </hintSetList>\\n  </data>'
Ntp3
s."
EndChar

StartChar: uni0C7B
Encoding: 206 3195 206
GlifName: uni0C7B_
Width: 596
VWidth: 0
Flags: W
LayerCount: 2
Back
Fore
SplineSet
565 11 m 257
NamedP: "hr00"
 565 17 l 257
 565 596 l 257
 565 605 l 257
 562 621 547 627 532 627 c 256
 516 627 499 620 499 605 c 258
 499 596 l 257
 499 335 l 257
 478 324 443 316 407 316 c 256
 364 316 325 334 325 395 c 258
 325 597 l 257
 325 605 l 257
 322 621 308 627 292 627 c 256
 276 627 258 620 258 605 c 258
 258 597 l 257
 258 398 l 257
 258 393 l 258
 258 342 231 316 167 316 c 256
 122 316 83 334 83 395 c 258
 83 598 l 257
 83 605 l 258
 83 621 66 628 50 628 c 256
 33 628 16 620 16 605 c 258
 16 598 l 257
 16 398 l 258
 16 290 95 253 167 252 c 256
 214 252 252 265 281 290 c 256
 286 295 289 298 292 299 c 257
 295 295 299 291 304 287 c 256
 336 263 372 253 407 252 c 256
 440 251 492 266 499 267 c 257
 499 17 l 257
 499 16 491 -15 532 -15 c 256
 547 -15 561 -9 565 6 c 257
 565 11 l 257
NamedP: "hr00"
EndSplineSet
PickledDataWithLists: "(dp1
S'com.adobe.type.autohint'
p2
(S'data'
S'<data>\\n  <hintSetList>\\n    <hintset pointTag=\"hr00\">\\n      <hstem pos=\"252\" width=\"64\"/>\\n      <vstem pos=\"16\" width=\"67\"/>\\n      <vstem pos=\"258\" width=\"67\"/>\\n      <vstem pos=\"499\" width=\"66\"/>\\n    </hintset>\\n  </hintSetList>\\n  </data>'
Ntp3
s."
EndChar

